<svg width="33" height="32" viewBox="0 0 33 32" fill="none" xmlns="http://www.w3.org/2000/svg">
<path d="M27.4602 14.7L21.3788 8.6C21.0797 8.2 20.5813 8 20.0828 8H12.1072C11.0105 8 10.1133 8.9 10.1133 10V28C10.1133 29.1 11.0105 30 12.1072 30H26.0645C27.1611 30 28.0584 29.1 28.0584 28V16.1C28.0584 15.6 27.859 15.1 27.4602 14.7ZM20.0828 10L25.9648 16H20.0828V10ZM12.1072 28V10H18.0889V16C18.0889 17.1 18.9861 18 20.0828 18H26.0645V28H12.1072Z" fill="#E9E9E9"/>
<path d="M6.12281 18H4.12891V4C4.12891 2.9 5.02616 2 6.12281 2H20.0801V4H6.12281V18Z" fill="#E9E9E9"/>
</svg>
