<svg width="80" height="80" viewBox="0 0 80 80" fill="none" xmlns="http://www.w3.org/2000/svg">
<g clip-path="url(#clip0_418_12353)">
<path d="M22.5781 9.54688C13.2031 14.7969 5.42183 19.2188 5.28121 19.4062C4.87496 19.8594 4.92183 20.5781 5.37496 20.9844C5.57808 21.1719 6.98433 21.9219 8.49996 22.6406L11.25 23.9531V26.3594V28.75H10.3906C9.67183 28.75 9.45308 28.8125 9.14058 29.1406L8.74996 29.5156V35.625V41.7344L9.14058 42.1094C9.51558 42.5 9.54683 42.5 12.5 42.5C15.4531 42.5 15.4843 42.5 15.8593 42.1094L16.25 41.7344V35.625V29.5156L15.8593 29.1406C15.5468 28.8125 15.3281 28.75 14.6093 28.75H13.75V27.0313C13.75 26.0781 13.7812 25.3125 13.8281 25.3125C14 25.3125 21.875 29.2969 21.875 29.3906C21.875 29.4375 21.5312 30 21.1093 30.6406C20.1562 32.0781 19.2031 33.9688 18.75 35.3125C17.625 38.6563 17.7187 42.6875 19 46.2813C19.8437 48.6406 22.4218 53.2188 23.1406 53.5938C23.9218 54.0156 25 53.4063 25 52.5469C25 52.2813 24.6562 51.6094 24.125 50.8125C22.4062 48.2656 21.0625 45.125 20.6406 42.75C20.4062 41.4531 20.4375 38.8594 20.6875 37.6563C21.2343 35.1094 22.2968 33.125 25.2187 29.2344C26.1406 28 27.0625 26.6094 27.2656 26.1563C27.6875 25.2188 27.9531 25.0313 29.6875 24.5625C32.7343 23.7188 36.6875 23.3594 41.4843 23.4844C46.1406 23.6094 49.6093 24.125 51.5937 24.9844C52.25 25.2656 52.3906 25.4219 52.8281 26.2969C53.0937 26.8438 53.7656 27.8906 54.3125 28.6094C57.125 32.2656 58.1562 33.9844 58.9218 36.25C59.3437 37.5 59.4375 38.0469 59.5 39.625C59.5468 40.75 59.5 41.9531 59.3906 42.5781C58.9375 45.1406 57.6718 48.125 55.875 50.7969C55.3281 51.6094 55 52.2656 55 52.5469C55 53.4063 56.0781 54.0156 56.8593 53.5938C57.2656 53.3906 58.8593 50.8594 59.8281 48.9375C61.3437 45.9063 62.0312 43.2656 62.0312 40.4063C62.0312 36.875 61.0937 33.9844 58.875 30.5781C58.4375 29.9063 58.1093 29.3281 58.1562 29.2969C58.1875 29.25 61.8593 27.4219 66.3125 25.2188C70.7656 23.0156 74.5312 21.0938 74.7031 20.9219C75.0781 20.5469 75.0937 19.8281 74.7343 19.4062C74.5781 19.2344 72.5156 18 70.1562 16.6719C67.7968 15.3594 60.125 11.0625 53.1093 7.14062C45.9375 3.125 40.1875 -3.8147e-06 39.9843 0.0156212C39.7812 0.0156212 31.9531 4.3125 22.5781 9.54688ZM55.3281 11.2656C63.7812 15.9844 70.7656 19.9219 70.8437 20C70.9375 20.0938 69.3906 20.9375 66.8593 22.1563C64.5937 23.2656 61.3125 24.8906 59.5937 25.75L56.4375 27.3281L55.7656 26.3594L55.0781 25.3906L55 21.3125L54.9218 17.2344L54.5 16.7031C53.3906 15.2344 49.6875 14.1875 44.2343 13.75C35.8125 13.1094 27.2031 14.4531 25.5 16.7031L25.0781 17.2344L25 21.3125L24.9218 25.3906L24.2343 26.3594L23.5625 27.3281L18.6562 24.875L13.75 22.4219V19.9062V17.375L26.6875 10.1562C33.7968 6.1875 39.6718 2.875 39.7656 2.79687C39.8437 2.71875 39.9218 2.65625 39.9375 2.65625C39.9375 2.65625 46.875 6.53125 55.3281 11.2656ZM46.3437 16.4688C48.4375 16.75 50.8437 17.3125 51.7968 17.75L52.4218 18.0469L52.4687 20.3438L52.5156 22.625L51.2968 22.25C45.8593 20.5156 34.1406 20.5156 28.7031 22.2344L27.5 22.625V20.3906C27.5 18.7969 27.5625 18.125 27.7031 18.0156C28.4218 17.4375 31.5625 16.6719 34.2968 16.4062C35.25 16.3281 36.2968 16.2188 36.6406 16.1875C38.0156 16.0469 44.5625 16.25 46.3437 16.4688ZM11.25 20V21.2344L10.1406 20.6875C9.53121 20.375 9.07808 20.0781 9.14058 20.0312C9.21871 19.9531 11.0937 18.7969 11.2187 18.7656C11.2343 18.75 11.25 19.3125 11.25 20ZM13.75 35.625V40H12.5H11.25V35.625V31.25H12.5H13.75V35.625Z" fill="#E9E9E9"/>
<path d="M36.0156 25.5469C35.7344 25.8125 35.625 26.0938 35.625 26.5469C35.625 28.1719 34.3281 30.0781 32.6719 30.8906C31.8906 31.2812 31.5938 31.3281 30 31.375C29.0156 31.4062 28.0469 31.5 27.875 31.5938C27.4531 31.7969 27.1875 32.3594 27.1875 33.0469C27.1875 33.5156 27.1406 33.5938 26.8281 33.5938C26.625 33.5938 26.1094 33.7812 25.6562 34C23.5312 35.0625 22.5312 37.75 23.3438 40.1562C23.9219 41.8125 25.8594 43.2812 27.4531 43.2812C27.9375 43.2812 28 43.3438 28.3594 44.1562C28.9844 45.5781 30.0938 47.0938 31.3281 48.25L32.5 49.3438V50.625V51.8906L32.0938 51.5781C31.25 50.9062 30.9062 51.0781 28.7656 53.1875C26.7969 55.1094 26.7969 55.1094 25.9219 55.2188C23.5938 55.4688 19.875 57.0156 17.75 58.625C14.3594 61.1875 11.7812 65.0156 10.7031 69.125C10.1562 71.1719 10 72.7969 10 76.2188C10 79.2188 10 79.2344 10.3906 79.6094L10.7656 80H40H69.2344L69.6406 79.5938L70.0312 79.2031L69.9531 75.3438C69.8906 72.25 69.8125 71.2188 69.5625 70.1562C68.5938 66.0312 66.875 62.9688 64 60.1875C62.375 58.6406 60.875 57.5938 59.0156 56.7188C57.5312 56.0156 55.3438 55.3594 54.0781 55.2188C53.2031 55.1094 53.2031 55.1094 51.2344 53.1875C49.0938 51.0781 48.75 50.9062 47.9062 51.5781L47.5 51.8906V50.625V49.3438L48.6719 48.25C49.9062 47.0938 51.0156 45.5781 51.6406 44.1562C52 43.3438 52.0625 43.2812 52.5469 43.2812C54.1406 43.2812 56.0781 41.8125 56.6562 40.1562C57.4688 37.75 56.4688 35.0625 54.3438 34C53.8906 33.7812 53.375 33.5938 53.1719 33.5938C52.8594 33.5938 52.8125 33.5156 52.8125 33.0469C52.8125 32.3594 52.5469 31.7969 52.125 31.5781C51.9219 31.4688 50.125 31.3906 47.2656 31.375L42.7344 31.3281L41.6875 30.8281C39.9062 29.9844 38.5312 28.2812 38.1875 26.5C37.9688 25.25 36.7969 24.75 36.0156 25.5469ZM39.5625 32.5156C39.9844 32.7969 40.7969 33.1875 41.375 33.4062C42.375 33.7969 42.5938 33.8125 46.3906 33.875L50.3438 33.9375L50.2656 37.3125C50.1875 40.9531 50.0781 41.5625 49.25 43.3281C47.9688 46.0312 45.2812 48.2188 42.3438 48.9219C41.2344 49.1875 38.75 49.1875 37.6562 48.9219C34.7656 48.2188 32.2656 46.25 30.875 43.5938C29.9531 41.8438 29.8125 41.0781 29.7344 37.2969L29.6562 33.9062H30.4531C32.8906 33.9062 35.5938 32.5156 36.7344 30.6719L37.0312 30.1875L37.9219 31.1094C38.3906 31.6094 39.1406 32.25 39.5625 32.5156ZM27.2188 38.3906C27.25 39.6719 27.2656 40.7344 27.25 40.7656C27.1562 40.875 26.1562 40.1562 25.9531 39.8125C25.2969 38.7656 25.4844 37.3281 26.3594 36.5625C26.6406 36.2969 26.9531 36.0938 27.0156 36.0938C27.0938 36.0938 27.1875 37.125 27.2188 38.3906ZM53.6719 36.6094C54.5625 37.5 54.6875 38.8281 53.9844 39.9062C53.7344 40.2812 52.8438 40.8906 52.75 40.75C52.625 40.5781 52.875 36.0938 53 36.0938C53.0938 36.0938 53.3906 36.3281 53.6719 36.6094ZM42.5 56.9531L40 59.4531L37.5 56.9531L35 54.4531V52.625C35 51.6094 35.0469 50.7812 35.125 50.7812C35.1875 50.7812 35.6719 50.9219 36.2188 51.0938C38.6406 51.8594 41.5312 51.8438 43.8906 51.0469L44.9219 50.7031L44.9688 52.5781L45.0156 54.4375L42.5 56.9531ZM34.7656 57.8125L38.2031 61.25L37.2188 62.2188L36.25 63.2031L32.7812 59.7344L29.2969 56.25L30.2344 55.3125C30.75 54.7969 31.2031 54.375 31.25 54.375C31.2969 54.375 32.875 55.9219 34.7656 57.8125ZM49.7656 55.3125L50.7031 56.25L47.2188 59.7344L43.75 63.2031L42.7812 62.2188L41.7969 61.25L45.2344 57.8125C47.125 55.9219 48.7031 54.375 48.75 54.375C48.7969 54.375 49.25 54.7969 49.7656 55.3125ZM31.4062 61.9531C35.3281 65.875 35.7656 66.25 36.2344 66.25C36.6875 66.25 36.9844 66.0312 38.375 64.6562L40 63.0625L41.625 64.6562C43.0156 66.0312 43.3125 66.25 43.7656 66.25C44.2344 66.25 44.6719 65.8594 48.6094 61.9375L52.9375 57.6094L53.8125 57.7188C57.1719 58.1094 61.2656 60.4844 63.5938 63.375C66.3438 66.8125 67.5 70.3438 67.5 75.3438V77.5H63.125H58.75V75.3906C58.75 73.3438 58.7344 73.25 58.3594 72.8906C57.8594 72.375 57.1406 72.375 56.6406 72.8906C56.2656 73.25 56.25 73.3438 56.25 75.3906V77.5H40H23.75V75.3906C23.75 73.3438 23.7344 73.25 23.3594 72.8906C22.8594 72.375 22.1406 72.375 21.6406 72.8906C21.2656 73.25 21.25 73.3438 21.25 75.3906V77.5H16.8594H12.4531L12.5469 74.5625C12.6094 72.1094 12.6875 71.3906 13.0156 70.125C14.0312 66.25 16.1406 63 19.0938 60.7812C21.3281 59.0938 24.6094 57.7344 26.5625 57.6719C27.0625 57.6562 27.375 57.9219 31.4062 61.9531Z" fill="#E9E9E9"/>
</g>
<defs>
<clipPath id="clip0_418_12353">
<rect width="80" height="80" rx="13.3054" fill="white"/>
</clipPath>
</defs>
</svg>
