<svg width="136" height="111" viewBox="0 0 136 111" fill="none" xmlns="http://www.w3.org/2000/svg">
<path d="M107.07 107.944L131.972 82.9987C132.687 82.2519 133.091 81.2573 133.102 80.2191V45.7233C133.093 43.1176 132.063 40.6214 130.237 38.7789C128.41 36.9364 125.936 35.8971 123.353 35.8877V35.8877C120.765 35.8877 118.281 36.9229 116.448 38.7664C114.614 40.6099 113.579 43.1115 113.569 45.7233V75.2657" stroke="#0095F6" stroke-width="4.5" stroke-linecap="round" stroke-linejoin="round"/>
<path d="M107.071 81.6802L112.652 76.0497C112.933 75.7473 113.16 75.3975 113.323 75.0162C113.493 74.6232 113.577 74.1978 113.57 73.7689C113.556 73.181 113.398 72.6056 113.111 72.094C112.803 71.5995 112.362 71.2038 111.839 70.9537L108.943 69.4927C106.502 68.2603 103.738 67.8346 101.043 68.2759C98.349 68.7173 95.8607 70.0032 93.9314 71.9515L88.0681 77.7959C85.6328 80.2543 84.2613 83.5855 84.2534 87.0613V107.908" stroke="#0095F6" stroke-width="4.5" stroke-linecap="round" stroke-linejoin="round"/>
<path d="M28.904 107.944L4.17922 82.9987C3.44184 82.264 3.02281 81.2646 3.01367 80.2191V45.7233C3.02302 43.1115 4.05787 40.6099 5.89171 38.7664C7.72554 36.9229 10.2088 35.8877 12.7976 35.8877V35.8877C15.3371 35.9617 17.7484 37.0294 19.5216 38.865C21.2948 40.7006 22.2909 43.1601 22.299 45.7233V75.2657" stroke="#0095F6" stroke-width="4.5" stroke-linecap="round" stroke-linejoin="round"/>
<path d="M28.9049 81.6802L23.3241 76.0497C22.7392 75.4366 22.4103 74.6199 22.4058 73.7689C22.4082 73.1797 22.5752 72.6031 22.8876 72.1051C23.1999 71.6072 23.645 71.2081 24.1718 70.9537L27.0328 69.4927C29.4737 68.2451 32.2469 67.8203 34.9448 68.281C37.6096 68.6985 40.079 69.9442 42.009 71.8446L47.8018 77.7246C49.0139 78.9373 49.9754 80.3808 50.6302 81.9713C51.2851 83.5618 51.6202 85.2676 51.6164 86.9899V107.837" stroke="#0095F6" stroke-width="4.5" stroke-linecap="round" stroke-linejoin="round"/>
<path d="M78.8128 55.4164H57.1256V40.0929H41.9375V18.1766H57.1256V2.95996H78.8128V18.2835H94.0009V40.1998H78.8128V55.4164Z" stroke="#0095F6" stroke-width="4.5" stroke-linecap="round" stroke-linejoin="round"/>
</svg>
