<svg width="80" height="80" viewBox="0 0 80 80" fill="none" xmlns="http://www.w3.org/2000/svg">
<g clip-path="url(#clip0_418_12360)">
<path d="M38 2.5625C36.2031 3.04688 35.2031 3.57812 33.9687 4.71875C33.1406 5.5 32.9219 5.625 32.3906 5.625C31.5156 5.625 29.5625 6.15625 28.5625 6.65625C25.3906 8.25 23.4219 11.6094 23.4375 15.4531C23.4531 18.0625 24.0781 20.625 25.2969 23L25.9062 24.1875L25.375 24.7031C24.5781 25.4844 24.2031 26.3906 24.1094 27.7812C23.9375 30.1719 24.8594 31.9688 26.6406 32.75C26.9844 32.9062 27.2812 33.0312 27.2969 33.0469C27.3281 33.0625 27.5156 33.6875 27.7344 34.4531C28.5312 37.1875 29.7031 39.2344 31.4375 40.9688L32.5 42.0156L32.2656 43.3906C31.9844 45.0469 31.4219 46.7031 31.0937 46.875C30.9687 46.9375 29.2812 47.4688 27.3437 48.0469C23.8125 49.0938 23.2812 49.3438 23.2812 49.9844C23.2812 50.2188 23.0156 50.2812 21.6094 50.4375C15.5469 51.0625 10.8437 55.0156 9.03125 60.9688C8.70312 62.0625 8.6875 62.3906 8.625 69.6406C8.57812 77.0781 8.57812 77.1719 8.89062 77.4844L9.21875 77.8125H40H70.7812L71.1094 77.4844C71.4219 77.1719 71.4219 77.0781 71.375 69.6406C71.3125 62.3906 71.2969 62.0625 70.9687 60.9688C69.125 54.875 64.1094 50.7969 57.9375 50.3594C56.6562 50.2656 56.5625 50.25 56.5625 49.9219C56.5625 49.7344 56.4375 49.4688 56.2969 49.3281C56.0625 49.1406 53.9687 48.4688 48.875 46.9375C48.5625 46.8438 48.0469 45.5312 47.7344 44.0312C47.3437 42.2031 47.3594 42.1406 48.6562 40.7812C50.4062 38.9531 51.8281 36.25 52.3594 33.7344C52.5 33.0938 52.5781 33 53.0937 32.8438C53.9219 32.5938 54.7969 31.8125 55.2656 30.875C55.6094 30.2188 55.7031 29.8125 55.75 28.5781C55.7969 27.6094 55.75 26.8438 55.625 26.4688C55.3281 25.5469 54.5625 24.5469 53.9687 24.25C53.5937 24.0781 53.4375 23.9219 53.5 23.75C53.5469 23.625 53.8281 22.8125 54.125 21.9531C55.8125 17.0469 55.625 12.2188 53.5781 8.8125C51.3594 5.125 46.3125 2.42188 41.3281 2.25C39.7031 2.1875 39.2656 2.23438 38 2.5625ZM43.6719 4.70312C48.5937 5.98438 51.75 8.64062 52.7344 12.3438C53.2812 14.375 53.1875 17.2344 52.4687 19.8906L52.1562 21.1094L51.5312 19.8438C50.8125 18.375 49.4531 16.8281 48.3125 16.2031C47.0781 15.5312 45.9531 15.3125 44.3125 15.4219C40.9219 15.6406 37.5937 14.625 34.7656 12.5C34.0781 11.9844 33.3594 11.5156 33.1875 11.4688C32.7031 11.3438 32.0312 11.7344 30.8594 12.8281C28.75 14.8125 27.4844 17.2031 26.9687 20.1875L26.7812 21.3281L26.4375 20.3125C25.6406 17.9688 25.4062 15 25.8594 13.2969C26.7187 10.0625 28.9375 8.21875 32.5 7.76562L34.1406 7.54688L35.1094 6.60938C36.6719 5.0625 38.4062 4.40625 40.9531 4.39062C41.9844 4.375 42.8125 4.46875 43.6719 4.70312ZM33.7812 14.5312C36.4375 16.5469 40.8594 17.8438 44.3281 17.5938C45.5625 17.5156 45.875 17.5469 46.6562 17.8281C47.7812 18.25 48.8594 19.2969 49.5312 20.625C50.0625 21.6875 50.625 23.6562 50.625 24.4844C50.625 25.0312 50.8594 25.625 51.1562 25.8125C51.25 25.875 51.5937 25.9375 51.9219 25.9375C53.1406 25.9375 53.5937 26.5781 53.5937 28.2812C53.5937 29.9688 53.125 30.6406 51.7187 31.0156C51.2656 31.1406 50.8281 31.2969 50.75 31.375C50.6719 31.4531 50.4844 32.1406 50.3281 32.9062C49.1094 38.7812 45.2969 42.1719 39.9062 42.1875C37.1406 42.1875 34.7969 41.2344 32.875 39.3125C31.0781 37.5156 29.9687 35.3125 29.5156 32.7031C29.3281 31.5469 29.0469 31.0938 28.5312 31.0938C28.3437 31.0938 27.9062 30.9531 27.5312 30.7812C26.6875 30.4062 26.2656 29.5469 26.25 28.2344C26.25 26.6406 26.7656 25.9375 27.9531 25.9375C28.7969 25.9375 28.9531 25.5312 28.9219 23.4844C28.875 20.4844 29.4844 18.1562 30.875 16.0781C31.4375 15.2188 32.6719 13.9062 32.9219 13.9062C32.9375 13.9062 33.3281 14.1875 33.7812 14.5312ZM36.5781 43.9062C38.9687 44.5781 41.6719 44.4844 44.0937 43.6562C45.4531 43.2031 45.4687 43.2031 45.4687 43.625C45.4687 44.2188 46.0781 46.4219 46.4687 47.2969L46.8594 48.1094L46.3281 51.5781C46.0312 53.4688 45.75 55.0781 45.7031 55.125C45.2969 55.5469 34.5625 55.5625 34.1562 55.1406C34.1094 55.0938 33.8437 53.5156 33.5469 51.6406C33.0625 48.4531 33.0312 48.1562 33.25 47.6562C33.6562 46.7188 34.2031 44.9688 34.375 44.0312L34.5469 43.125L34.9844 43.3594C35.2344 43.4844 35.9531 43.7344 36.5781 43.9062ZM31.2187 50.5C31.4219 52.0469 31.7969 54.5469 33.2656 64.2031C33.875 68.2031 34.3594 71.4844 34.3281 71.5C34.2812 71.5469 26.9687 59.6875 26.9062 59.4688C26.8906 59.3594 27.2812 58.7969 27.8125 58.2031C28.3281 57.625 28.75 57.0156 28.75 56.8594C28.75 56.7031 28.1094 55.2812 27.3125 53.6875C26.5312 52.0938 25.9062 50.7656 25.9531 50.7344C26.0469 50.6719 30.6719 49.2656 30.875 49.2344C30.9687 49.2344 31.1094 49.7812 31.2187 50.5ZM51.5937 50.0156C52.875 50.3906 53.9062 50.75 53.9062 50.8281C53.9062 50.8906 53.2656 52.2188 52.4844 53.7656C51.5156 55.7188 51.0937 56.7188 51.1562 56.9531C51.2031 57.1406 51.6562 57.7656 52.1719 58.3438L53.0937 59.3906L49.3281 65.4688C47.25 68.8125 45.5469 71.5312 45.5312 71.5156C45.5 71.4844 48.7187 50.0781 48.8281 49.5625C48.875 49.3594 49 49.2344 49.1094 49.2656C49.2187 49.2969 50.3281 49.6406 51.5937 50.0156ZM25.2812 54.4531C25.8125 55.5312 26.25 56.4844 26.25 56.5781C26.25 56.6719 25.8281 57.2188 25.2969 57.7812C24.5 58.6562 24.3594 58.8906 24.4062 59.2969C24.4375 59.5625 26.5312 63.0938 29.3437 67.6406C32.0312 71.9688 34.2187 75.5312 34.2187 75.5625C34.2187 75.5938 28.9531 75.625 22.5 75.625H10.7812V69.3281C10.7812 63.5 10.8125 62.9219 11.0937 61.7812C11.9062 58.6094 13.8906 55.9375 16.5781 54.3438C17.125 54.0156 17.5781 53.7812 17.6094 53.8125C17.6406 53.8281 17.5 54.2031 17.3281 54.625C16.75 55.9062 16.4062 57.5 16.2969 59.3281C16.25 60.2969 16.1406 61.0938 16.0781 61.0938C16.0156 61.0938 15.5312 61.4844 15.0156 61.9688C14.3594 62.5781 13.9062 63.1719 13.5625 63.8906C12.625 65.8594 12.8125 68.5625 14.0469 70.5C14.625 71.4219 15 71.5312 16.1094 71.0938C17.2031 70.6562 17.5 70.375 17.5 69.7656C17.5 69.0469 17.0469 68.6875 16.25 68.7969C15.5156 68.8906 15.4375 68.7969 15.1719 67.4844C14.8125 65.7344 15.6094 63.9531 17.1875 63.0156C19.2187 61.7969 21.8437 62.7344 22.9062 65.0625C23.4062 66.1719 23.4531 66.7812 23.0469 66.8438C22.5312 66.9375 22.1875 67.3594 22.1875 67.8906C22.1875 68.5625 22.5937 68.8906 23.6094 69.0469C24.5 69.1875 24.9687 69.0938 25.2812 68.7031C25.5312 68.4062 25.5469 66.2031 25.3125 65.2812C24.5937 62.5781 22.1719 60.5156 19.5469 60.3438L18.3906 60.2656L18.4844 59C18.6719 56.5469 19.4062 54.6719 20.7187 53.3125L21.5 52.5H22.9062H24.2969L25.2812 54.4531ZM58.4531 53.1562C59.4687 54.5312 60.3437 57.2188 60.5625 59.5625L60.6562 60.7031L60.0781 60.9062C58.8125 61.375 57.7812 62.7969 57.5625 64.3281C57.25 66.7188 59.3437 69.0625 61.7969 69.0625C64.2656 69.0625 66.3281 66.7344 66.0312 64.3125C65.8437 62.8281 64.7969 61.4531 63.4219 60.875L62.8594 60.6406L62.6719 59.0938C62.4687 57.4219 61.9844 55.4375 61.4375 54.0938C61.2187 53.5625 61.1562 53.2812 61.2812 53.2812C61.7344 53.2812 63.8437 54.4844 64.7969 55.2969C66.8437 57.0156 68.2656 59.2656 68.9062 61.7812C69.1875 62.9219 69.2187 63.5469 69.2187 69.3281V75.625H57.4062H45.5937L45.9531 75.0312C46.1562 74.7188 48.375 71.125 50.8906 67.0469C53.9062 62.1719 55.4687 59.4844 55.4687 59.2188C55.4687 58.9219 55.1719 58.4688 54.5312 57.7344C54.0156 57.1562 53.5937 56.6094 53.5937 56.5469C53.5937 56.4688 54.0312 55.5312 54.5625 54.4531L55.5469 52.5H56.75H57.9687L58.4531 53.1562ZM45.375 57.8906C45.3437 58.0625 44.75 61.9688 44.0625 66.5625C43.375 71.1562 42.7812 75.0781 42.7344 75.2656C42.6562 75.625 42.625 75.625 39.9219 75.625C38.4219 75.625 37.1875 75.6094 37.1875 75.5781C37.1875 75.5625 36.5625 71.5 35.8125 66.5625L34.4531 57.5781H39.9531C45.375 57.5781 45.4531 57.5781 45.375 57.8906ZM62.9219 63.0469C63.125 63.1875 63.4375 63.5156 63.5937 63.7969C64.4219 65.125 63.3906 66.875 61.7969 66.875C60.1406 66.875 59.1406 65.0781 60.0469 63.7344C60.7187 62.7188 61.9531 62.4219 62.9219 63.0469Z" fill="#E9E9E9"/>
</g>
<defs>
<clipPath id="clip0_418_12360">
<rect width="80" height="80" rx="13.3054" fill="white"/>
</clipPath>
</defs>
</svg>
