<svg width="80" height="80" viewBox="0 0 80 80" fill="none" xmlns="http://www.w3.org/2000/svg">
<g clip-path="url(#clip0_418_12366)">
<g clip-path="url(#clip1_418_12366)">
<path d="M37.3594 0.171875C33.2969 0.640625 29.1406 2.40625 25.8437 5.0625C20.0781 9.70312 16.9219 17.1562 17.6719 24.375C17.9219 26.7656 17.9219 27.5312 17.6719 28.4375C16.9844 30.9219 19.0937 33.5938 21.75 33.5938C22.7031 33.5938 22.6875 33.5781 22.8906 34.6875C23.0937 35.7969 23.7969 37.7656 24.4219 39.0156L25.0625 40.3125L24.8906 41.3438C24.6719 42.625 23.9062 44.2188 22.0781 47.2656C19.9062 50.8906 19.2344 52.6562 18.9062 55.6719C18.8125 56.5469 18.6875 57.3125 18.625 57.3594C18.5625 57.4062 17.6875 57.75 16.6719 58.125C15.6562 58.4844 14.4375 59.0469 13.9375 59.3594C12.7812 60.1094 11.5625 61.4844 10.9375 62.75C10.0625 64.5312 10 65.1719 10 72.5469V79.2344L10.3906 79.6094C10.875 80.1094 11.4687 80.1094 11.9531 79.6094L12.3437 79.2344V72.5312C12.3437 66.2812 12.3594 65.75 12.6562 64.8125C13.1875 63.0781 14.2344 61.7969 15.75 61.0312C16.4844 60.6562 25.7344 57.3438 26.0312 57.3438C26.2031 57.3438 27.1875 58.625 27.1875 58.8438C27.1875 58.9062 26.75 59.625 26.2187 60.4375C25.3594 61.7344 25.25 61.9844 25.2656 62.625C25.2812 63.5156 25.9687 65.0625 26.4844 65.4062C27.0469 65.7812 27.7812 65.5625 28.0781 64.9375C28.2969 64.4531 28.2969 64.375 27.9844 63.6719C27.8125 63.2656 27.6562 62.8281 27.6562 62.7188C27.6562 62.6094 28.1406 61.7656 28.75 60.8438C29.4375 59.8125 29.8437 59.0312 29.8437 58.7656C29.8437 58.4688 29.4062 57.75 28.4219 56.4375C27.5 55.2031 27.0312 54.4531 27.0937 54.2812C27.2031 53.9844 31.7187 51.8125 31.8906 51.9844C31.9531 52.0469 33.5312 56.1562 35.375 61.1094L38.75 70.1094V74.4219C38.75 77.0156 38.8125 78.9062 38.9062 79.1562C39.2344 80.0156 39.9687 80.2344 40.6875 79.6719L41.0937 79.3594V74.8906V70.4219L44.5625 61.2656C46.4531 56.2344 48.0625 52.0469 48.125 51.9844C48.1875 51.9219 49.2656 52.3594 50.5156 52.9531C52.4375 53.8594 52.8125 54.1094 52.8125 54.3906C52.8125 54.5781 52.2187 55.5312 51.4844 56.5156C50.5312 57.8125 50.1562 58.4375 50.1562 58.7656C50.1562 59.0781 50.5156 59.7656 51.25 60.8594C51.8594 61.75 52.3437 62.5625 52.3437 62.6562C52.3437 62.7344 50.8594 66.0312 49.0312 69.9531C44.8906 78.9219 45 78.6875 45.1719 79.2188C45.4531 79.9844 46.4531 80.2344 47 79.6406C47.1719 79.4531 48.9844 75.7031 51 71.3125C54.9375 62.7969 55 62.625 54.4375 61.5156C54.2812 61.2344 53.8437 60.5156 53.4375 59.9219L52.6875 58.8125L53.2344 58.0781C53.5312 57.6719 53.8437 57.3438 53.9375 57.3438C54.3125 57.3438 63.8906 60.8281 64.5156 61.2031C66.0312 62.0781 67.1562 63.7344 67.4844 65.5312C67.5937 66.1094 67.6562 68.9062 67.6562 72.9062V79.3594L68.0625 79.6719C68.8125 80.2656 69.7031 79.9375 69.9375 79.0156C69.9844 78.7969 70 75.5781 69.9687 71.8594C69.8906 64.4062 69.8906 64.3281 68.875 62.5C68.1719 61.25 67.4062 60.375 66.3437 59.6094C65.1875 58.7969 64.6406 58.5625 59.3594 56.7188L55.1875 55.25L55.125 54.2656C55.0312 52.7969 54.5937 52.3438 52.0937 51.1406C50.9844 50.5938 49.7656 50 49.375 49.8125L48.6719 49.4531L48.625 47.9375L48.5781 46.4219L49.7187 45.6562C53.25 43.2656 55.8125 39.5938 56.8594 35.4375L57.2969 33.6719L58.375 33.5781C60.0937 33.4375 61.3437 32.5938 62.0156 31.0938C62.4062 30.25 62.4531 28.5781 62.125 27.7969C61.9531 27.3906 61.9375 27.0781 62.0469 26.4844C62.3437 24.9844 62.4687 22.5156 62.3437 20.8281C61.375 8.07812 50.0312 -1.29688 37.3594 0.171875ZM42.3594 2.51562C51.3125 3.67188 58.25 10.2812 59.7812 19.125C60.0469 20.5938 60.125 24.0625 59.9375 24.9531C59.8281 25.4062 59.7812 25.4375 59.4375 25.3125C59.2187 25.2188 58.5469 25.1094 57.9531 25.0625L56.875 24.9531L55.2656 23.2344C53.5312 21.3594 51.0781 19.1875 49.1094 17.7812C45.6719 15.2969 40.7969 12.875 37.125 11.7969C35.9687 11.4688 35.8594 11.4062 35.9219 11.0625C35.9687 10.875 36 10.3906 36 10.0156C36.0156 9.45312 35.9375 9.28125 35.5937 9.01562C35.1406 8.67188 34.5781 8.73438 34.1562 9.14062C34.0312 9.28125 33.7656 9.89062 33.5781 10.5156C32.25 15.0469 28.9219 20.0938 24.9375 23.6406L23.4687 24.9531L22.2344 25.0469C21.5469 25.0938 20.7969 25.2188 20.5625 25.2969C19.9687 25.5312 19.9219 25.3281 19.9219 22.6562C19.9375 19.0938 20.4844 16.6719 21.9531 13.6562C25.6719 6.01562 34.0469 1.4375 42.3594 2.51562ZM38.0937 14.625C44.0469 16.7812 50.1719 20.875 53.8281 25.1562C55.2031 26.7656 55.8906 27.1875 57.4375 27.3594C58.8594 27.5156 59.5156 27.8594 59.8906 28.625C60.125 29.1094 60.1406 29.3125 60 29.8281C59.7656 30.7344 59.0781 31.25 58.1094 31.25C57.4687 31.25 57.3437 31.2031 57.3437 30.9688C57.3437 30.5469 56.7812 30.1094 56.25 30.1094C55.5312 30.1094 55.1875 30.5312 55.0625 31.5781L54.9687 32.4844L52 32.5312L49.0312 32.5781L48.6562 33.0156C48.2031 33.5469 48.1875 33.8906 48.6094 34.4375C48.8437 34.7344 49.0781 34.8438 49.4687 34.8438H50V36.9219C50 39.2031 49.7969 40.2656 49.0781 41.7969C48.0781 43.9219 46.3437 45.625 44.1406 46.6406C42.6719 47.3281 41.625 47.5469 39.9375 47.5469C35.5625 47.5312 31.75 44.75 30.3906 40.5625C30 39.3594 29.9531 38.9688 29.9375 37.0625L29.9219 34.9219L37.4062 34.875C44.8594 34.8438 44.9062 34.8438 45.2656 34.5C45.4687 34.3125 45.625 33.9844 45.625 33.75C45.625 33.4062 45.5 33.2031 44.9531 32.625C44.9375 32.6094 40.4219 32.5469 34.9219 32.5L24.9219 32.4219L24.8437 31.5625C24.75 30.5469 24.6719 30.3906 24.0937 30.1875C23.5312 29.9844 23.0156 30.2031 22.6875 30.7812C22.4531 31.1875 22.3281 31.25 21.7656 31.25C20.625 31.25 19.7031 30.125 19.9062 29.0156C20.1094 27.9531 21.1719 27.3594 22.9062 27.3438C24.0625 27.3438 24.9844 26.7969 26.8906 25.0156C29.8594 22.2188 32.5781 18.6094 34.1094 15.4219L34.9219 13.7344L35.5156 13.8281C35.8437 13.875 37.0156 14.2344 38.0937 14.625ZM27.5469 37.0625C27.5937 38.2969 27.6875 39.4688 27.7344 39.6875L27.8437 40.0781L27.5156 39.6875C26.7656 38.7812 25.1875 35.1875 25.4219 34.9375C25.4844 34.8906 25.9531 34.8438 26.4844 34.8438H27.4531L27.5469 37.0625ZM54.5312 35.0625C54.5312 35.5625 53.6719 37.6406 53 38.7812C52.6094 39.4531 52.2656 39.9844 52.25 39.9531C52.2344 39.9375 52.2656 39.2188 52.3437 38.3594C52.4219 37.5 52.4844 36.3594 52.5 35.8125V34.8438H53.5156C54.2969 34.8438 54.5312 34.8906 54.5312 35.0625ZM28.1875 44.0156C28.7969 44.6094 29.7344 45.3594 30.2812 45.7031L31.25 46.3281L31.2187 47.9375L31.1719 49.5469L28.6719 50.7188C25.4062 52.25 24.8125 52.8281 24.7812 54.4688V55.2656L23.125 55.8281C22.2187 56.1562 21.4062 56.4062 21.3125 56.4062C21.0625 56.4062 21.3281 54.7188 21.8125 53.125C22.3125 51.5 22.6719 50.7812 24.6719 47.4375C25.5469 45.9844 26.4062 44.3906 26.5781 43.875C26.7656 43.375 26.9531 42.9688 27 42.9688C27.0312 42.9688 27.5781 43.4375 28.1875 44.0156ZM34.7031 48.75C36.3125 49.5 37.9687 49.8594 39.8594 49.875C42.0156 49.8906 44.1719 49.3906 45.5469 48.5625C45.8125 48.4062 46.0625 48.2812 46.1406 48.2812C46.2031 48.2812 46.25 48.7188 46.25 49.25C46.25 50.125 45.9687 50.9688 43.1719 58.3906C41.4687 62.875 40.0469 66.5625 40 66.5625C39.9531 66.5625 38.5 62.75 36.75 58.0781C34.4062 51.8281 33.5781 49.4375 33.5937 48.9375C33.5937 48.5781 33.625 48.2812 33.6562 48.2812C33.6875 48.2812 34.1562 48.4844 34.7031 48.75Z" fill="#E9E9E9"/>
<path d="M30.8594 23.8906C30.0469 24.2344 29.8281 25.2969 30.4531 25.8125C30.75 26.0469 31.0938 26.0938 32.4844 26.0938C34.0313 26.0938 34.1875 26.0625 34.5 25.7344C34.9219 25.2812 34.9375 24.6875 34.5469 24.2031C34.2656 23.8594 34.1094 23.8281 32.7031 23.7969C31.8594 23.7656 31.0313 23.8125 30.8594 23.8906Z" fill="#E9E9E9"/>
<path d="M45.9375 23.8594C45.125 24.1719 44.875 25.1875 45.4688 25.7812C45.75 26.0625 45.9844 26.0938 47.5 26.0938C49.4688 26.0938 49.8438 25.9062 49.8438 24.9531C49.8438 24.0469 49.4375 23.8281 47.6719 23.7969C46.8438 23.7812 46.0625 23.7969 45.9375 23.8594Z" fill="#E9E9E9"/>
<path d="M32.0312 27.7031C31.4531 28 31.2344 28.5469 31.2969 29.5625C31.3594 30.6562 31.6875 31.0938 32.4531 31.0938C33.2969 31.0938 33.5937 30.6562 33.5937 29.3906C33.5937 28.5938 33.5312 28.2344 33.3281 28C32.9531 27.5781 32.5 27.4688 32.0312 27.7031Z" fill="#E9E9E9"/>
<path d="M47.1875 27.6094C46.4219 27.8906 46.0625 29.0469 46.3906 30.1719C46.6719 31.1094 47.6406 31.4219 48.2813 30.7813C48.7188 30.3438 48.7344 28.2969 48.3281 27.9375C47.9844 27.6406 47.5 27.5 47.1875 27.6094Z" fill="#E9E9E9"/>
<path d="M28.1406 67.9063C27.7188 68.4531 27.7188 68.6406 28.2656 69.7813C29.1094 71.5625 29.2344 71.4063 26.8906 71.4063H24.8438V70.5C24.8438 69.75 24.7812 69.5313 24.4844 69.25C24.0469 68.8281 23.4375 68.8125 22.9531 69.2031C22.6719 69.4219 22.5938 69.6875 22.5312 70.4531L22.4688 71.4063H19.7344C17.0625 71.4063 17.0156 71.4063 16.6406 71.7969L16.25 72.1719V75.7031V79.2344L16.6406 79.6094L17.0156 80H23.6406C31.7188 80 31.0938 80.1875 31.0938 77.7813C31.0938 76.9063 31.1406 76.25 31.2031 76.3125C31.2656 76.375 31.625 77.0781 31.9844 77.8594C32.75 79.5313 33.1094 80 33.6406 80C34.2188 80 34.8438 79.4375 34.8438 78.9063C34.8438 78.4375 30.2656 68.3438 29.8125 67.8125C29.4062 67.3438 28.5469 67.3906 28.1406 67.9063ZM28.75 75.7031V77.6563H23.6719H18.5938V75.7031V73.75H23.6719H28.75V75.7031Z" fill="#E9E9E9"/>
</g>
</g>
<defs>
<clipPath id="clip0_418_12366">
<rect width="80" height="80" rx="13.3054" fill="white"/>
</clipPath>
<clipPath id="clip1_418_12366">
<rect width="80" height="80" fill="white"/>
</clipPath>
</defs>
</svg>
