<svg width="69" height="80" viewBox="0 0 69 80" fill="none" xmlns="http://www.w3.org/2000/svg">
<path d="M32.4219 0.0326589C30.0469 0.407659 24.0312 1.75141 23.5469 2.01703C22.1875 2.76703 21.8594 4.28266 22.5938 6.31391L23.0156 7.45453L22.6719 7.68891C19.8438 9.67328 17.9531 12.8139 17.5156 16.267C17.4375 16.9545 17.1406 21.1733 16.8594 25.6264C16.2969 34.5795 16.2969 34.7045 17.1875 36.6108C18 38.392 19.8281 39.9233 21.7812 40.4858C22.2344 40.6264 23.2656 40.7827 24.0781 40.8452L25.5469 40.9545L25.5938 43.142C25.625 44.8452 25.5781 45.4702 25.3906 45.9858C25.0469 46.892 24.9062 46.9702 23.9844 46.7827C23.2344 46.642 22.9062 46.7202 15.1562 49.0795C10.7344 50.4077 6.79688 51.6577 6.40625 51.8452C5.45312 52.3139 4.42188 53.3764 3.95312 54.4233C3.67188 55.0327 3.34375 56.4545 2.875 59.2045C2.5 61.3608 2.1875 63.3608 2.1875 63.642C2.1875 65.0327 4.14062 65.1889 4.45312 63.8139C4.48438 63.6108 4.8125 61.767 5.15625 59.7202C5.5 57.6733 5.90625 55.7514 6.03125 55.4702C6.39062 54.7202 7.34375 53.9233 8.21875 53.6264C8.64062 53.5014 12.25 52.392 16.25 51.1889C23.0156 49.1577 23.5312 49.017 23.7188 49.2827C23.8281 49.4233 25.5469 52.767 27.5156 56.7045C29.5 60.642 31.3281 64.0952 31.5781 64.3764C32.25 65.142 33.4531 65.6264 34.4688 65.517C35.4531 65.4233 36.3906 64.9545 36.9219 64.3139C37.1562 64.0483 38.9531 60.6264 40.9219 56.6889C42.9062 52.767 44.6094 49.4233 44.7188 49.2827C44.9062 49.017 45.4219 49.1577 52.1875 51.1889C56.1875 52.392 59.7969 53.5014 60.2188 53.6264C61.0938 53.9233 62.0469 54.7202 62.4062 55.4702C62.6406 55.9702 66.0938 75.6889 66.0938 76.5483C66.0938 76.7827 65.9531 77.1108 65.7812 77.2827C65.4844 77.5795 65.2656 77.5952 61.6562 77.5952H57.8438L57.75 77.1733C57.7031 76.9233 57.2656 74.4233 56.7969 71.6108C56.3125 68.7983 55.8594 66.3295 55.7812 66.1264C55.5938 65.6264 54.875 65.3452 54.3281 65.5483C53.4688 65.8764 53.4844 66.0327 54.4375 71.767C54.9375 74.6733 55.375 77.1733 55.4062 77.3139C55.4844 77.5795 54.4062 77.5952 34.2188 77.5952C14.0312 77.5952 12.9531 77.5795 13.0312 77.3139C13.0625 77.1733 13.5 74.6733 14 71.767C14.9531 66.0327 14.9688 65.8764 14.1094 65.5483C13.5625 65.3452 12.8438 65.6264 12.6562 66.1264C12.5781 66.3295 12.125 68.7983 11.6406 71.6108C11.1719 74.4233 10.7344 76.9233 10.6875 77.1577L10.5938 77.5952H6.78125C3.17188 77.5952 2.95312 77.5795 2.65625 77.2827C2.23438 76.8608 2.25 76.6264 2.89062 72.9545C3.1875 71.2202 3.4375 69.5483 3.4375 69.2358C3.4375 67.8295 1.64062 67.5952 1.25 68.9702C0.984375 69.9389 0 75.9077 0 76.5952C0 77.892 0.734375 79.0014 1.9375 79.5639L2.73438 79.9389H65.7031L66.5 79.5639C67.7031 79.0014 68.4375 77.892 68.4375 76.6108C68.4375 75.767 65.0625 56.0014 64.75 55.0795C64.2656 53.5795 63.1094 52.2983 61.7188 51.7045C61.4375 51.5795 57.5938 50.3764 53.2031 49.0483C45.5312 46.7202 45.2031 46.642 44.4531 46.7827C43.5312 46.9702 43.3906 46.892 43.0469 45.9858C42.8594 45.4702 42.8125 44.8452 42.8438 43.142L42.8906 40.9545L44.3594 40.8452C45.1719 40.7827 46.2188 40.6108 46.7031 40.4702C48.625 39.9233 50.4375 38.3764 51.25 36.6108C52.1406 34.7045 52.1406 34.5639 51.5781 25.8608C51.1094 18.392 51.0625 17.9702 50.75 17.642C50.2656 17.1264 49.5 17.1577 49.0625 17.7045C48.7031 18.1577 48.7031 18.4545 49 21.767L49.0938 22.7514H48.5312C48.2344 22.7514 47.9219 22.6577 47.8594 22.5483C47.5625 22.0327 46.875 21.8139 44.8438 21.5795C40.2188 21.0327 36.7188 20.0795 33.8281 18.6108C31.875 17.6264 30.875 16.9077 29.1094 15.2202C27.875 14.0327 27.8125 14.0014 27.0625 14.0014C25.3594 14.0014 22.7812 15.7983 21.4062 17.9233C20.8125 18.8452 20.1562 20.6577 20.1562 21.392C20.1562 22.2358 19.9688 22.7514 19.6562 22.7514C19.375 22.7514 19.3594 22.6733 19.4375 21.6889C19.5 21.1108 19.6094 19.6264 19.6875 18.3764C19.7656 17.1264 19.9531 15.6889 20.0781 15.1889C20.4844 13.6577 21.3594 12.1577 22.625 10.8764C23.6875 9.79828 23.7969 9.73578 23.9531 10.0014C24.5625 10.9858 25.1719 11.6108 25.9219 12.0014L26.75 12.4389H42L42.8281 12.0014C43.5781 11.6108 44.5156 10.6577 44.7344 10.0639C44.8438 9.73578 46.6094 11.5639 47.2812 12.7045C48.1406 14.1733 48.7656 14.5014 49.5469 13.8608C50.4375 13.142 49.5625 11.3295 47.2031 9.00141L45.6875 7.51703L46.1094 6.42328C46.9062 4.39203 46.5781 2.78266 45.2031 2.01703C44.8438 1.81391 43.1094 1.37641 40.625 0.876409C37.375 0.204534 36.2969 0.0482839 34.7656 0.0170339C33.7344 -0.0142161 32.6875 0.0014089 32.4219 0.0326589ZM40.0781 3.14203C42.1406 3.54828 43.9219 3.97016 44.0312 4.06391C44.3438 4.29828 44.2031 4.87641 43.2656 7.26703C42.7812 8.53266 42.2969 9.51703 42.0625 9.73578L41.6719 10.0952H27L26.6094 9.65766C26.3906 9.42328 25.8594 8.31391 25.4375 7.20453C24.375 4.42328 24.3594 4.37641 24.6406 4.12641C24.7812 4.01703 26.6875 3.54828 28.8906 3.11078C34.0156 2.04828 34.6562 2.06391 40.0781 3.14203ZM28.0938 17.4545C30.6406 19.8139 33.6406 21.4545 37.2969 22.4858C39.1562 23.017 42.375 23.642 44.4062 23.8608C45.8438 24.017 46.0938 24.0795 46.1875 24.3452C46.3125 24.7358 47.1562 25.0952 47.9688 25.0952C49.0625 25.0952 49.2188 25.4077 49.2188 27.517C49.2188 29.5795 49.0469 29.9389 48.0625 29.9389C47.1562 29.9389 46.5469 30.1264 46.3281 30.4702C46.2031 30.642 46.0312 31.267 45.9375 31.8608C45.5 34.6577 43.7344 37.2983 40.625 39.8139C38.4062 41.6108 36.6562 42.2827 34.2188 42.2827C31.7812 42.2827 30.0312 41.6108 27.8125 39.8139C24.7031 37.2983 22.9375 34.6577 22.5 31.8608C22.4062 31.267 22.2344 30.642 22.1094 30.4702C21.8906 30.1264 21.2812 29.9389 20.375 29.9389C19.3906 29.9389 19.2188 29.5639 19.2188 27.5483C19.2188 25.3452 19.2812 25.2514 20.7188 25.0795C22.0625 24.9077 22.3438 24.642 22.3438 23.4702C22.3594 21.1108 23.0312 19.2827 24.3438 17.9858C25.0781 17.267 26.4531 16.3452 26.7656 16.3452C26.8438 16.3452 27.4375 16.8452 28.0938 17.4545ZM19.7188 32.2358C20.0781 32.2983 20.1562 32.4233 20.3125 33.1264C20.5625 34.1577 21.6719 36.517 22.4062 37.517C22.7188 37.9545 22.8906 38.3295 22.7969 38.3608C22.7031 38.392 22.1562 38.1733 21.5938 37.892C19.7344 36.9233 18.75 35.2514 18.75 33.0483C18.75 32.0483 18.7812 31.9545 19.0312 32.0483C19.1719 32.1108 19.4844 32.2045 19.7188 32.2358ZM49.6875 33.0639C49.6875 35.2514 48.7031 36.9233 46.8438 37.892C46.2812 38.1733 45.7344 38.392 45.6406 38.3608C45.5469 38.3295 45.7188 37.9545 46.0312 37.517C46.7656 36.5014 47.875 34.1577 48.125 33.0952C48.2812 32.4233 48.375 32.2827 48.6406 32.2827C48.8281 32.2827 49.0938 32.2045 49.2188 32.1264C49.6406 31.8608 49.6875 31.9545 49.6875 33.0639ZM31.75 44.3764C34.2656 44.892 36.9062 44.5952 39.1875 43.5327L40.4688 42.9233V44.3139C40.4688 45.9545 40.8125 47.0483 41.6719 48.1733L42.2188 48.892L41.8125 49.7358L41.4062 50.5639H27.0312L26.625 49.7358L26.2188 48.892L26.7656 48.1733C27.625 47.0483 27.9688 45.9545 27.9688 44.3139V42.9233L29.2656 43.5327C29.9688 43.8608 31.0938 44.2358 31.75 44.3764ZM40.1562 53.017C40.1406 53.0952 39 55.3608 37.6094 58.0639C34.875 63.3764 34.7969 63.4858 33.7969 63.1264C33.4219 63.0014 32.9844 62.2514 30.8281 58.0639C29.4375 55.3608 28.2969 53.0952 28.2812 53.017C28.2812 52.9545 30.9531 52.9077 34.2188 52.9077C37.4844 52.9077 40.1562 52.9545 40.1562 53.017Z" fill="#FBFBFB"/>
<path d="M33.5312 3.23578C33.2031 3.50141 33.125 3.68891 33.125 4.25141V4.93891H32.5156C31.8594 4.93891 31.1875 5.36078 31.0625 5.84516C31.0156 6.01703 31.0625 6.36078 31.1875 6.62641C31.3906 7.11078 31.625 7.23578 32.5781 7.31391C33.0156 7.36078 33.0469 7.40766 33.1406 8.12641C33.2344 8.97016 33.5469 9.31391 34.2188 9.31391C34.8906 9.31391 35.2031 8.97016 35.2969 8.12641C35.3906 7.40766 35.4219 7.36078 35.8594 7.31391C36.8125 7.23578 37.0469 7.11078 37.25 6.62641C37.375 6.36078 37.4219 6.01703 37.375 5.84516C37.25 5.36078 36.5781 4.93891 35.9219 4.93891H35.3125V4.25141C35.3125 3.68891 35.2344 3.50141 34.9062 3.23578C34.6719 3.04828 34.375 2.90766 34.2188 2.90766C34.0625 2.90766 33.7656 3.04828 33.5312 3.23578Z" fill="#FBFBFB"/>
</svg>
