<svg width="18" height="12" viewBox="0 0 18 12" fill="none" xmlns="http://www.w3.org/2000/svg">
<path fill-rule="evenodd" clip-rule="evenodd" d="M1.96027 1.76318L9.15427 9.98468L16.3483 1.76318H1.96027ZM0.830771 2.75168L8.02477 10.9717C8.16556 11.1328 8.33919 11.2619 8.53401 11.3504C8.72882 11.4389 8.94031 11.4847 9.15427 11.4847C9.36823 11.4847 9.57972 11.4389 9.77453 11.3504C9.96935 11.2619 10.143 11.1328 10.2838 10.9717L17.4778 2.75168C18.3268 1.78118 17.6368 0.263184 16.3483 0.263184H1.96027C1.6719 0.262937 1.38958 0.345815 1.1471 0.501895C0.904628 0.657975 0.712281 0.880639 0.593097 1.14322C0.473914 1.40581 0.432945 1.69718 0.475098 1.98245C0.51725 2.26772 0.640737 2.53479 0.830771 2.75168Z" fill="#E9E9E9"/>
</svg>
