<svg width="18" height="12" viewBox="0 0 18 12" fill="none" xmlns="http://www.w3.org/2000/svg">
<path fill-rule="evenodd" clip-rule="evenodd" d="M1.80597 10.5L8.99997 2.2785L16.194 10.5H1.80597ZM0.676474 9.5115L7.87047 1.2915C8.01127 1.13039 8.1849 1.00126 8.37971 0.912781C8.57452 0.824306 8.78601 0.77853 8.99997 0.77853C9.21394 0.77853 9.42542 0.824306 9.62024 0.912781C9.81505 1.00126 9.98868 1.13039 10.1295 1.2915L17.3235 9.5115C18.1725 10.482 17.4825 12 16.194 12H1.80597C1.51761 12.0002 1.23528 11.9174 0.992806 11.7613C0.750331 11.6052 0.557984 11.3825 0.438801 11.12C0.319617 10.8574 0.278648 10.566 0.320801 10.2807C0.362954 9.99546 0.486441 9.72839 0.676474 9.5115Z" fill="#8E8E8E"/>
</svg>
