<svg width="50" height="51" viewBox="0 0 50 51" fill="none" xmlns="http://www.w3.org/2000/svg">
<path fill-rule="evenodd" clip-rule="evenodd" d="M33.2391 6.81767C29.2205 5.04175 24.7307 4.6018 20.4394 5.56342C16.1481 6.52504 12.2851 8.83671 9.42666 12.1537C6.56822 15.4706 4.86743 19.6152 4.57796 23.9691C4.28849 28.3231 5.42584 32.6532 7.82039 36.3137C10.2149 39.9742 13.7384 42.769 17.8652 44.2811C21.9921 45.7933 26.5012 45.9419 30.7202 44.7047C34.9391 43.4675 38.6418 40.9109 41.276 37.416C43.9102 33.9212 45.3348 29.6755 45.3374 25.3121V23.2449C45.3374 22.0032 46.3523 20.9966 47.6042 20.9966C48.8562 20.9966 49.8711 22.0032 49.8711 23.2449V25.3134C49.868 30.6464 48.1268 35.8369 44.9072 40.1084C41.6877 44.3798 37.1621 47.5046 32.0057 49.0167C26.8492 50.5288 21.338 50.3473 16.2941 48.4991C11.2501 46.6509 6.94369 43.2351 4.01702 38.7611C1.09035 34.2872 -0.299747 28.9948 0.0540522 23.6733C0.407852 18.3517 2.48659 13.2862 5.98024 9.23215C9.47389 5.17809 14.1953 2.35271 19.4402 1.1774C24.6852 0.00208622 30.1727 0.539809 35.0843 2.71037C36.2279 3.21574 36.7419 4.54487 36.2323 5.67907C35.7228 6.81327 34.3827 7.32304 33.2391 6.81767Z" fill="#E9E9E9"/>
<path fill-rule="evenodd" clip-rule="evenodd" d="M49.1994 5.72455C50.0938 6.60139 50.0945 8.02374 49.201 8.90146L26.3094 31.3881C25.8801 31.8097 25.2978 32.0467 24.6904 32.0468C24.0831 32.047 23.5006 31.8103 23.0712 31.3889L16.2037 24.6496C15.3097 23.7723 15.3097 22.35 16.2037 21.4727C17.0977 20.5954 18.5471 20.5954 19.4411 21.4727L24.6891 26.6227L45.962 5.72614C46.8555 4.84842 48.305 4.84771 49.1994 5.72455Z" fill="#E9E9E9"/>
</svg>
