<svg width="80" height="80" viewBox="0 0 80 80" fill="none" xmlns="http://www.w3.org/2000/svg">
<g clip-path="url(#clip0_418_12377)">
<path d="M25.2344 0.296883C24.0625 0.828133 23.5938 1.73438 23.5938 3.43751V4.53126H21.2969C18.5938 4.53126 17.9375 4.73438 17.1406 5.89063L16.6562 6.56251H10.75C4.28125 6.56251 4.3125 6.56251 3.125 7.50001C2.78125 7.78126 2.32812 8.35938 2.07812 8.87501L1.64062 9.76563V43.2031V76.6406L1.96875 77.3438C2.4375 78.3594 3.04688 79.0156 3.96875 79.5L4.76562 79.9219H29.375C56.875 79.9219 54.5 80.0156 56.4844 78.8281L57.375 78.2813L58.2656 78.8281C59.4688 79.5781 60.3438 79.8594 61.7188 79.9531C65.4688 80.2188 69.5938 77.5313 72.7812 72.7656C74.1406 70.7188 74.3125 70.2969 74.0625 69.7031C73.8281 69.1094 73.0938 68.8281 72.5781 69.1094C72.375 69.2031 71.8125 69.9219 71.3281 70.7031C69.0781 74.2813 66.5312 76.5625 63.8438 77.375C61.9688 77.9375 60.1562 77.5156 58.5469 76.125C57.5625 75.2656 57.0938 75.2656 56.2031 76.0781C55.8281 76.4219 55.1562 76.8906 54.6875 77.1406C53.9375 77.5156 53.6562 77.5781 52.5 77.5781C51.5 77.5625 50.9531 77.4688 50.2812 77.2031C45.7969 75.4375 41.6406 69.3906 39.7812 61.9375C39.0156 58.9063 38.8438 57.5625 38.8438 54.6094C38.8281 51.8438 38.8438 51.7656 39.3125 50.4531C40.7812 46.3438 44.2969 43.5938 49.9375 42.1719C51.7812 41.7188 54.9219 41.2813 55.3281 41.4375C55.5938 41.5469 56.0469 43.3125 56.1875 44.875C56.2812 45.7656 56.25 45.9375 56.0469 45.9375C55.5312 45.9375 53.7812 45.2969 53.0781 44.8438C52.6719 44.5938 52.125 44.375 51.875 44.375C51.2344 44.375 50.7812 44.875 50.7812 45.5313C50.7812 46.2031 51.2812 46.625 52.9844 47.4063C54.5938 48.1406 55.6094 48.3438 57.4219 48.3438C59.1719 48.3281 60.5 48.0313 61.9844 47.3281C63.7344 46.5 64.25 45.7813 63.7656 44.8594C63.625 44.625 63.7344 44.5313 64.5 44.2188C64.9844 44.0156 65.7656 43.625 66.2188 43.3281L67.0469 42.8125L68.1406 43.2656C70.0625 44.0781 71.4219 44.9844 72.8125 46.3906C74.3438 47.9375 75.1094 49.2969 75.625 51.3281C76.375 54.2813 75.7969 59.7031 74.2031 64.4844C73.7656 65.8281 73.75 65.9531 73.9688 66.375C74.3438 67.1094 75 67.2344 75.6562 66.7188C76.5469 66.0313 78 60.0781 78.2656 56.0313C78.5781 51.1875 77.5 47.875 74.6562 44.9063C73.3125 43.5 72 42.5625 70.0312 41.5781C69.3125 41.2188 68.75 40.875 68.7812 40.8125C68.8125 40.75 69.0625 40.2344 69.3281 39.6719C70.0625 38.1719 70.4688 36.3438 70.5781 33.9844C70.6875 31.6875 70.5 31.0313 69.75 30.8438C69.0469 30.6563 64.9688 30.8906 63.9062 31.1719C62.3594 31.5781 60.4531 32.5469 59.4844 33.4375L58.6094 34.2344L58.5625 30.0156C58.5156 25.9063 58.5 25.7813 58.1719 25.4531C57.75 25.0313 57 25 56.5625 25.3906C56.2656 25.6563 56.25 25.8906 56.2188 31.5469L56.1719 37.4219L55.625 36.6406C55.3281 36.2031 54.6094 35.3906 54.0312 34.8125L52.9688 33.7656V23.3906C52.9688 13.125 52.9688 13 52.6406 12.5938L52.3281 12.1875H47.9531H43.5938V10.5469V8.90626H49.2812H54.9688L55.4531 9.31251C55.7188 9.53126 56 9.96876 56.0938 10.2813C56.1875 10.625 56.25 13.125 56.25 16.4375C56.25 21.8281 56.2656 22.0469 56.5625 22.3438C56.9844 22.7656 57.8281 22.75 58.2188 22.3281C58.5 22.0156 58.5156 21.6719 58.5156 15.875V9.76563L58.0781 8.87501C57.8281 8.35938 57.375 7.78126 57.0312 7.50001C55.8438 6.56251 55.875 6.56251 49.4062 6.56251H43.5L43.0156 5.89063C42.2188 4.73438 41.5625 4.53126 38.8594 4.53126H36.5625V3.39063C36.5625 2.20313 36.2344 1.25001 35.6875 0.750008C34.9062 0.0625076 34.4375 7.62939e-06 30.0469 7.62939e-06C26.3125 7.62939e-06 25.7969 0.0312576 25.2344 0.296883ZM34.125 2.59376C34.1719 2.73438 34.2188 3.57813 34.2188 4.46876C34.2188 6.00001 34.25 6.14063 34.6094 6.48438C34.9844 6.87501 35.0156 6.87501 37.875 6.87501C40.2812 6.87501 40.7969 6.92188 41 7.12501C41.2188 7.32813 41.25 7.85938 41.25 10.4688C41.25 13.5 41.2344 13.5781 40.9062 13.8125C40.5938 14.0313 39.3125 14.0625 30.0781 14.0625C20.8438 14.0625 19.5625 14.0313 19.25 13.8125C18.9219 13.5781 18.9062 13.5 18.9062 10.4688C18.9062 7.85938 18.9375 7.32813 19.1562 7.12501C19.3594 6.92188 19.875 6.87501 22.2812 6.87501C25.1406 6.87501 25.1719 6.87501 25.5469 6.48438C25.9062 6.14063 25.9375 6.00001 25.9375 4.46876C25.9375 3.57813 25.9844 2.73438 26.0312 2.59376C26.1094 2.37501 26.625 2.34376 30.0781 2.34376C33.5312 2.34376 34.0469 2.37501 34.125 2.59376ZM16.5625 10.5469V12.1875H12.2031H7.82812L7.51562 12.5938C7.1875 13.0156 7.1875 13.0781 7.1875 28.0781V43.1406L7.57812 43.5156C8.0625 44.0156 8.65625 44.0156 9.14062 43.5156L9.53125 43.1406V28.8281V14.5313H13.1406H16.75L17.375 15.2344C18.4375 16.4375 18.1094 16.4063 30.0781 16.4063C42.0469 16.4063 41.7188 16.4375 42.7812 15.2344L43.4062 14.5313H47.0156H50.625V23.3594V32.1875H50.2344C50.0156 32.1875 49.6562 32.3594 49.4531 32.5781C48.7812 33.2344 48.9844 33.9688 50.0156 34.6094L50.6406 35.0156L50.5938 37.2969L50.5469 39.5781L49.2188 39.9375C45.1719 41.0156 42.2188 42.6094 40.0469 44.9063C39.4531 45.5156 38.7656 46.3438 38.5156 46.75L38.0469 47.5H31.9375C25.9844 47.5 25.8125 47.5156 25.4062 47.8281C24.8906 48.2344 24.8438 49.0625 25.3125 49.5313C25.6094 49.8281 25.8281 49.8438 31.25 49.8438C37.5312 49.8438 37.0312 49.7344 36.7031 51.0313L36.5312 51.7188H31.1719C26 51.7188 25.8125 51.7344 25.4062 52.0469C24.9375 52.4063 24.8594 53.1719 25.2188 53.6875C25.4375 53.9688 25.7344 53.9844 30.8906 54.0625L36.3281 54.1406L36.3594 55C36.4219 56.1094 36.7031 58.9063 36.8125 59.25C36.8906 59.5156 36.5469 59.5313 31.2656 59.5313C25.8281 59.5313 25.6094 59.5469 25.3125 59.8438C24.8438 60.3125 24.8906 61.1406 25.4062 61.5469C25.8125 61.8594 26 61.875 31.5625 61.875H37.3125L37.4844 62.5625C37.5781 62.9375 37.6875 63.3594 37.75 63.5C37.8438 63.7344 37.3125 63.75 31.7344 63.75C25.8281 63.75 25.6094 63.7656 25.3125 64.0625C24.8438 64.5313 24.8906 65.3594 25.4062 65.7656C25.8125 66.0781 25.9844 66.0938 32.1875 66.0938H38.5625L38.9844 67.1406C39.2188 67.7344 39.8438 69.0625 40.3906 70.125L41.375 72.0313H25.4531H9.53125V59.5313V47.0156L9.14062 46.6406C8.65625 46.1406 8.0625 46.1406 7.57812 46.6406L7.1875 47.0156V60.2813C7.1875 73.125 7.20312 73.5781 7.48438 73.9219L7.78125 74.2969L25.375 74.3438L42.9531 74.375L44.5938 76.0156L46.2344 77.6563H25.9219C3.82812 77.6563 4.90625 77.7031 4.29688 76.7813C3.98438 76.3281 3.98438 75.7813 3.9375 43.8281C3.90625 25.9531 3.9375 11.0156 3.98438 10.6406C4.0625 10.1406 4.23438 9.79688 4.60938 9.42188L5.125 8.90626H10.8438H16.5625V10.5469ZM68.2344 34.4219C67.7969 39.9375 65.3125 42.3906 59.6562 42.8906L58.4375 43V42.0156C58.4375 39.75 59.3281 37.0156 60.4844 35.7031C61.8594 34.1406 64.3438 33.1719 67.0938 33.1406L68.3281 33.125L68.2344 34.4219ZM53.8281 38.1719C54.375 38.9844 54.375 38.9844 54.0312 39.0938C53.0469 39.375 52.9688 39.2969 52.9688 38.1875C52.9688 37.0156 53.0469 37.0156 53.8281 38.1719ZM60.9375 45.2344C60.9375 45.2969 58.9688 45.9375 58.7344 45.9375C58.6562 45.9375 58.5938 45.7969 58.5938 45.6406C58.5938 45.3906 58.7188 45.3125 59.3438 45.2656C60.7188 45.1563 60.9375 45.1563 60.9375 45.2344Z" fill="#E9E9E9"/>
<path d="M18.2344 25.1562L15.9219 27.5156L15.1875 26.9062C14.7813 26.5625 14.2813 26.0937 14.0782 25.875C13.5782 25.3437 12.8438 25.3281 12.375 25.8281C11.7344 26.5156 11.8907 26.9375 13.4532 28.5312C15.0313 30.125 15.7032 30.5625 16.2813 30.3281C16.6094 30.1875 17.9844 28.8281 20.9844 25.6875C22.3282 24.2656 22.4844 23.7812 21.8282 23.1562C21.0625 22.4375 20.75 22.6094 18.2344 25.1562Z" fill="#E9E9E9"/>
<path d="M25.4219 23.9219C24.8907 24.3281 24.8438 25.1562 25.3125 25.625C25.625 25.9375 25.8282 25.9375 36 25.9375H46.3907L46.7032 25.5312C47.1094 25.0156 47.125 24.5156 46.7344 24.0469L46.4375 23.6719L36.125 23.625C25.8907 23.5938 25.8282 23.5938 25.4219 23.9219Z" fill="#E9E9E9"/>
<path d="M25.4062 28.1406C24.8906 28.5469 24.8437 29.375 25.3125 29.8438C25.6094 30.1406 25.8281 30.1562 31.625 30.1562C37.2187 30.1562 37.6406 30.1406 37.9844 29.875C38.5 29.4531 38.4531 28.6562 37.9062 28.1719L37.4844 27.8125H31.6562C25.9844 27.8125 25.8125 27.8281 25.4062 28.1406Z" fill="#E9E9E9"/>
<path d="M20.6875 34.8438C20.5 34.9219 19.3438 36 18.1094 37.2656L15.875 39.5469L14.9375 38.6094C14.4062 38.1094 13.8281 37.6094 13.6406 37.5156C12.9062 37.1406 12.0312 37.7344 12.0312 38.5938C12.0312 38.9062 12.4375 39.4062 13.7344 40.6719C15.1094 42.0312 15.5 42.3438 15.875 42.3438C16.4375 42.3281 16.2812 42.4844 19.5 39.2031C21.7969 36.8594 22.1875 36.3906 22.1875 35.9844C22.1875 35.1406 21.4062 34.5469 20.6875 34.8438Z" fill="#E9E9E9"/>
<path d="M25.3125 35.9375C24.8438 36.4062 24.8907 37.2344 25.4219 37.6406C25.8282 37.9687 25.8907 37.9687 36.125 37.9375L46.4375 37.8906L46.7344 37.5156C47.125 37.0469 47.1094 36.5469 46.7032 36.0312L46.3907 35.625H36C25.8282 35.625 25.625 35.625 25.3125 35.9375Z" fill="#E9E9E9"/>
<path d="M25.3125 40.1562C24.8437 40.625 24.8906 41.4531 25.4062 41.8594C25.8125 42.1719 25.9844 42.1875 31.6562 42.1875H37.4844L37.9062 41.8281C38.4531 41.3438 38.5 40.5469 37.9844 40.125C37.6406 39.8594 37.2187 39.8438 31.625 39.8438C25.8281 39.8438 25.6094 39.8594 25.3125 40.1562Z" fill="#E9E9E9"/>
<path d="M18.25 49.0625C15.6407 51.7344 15.9219 51.6563 14.5313 50.25C13.5625 49.25 12.9688 49.1094 12.375 49.7344C11.7188 50.4219 11.8907 50.8438 13.4844 52.4531C15.0469 54.0625 15.6094 54.4531 16.1407 54.2813C16.5625 54.1719 17.8282 52.9375 20.3282 50.2813C22.3907 48.0781 22.5782 47.6719 21.7813 47.0469C20.9532 46.3906 20.7344 46.5156 18.25 49.0625Z" fill="#E9E9E9"/>
<path d="M20.7812 58.7031C20.6562 58.75 19.4844 59.8281 18.2031 61.1094L15.8594 63.4375L15 62.5625C13.9687 61.5312 13.4219 61.2031 12.8906 61.3438C12.1562 61.5312 11.7812 62.5625 12.2344 63.125C12.3437 63.25 13.0937 64.0156 13.9375 64.7969C15.1719 65.9844 15.5312 66.25 15.9219 66.25C16.3281 66.25 16.7812 65.875 19.1719 63.4375C20.7031 61.875 22.0156 60.4375 22.0937 60.2344C22.3125 59.6719 22.0469 59.0469 21.4844 58.8281C21.2344 58.7188 20.9062 58.6719 20.7812 58.7031Z" fill="#E9E9E9"/>
</g>
<defs>
<clipPath id="clip0_418_12377">
<rect width="80" height="80" rx="13.3054" fill="white"/>
</clipPath>
</defs>
</svg>
