<svg width="80" height="80" viewBox="0 0 80 80" fill="none" xmlns="http://www.w3.org/2000/svg">
<g clip-path="url(#clip0_418_12399)">
<path d="M7.28125 2.67188C6.3125 2.90625 4.89062 3.73438 4.20312 4.48438C3.85938 4.85938 3.34375 5.64062 3.07812 6.21875L2.57812 7.26562V40.0156V72.75L3.15625 73.9375C3.85938 75.3594 4.76562 76.2344 6.21875 76.9219L7.26562 77.4219L19.8906 77.4688L32.5 77.5156V76.25V75H28.75H25V74.375V73.75H23.75H22.5V74.375V75H15.375C10.2344 75 8.0625 74.9531 7.59375 74.8125C6.73438 74.5625 5.4375 73.2656 5.1875 72.4062C5.04688 71.9375 5 69.9062 5 65.25V58.75H6.25H7.5V57.5V56.25H6.25H5V48.75V41.25H6.25H7.5V40V38.75H6.25H5V31.25V23.75H6.25H7.5V22.5V21.25H6.25H5V14.75C5 10.0938 5.04688 8.0625 5.1875 7.59375C5.4375 6.73438 6.73438 5.4375 7.59375 5.1875C8.0625 5.04688 10.2344 5 15.375 5H22.5V5.625V6.25H23.75H25V5.625V5H32.125C37.2656 5 39.4375 5.04688 39.9062 5.1875C40.7656 5.4375 42.0625 6.73438 42.3125 7.59375C42.4531 8.0625 42.5 10.0938 42.5 14.75V21.25H41.25H40V22.5V23.75H41.25H42.5V31.25V38.75H41.25H40V40V41.25H41.25H42.5V48.75V56.25H41.25H40V57.5V58.75H42.1094C44.1562 58.75 44.25 58.7344 44.625 58.3594L45 57.9844L44.9688 32.6094L44.9219 7.25L44.3438 6.0625C43.6406 4.64062 42.7344 3.76562 41.2812 3.07812L40.2344 2.57812L24.0625 2.54688C14.625 2.53125 7.64062 2.59375 7.28125 2.67188Z" fill="#E9E9E9"/>
<path d="M12.2812 7.65625C11.2969 7.90625 9.89062 8.75 9.20312 9.48438C8.85938 9.85938 8.34375 10.6406 8.07812 11.2188C7.625 12.1719 7.57812 12.4062 7.57812 13.7656C7.57812 15.1719 7.60938 15.3125 8.15625 16.4375C8.85938 17.8594 9.76562 18.7344 11.2188 19.4219C12.1719 19.875 12.4062 19.9219 13.75 19.9219C15.0938 19.9219 15.3281 19.875 16.2812 19.4219C17.7344 18.7344 18.6406 17.8594 19.3438 16.4375C19.8906 15.3125 19.9219 15.1719 19.9219 13.75C19.9219 12.3281 19.8906 12.1875 19.3438 11.0625C18.2812 8.9375 16.4062 7.67188 14.0938 7.5625C13.4375 7.53125 12.625 7.57812 12.2812 7.65625ZM14.9062 10.1875C16.25 10.5938 17.5 12.3125 17.5 13.75C17.5 15.6875 15.6875 17.5 13.75 17.5C12.7656 17.5 11.9688 17.1406 11.1719 16.3281C9.57812 14.75 9.57812 12.75 11.1719 11.1719C12.2656 10.0625 13.4375 9.76562 14.9062 10.1875Z" fill="#E9E9E9"/>
<path d="M12.7344 11.4687C12.1563 11.7187 11.6406 12.2812 11.4219 12.8594C11.0938 13.7031 11.1406 13.75 12.5 13.75H13.75V12.5C13.75 11.1094 13.6875 11.0469 12.7344 11.4687Z" fill="#E9E9E9"/>
<path d="M32.2812 7.65625C31.2969 7.90625 29.8906 8.75 29.2031 9.48438C28.8594 9.85938 28.3438 10.6406 28.0781 11.2188C27.625 12.1719 27.5781 12.4062 27.5781 13.7656C27.5781 15.1719 27.6094 15.3125 28.1562 16.4375C28.8594 17.8594 29.7656 18.7344 31.2188 19.4219C32.1719 19.875 32.4062 19.9219 33.75 19.9219C35.0938 19.9219 35.3281 19.875 36.2812 19.4219C37.7344 18.7344 38.6406 17.8594 39.3438 16.4375C39.8906 15.3125 39.9219 15.1719 39.9219 13.75C39.9219 12.3281 39.8906 12.1875 39.3438 11.0625C38.2812 8.9375 36.4062 7.67188 34.0938 7.5625C33.4375 7.53125 32.625 7.57812 32.2812 7.65625ZM34.9062 10.1875C35.7656 10.4375 37.0625 11.7344 37.3125 12.5938C37.75 14.0625 37.4375 15.2344 36.3281 16.3281C35.5312 17.1406 34.7344 17.5 33.75 17.5C31.8125 17.5 30 15.6875 30 13.75C30 12.7656 30.3594 11.9688 31.1719 11.1719C32.2656 10.0625 33.4375 9.76562 34.9062 10.1875Z" fill="#E9E9E9"/>
<path d="M32.7344 11.4687C32.1563 11.7187 31.6406 12.2812 31.4219 12.8594C31.0938 13.7031 31.1406 13.75 32.5 13.75H33.75V12.5C33.75 11.1094 33.6875 11.0469 32.7344 11.4687Z" fill="#E9E9E9"/>
<path d="M22.5 10V11.25H23.75H25V10V8.75H23.75H22.5V10Z" fill="#E9E9E9"/>
<path d="M22.5 15V16.25H23.75H25V15V13.75H23.75H22.5V15Z" fill="#E9E9E9"/>
<path d="M47.8906 17.8906L47.5 18.2656V24.7656V31.25H48.125H48.75V31.875V32.5H50.625H52.5V31.25V30H51.25H50V28.75V27.5H59.375H68.75V28.75V30H65H61.25V31.2344V32.4844L66.2969 32.5312L71.3281 32.5781L72.3125 33.1094C72.8594 33.4062 73.4688 33.8594 73.6875 34.1094C74.2812 34.8125 74.7969 35.9375 74.9219 36.7656L75.0312 37.5H61.2656H47.5V38.75V40H61.25H75V55V70H68.75H62.5V71.25V72.5H68.75H75V73.3594C75 74.0781 74.9375 74.2969 74.6094 74.6094L74.2344 75H67.7344H61.25V76.25V77.5H67.7812C75.3281 77.5 75.3281 77.5 76.4531 76.25C76.8281 75.8438 77.2188 75.2188 77.3125 74.875C77.4531 74.4219 77.5 69.5312 77.5 55.4375C77.5 34.9688 77.5312 35.8281 76.625 34.0312C75.7656 32.3281 73.5 30.5469 71.7812 30.2188L71.25 30.125V24.1875V18.2656L70.8594 17.8906L70.4844 17.5H59.375H48.2656L47.8906 17.8906ZM68.75 22.5V25H59.375H50V22.5V20H59.375H68.75V22.5Z" fill="#E9E9E9"/>
<path d="M22.5 20V21.25H21.25H20V22.5V23.75H21.25H22.5V25V26.25H23.75H25V25V23.75H26.25H27.5V22.5V21.25H26.25H25V20V18.75H23.75H22.5V20ZM25 22.5V23.75H23.75H22.5V22.5V21.25H23.75H25V22.5Z" fill="#E9E9E9"/>
<path d="M10 22.5V23.75H11.25H12.5V22.5V21.25H11.25H10V22.5Z" fill="#E9E9E9"/>
<path d="M15 22.5V23.75H16.25H17.5V22.5V21.25H16.25H15V22.5Z" fill="#E9E9E9"/>
<path d="M30 22.5V23.75H31.25H32.5V22.5V21.25H31.25H30V22.5Z" fill="#E9E9E9"/>
<path d="M35 22.5V23.75H36.25H37.5V22.5V21.25H36.25H35V22.5Z" fill="#E9E9E9"/>
<path d="M12.2812 25.1562C11.2969 25.4062 9.89062 26.25 9.20312 26.9844C8.85938 27.3594 8.34375 28.1406 8.07812 28.7188C7.625 29.6719 7.57812 29.9062 7.57812 31.2656C7.57812 32.6719 7.60938 32.8125 8.15625 33.9375C8.85938 35.3594 9.76562 36.2344 11.2188 36.9219C12.1719 37.375 12.4062 37.4219 13.75 37.4219C15.0938 37.4219 15.3281 37.375 16.2812 36.9219C17.7344 36.2344 18.6406 35.3594 19.3438 33.9375C19.8906 32.8125 19.9219 32.6719 19.9219 31.25C19.9219 29.8281 19.8906 29.6875 19.3438 28.5625C18.2812 26.4375 16.4062 25.1719 14.0938 25.0625C13.4375 25.0312 12.625 25.0781 12.2812 25.1562ZM14.9062 27.6875C16.25 28.0938 17.5 29.8125 17.5 31.25C17.5 33.1875 15.6875 35 13.75 35C12.7656 35 11.9688 34.6406 11.1719 33.8281C9.57812 32.25 9.57812 30.25 11.1719 28.6719C12.2656 27.5625 13.4375 27.2656 14.9062 27.6875Z" fill="#E9E9E9"/>
<path d="M12.7344 28.9687C12.1563 29.2187 11.6406 29.7812 11.4219 30.3594C11.0938 31.2031 11.1406 31.25 12.5 31.25H13.75V30C13.75 28.6094 13.6875 28.5469 12.7344 28.9687Z" fill="#E9E9E9"/>
<path d="M32.2812 25.1562C31.2969 25.4062 29.8906 26.25 29.2031 26.9844C28.8594 27.3594 28.3438 28.1406 28.0781 28.7188C27.625 29.6719 27.5781 29.9062 27.5781 31.2656C27.5781 32.6719 27.6094 32.8125 28.1562 33.9375C28.8594 35.3594 29.7656 36.2344 31.2188 36.9219C32.1719 37.375 32.4062 37.4219 33.75 37.4219C35.0938 37.4219 35.3281 37.375 36.2812 36.9219C37.7344 36.2344 38.6406 35.3594 39.3438 33.9375C39.8906 32.8125 39.9219 32.6719 39.9219 31.25C39.9219 29.8281 39.8906 29.6875 39.3438 28.5625C38.2812 26.4375 36.4062 25.1719 34.0938 25.0625C33.4375 25.0312 32.625 25.0781 32.2812 25.1562ZM34.9062 27.6875C35.7656 27.9375 37.0625 29.2344 37.3125 30.0938C37.75 31.5625 37.4375 32.7344 36.3281 33.8281C35.5312 34.6406 34.7344 35 33.75 35C31.8125 35 30 33.1875 30 31.25C30 30.2656 30.3594 29.4688 31.1719 28.6719C32.2656 27.5625 33.4375 27.2656 34.9062 27.6875Z" fill="#E9E9E9"/>
<path d="M32.7344 28.9687C32.1563 29.2187 31.6406 29.7812 31.4219 30.3594C31.0938 31.2031 31.1406 31.25 32.5 31.25H33.75V30C33.75 28.6094 33.6875 28.5469 32.7344 28.9687Z" fill="#E9E9E9"/>
<path d="M22.5 30V31.25H23.75H25V30V28.75H23.75H22.5V30Z" fill="#E9E9E9"/>
<path d="M22.5 35V36.25H23.75H25V35V33.75H23.75H22.5V35Z" fill="#E9E9E9"/>
<path d="M10 40V41.25H11.25H12.5V40V38.75H11.25H10V40Z" fill="#E9E9E9"/>
<path d="M15 40V41.25H16.25H17.5V40V38.75H16.25H15V40Z" fill="#E9E9E9"/>
<path d="M20 40V41.25H21.25H22.5V40V38.75H21.25H20V40Z" fill="#E9E9E9"/>
<path d="M25 40V41.25H26.25H27.5V40V38.75H26.25H25V40Z" fill="#E9E9E9"/>
<path d="M30 40V41.25H31.25H32.5V40V38.75H31.25H30V40Z" fill="#E9E9E9"/>
<path d="M35 40V41.25H36.25H37.5V40V38.75H36.25H35V40Z" fill="#E9E9E9"/>
<path d="M12.2812 42.6562C11.2969 42.9062 9.89062 43.75 9.20312 44.4844C8.85938 44.8594 8.34375 45.6406 8.07812 46.2188C7.625 47.1719 7.57812 47.4062 7.57812 48.7656C7.57812 50.1719 7.60938 50.3125 8.15625 51.4375C8.85938 52.8594 9.76562 53.7344 11.2188 54.4219C12.1719 54.875 12.4062 54.9219 13.75 54.9219C15.0938 54.9219 15.3281 54.875 16.2812 54.4219C17.7344 53.7344 18.6406 52.8594 19.3438 51.4375C19.8906 50.3125 19.9219 50.1719 19.9219 48.75C19.9219 47.3281 19.8906 47.1875 19.3438 46.0625C18.2812 43.9375 16.4062 42.6719 14.0938 42.5625C13.4375 42.5312 12.625 42.5781 12.2812 42.6562ZM14.9062 45.1875C15.7656 45.4375 17.0625 46.7344 17.3125 47.5938C17.75 49.0625 17.4375 50.2344 16.3281 51.3281C14.75 52.9219 12.75 52.9219 11.1719 51.3281C9.57812 49.75 9.57812 47.75 11.1719 46.1719C12.2656 45.0625 13.4375 44.7656 14.9062 45.1875Z" fill="#E9E9E9"/>
<path d="M12.7344 46.4687C12.1563 46.7187 11.6406 47.2812 11.4219 47.8594C11.0938 48.7031 11.1406 48.75 12.5 48.75H13.75V47.5C13.75 46.1094 13.6875 46.0469 12.7344 46.4687Z" fill="#E9E9E9"/>
<path d="M32.2812 42.6562C31.2969 42.9062 29.8906 43.75 29.2031 44.4844C28.8594 44.8594 28.3438 45.6406 28.0781 46.2188C27.625 47.1719 27.5781 47.4062 27.5781 48.7656C27.5781 50.1719 27.6094 50.3125 28.1562 51.4375C28.8594 52.8594 29.7656 53.7344 31.2188 54.4219C32.1719 54.875 32.4062 54.9219 33.75 54.9219C35.0938 54.9219 35.3281 54.875 36.2812 54.4219C37.7344 53.7344 38.6406 52.8594 39.3438 51.4375C39.8906 50.3125 39.9219 50.1719 39.9219 48.75C39.9219 47.3281 39.8906 47.1875 39.3438 46.0625C38.2812 43.9375 36.4062 42.6719 34.0938 42.5625C33.4375 42.5312 32.625 42.5781 32.2812 42.6562ZM34.9062 45.1875C36.25 45.5938 37.5 47.3125 37.5 48.75C37.5 50.6875 35.6875 52.5 33.75 52.5C31.8125 52.5 30 50.6875 30 48.75C30 47.7656 30.3594 46.9688 31.1719 46.1719C32.2656 45.0625 33.4375 44.7656 34.9062 45.1875Z" fill="#E9E9E9"/>
<path d="M32.7344 46.4687C32.1563 46.7187 31.6406 47.2812 31.4219 47.8594C31.0938 48.7031 31.1406 48.75 32.5 48.75H33.75V47.5C33.75 46.1094 33.6875 46.0469 32.7344 46.4687Z" fill="#E9E9E9"/>
<path d="M49.1406 42.8906L48.75 43.2656V47.5V51.7344L49.1406 52.1094L49.5156 52.5H59.375H69.2344L69.6094 52.1094L70 51.7344V47.5V43.2656L69.6094 42.8906L69.2344 42.5H59.375H49.5156L49.1406 42.8906ZM67.5 47.5V50H59.375H51.25V47.5V45H59.375H67.5V47.5Z" fill="#E9E9E9"/>
<path d="M22.5 45V46.25H23.75H25V45V43.75H23.75H22.5V45Z" fill="#E9E9E9"/>
<path d="M22.5 50V51.25H23.75H25V50V48.75H23.75H22.5V50Z" fill="#E9E9E9"/>
<path d="M22.5 55V56.25H21.25H20V57.5V58.75H21.25H22.5V60V61.25H23.75H25V60V58.75H26.25H27.5V57.5V56.25H26.25H25V55V53.75H23.75H22.5V55ZM25 57.5V58.75H23.75H22.5V57.5V56.25H23.75H25V57.5Z" fill="#E9E9E9"/>
<path d="M56.25 56.25V57.5H59.375H62.5V56.25V55H59.375H56.25V56.25Z" fill="#E9E9E9"/>
<path d="M10 57.5V58.75H11.25H12.5V57.5V56.25H11.25H10V57.5Z" fill="#E9E9E9"/>
<path d="M15 57.5V58.75H16.25H17.5V57.5V56.25H16.25H15V57.5Z" fill="#E9E9E9"/>
<path d="M30 57.5V58.75H31.25H32.5V57.5V56.25H31.25H30V57.5Z" fill="#E9E9E9"/>
<path d="M35 57.5V58.75H36.25H37.5V57.5V56.25H36.25H35V57.5Z" fill="#E9E9E9"/>
<path d="M12.2812 60.1562C11.2969 60.4062 9.89062 61.25 9.20312 61.9844C8.85938 62.3594 8.34375 63.1406 8.07812 63.7188C7.625 64.6719 7.57812 64.9062 7.57812 66.2656C7.57812 67.6719 7.60938 67.8125 8.15625 68.9375C8.85938 70.3594 9.76562 71.2344 11.2188 71.9219C12.1719 72.375 12.4062 72.4219 13.75 72.4219C15.0938 72.4219 15.3281 72.375 16.2812 71.9219C17.7344 71.2344 18.6406 70.3594 19.3438 68.9375C19.8906 67.8125 19.9219 67.6719 19.9219 66.25C19.9219 64.8281 19.8906 64.6875 19.3438 63.5625C18.2812 61.4375 16.4062 60.1719 14.0938 60.0625C13.4375 60.0312 12.625 60.0781 12.2812 60.1562ZM14.9062 62.6875C16.25 63.0938 17.5 64.8125 17.5 66.25C17.5 68.1875 15.6875 70 13.75 70C12.7656 70 11.9688 69.6406 11.1719 68.8281C9.57812 67.25 9.57812 65.25 11.1719 63.6719C12.2656 62.5625 13.4375 62.2656 14.9062 62.6875Z" fill="#E9E9E9"/>
<path d="M12.7344 63.9687C12.1563 64.2187 11.6406 64.7812 11.4219 65.3594C11.0938 66.2031 11.1406 66.25 12.5 66.25H13.75V65C13.75 63.6094 13.6875 63.5469 12.7344 63.9687Z" fill="#E9E9E9"/>
<path d="M35.3906 60.3906C35 60.7656 35 60.7969 35 63.75C35 66.7031 35 66.7344 35.3906 67.1094C35.75 67.4844 35.8438 67.5 37.8906 67.5H40V68.75V70H37.8906C35.8438 70 35.75 70.0156 35.3906 70.3906C35 70.7656 35 70.7969 35 73.75C35 76.7031 35 76.7344 35.3906 77.1094L35.7656 77.5H42.4531C48.1719 77.5 49.2031 77.4688 49.4844 77.2656C49.7812 77.0625 49.9219 77.0625 50.7188 77.2656C54.9062 78.3594 59.2656 75.3906 59.8906 71.0312C60.625 65.9062 55.75 61.4375 50.8125 62.7188L50 62.9219V61.8438C50 60.9062 49.9531 60.7188 49.6094 60.3906L49.2344 60H42.5H35.7656L35.3906 60.3906ZM47.5 63.4688C47.5 65.0781 47.7656 65 42.2344 65H37.5V63.75V62.5H42.5H47.5V63.4688ZM54.4062 65.4062L55 65.7031L51.5938 69.1094L48.1875 72.5156L47.9062 71.9219C47.75 71.5938 47.5781 70.8906 47.5312 70.3594C47.3594 68.1094 48.7188 66.0625 50.9375 65.25C51.8594 64.9219 53.6094 65 54.4062 65.4062ZM45.2188 68.3125C45.0938 68.7656 45 69.3281 45 69.5625V70H43.75H42.5V68.75V67.5H43.9688H45.4219L45.2188 68.3125ZM57.4219 70C57.4219 72.0156 56.375 73.6562 54.5469 74.5156C53.4375 75.0156 51.875 75.0781 50.7188 74.625L49.9688 74.3281L53.375 70.9062L56.7969 67.4844L57.1094 68.1562C57.3281 68.6406 57.4219 69.1719 57.4219 70ZM45.7188 73.1562C45.875 73.5 46.2031 74.0625 46.4375 74.4062L46.875 75H42.1875H37.5V73.75V72.5H41.4531H45.4219L45.7188 73.1562Z" fill="#E9E9E9"/>
<path d="M58.75 61.25V62.5H63.125H67.5V61.25V60H63.125H58.75V61.25Z" fill="#E9E9E9"/>
<path d="M30.9844 60.7031C29.6406 61.375 28.75 62.3125 28.0781 63.7187C27.625 64.6719 27.5781 64.9062 27.5781 66.25C27.5781 67.5937 27.625 67.8281 28.0781 68.7812C28.75 70.1875 29.6406 71.125 30.9844 71.7969C31.5781 72.0937 32.1094 72.3125 32.1406 72.2812C32.2188 72.2031 32.8125 69.9531 32.7656 69.9062C32.75 69.8906 32.4688 69.7656 32.1406 69.6094C30.9531 69.0625 30 67.5625 30 66.25C30 64.9375 30.9531 63.4375 32.1406 62.8906C32.4688 62.7344 32.75 62.6094 32.7656 62.5937C32.8125 62.5469 32.2188 60.2969 32.1406 60.2187C32.1094 60.1875 31.5781 60.4062 30.9844 60.7031Z" fill="#E9E9E9"/>
<path d="M22.5 65V66.25H23.75H25V65V63.75H23.75H22.5V65Z" fill="#E9E9E9"/>
<path d="M32.7344 63.9687C32.1563 64.2187 31.6406 64.7812 31.4219 65.3594C31.0938 66.2031 31.1406 66.25 32.5 66.25H33.75V65C33.75 63.6094 33.6875 63.5469 32.7344 63.9687Z" fill="#E9E9E9"/>
<path d="M22.5 70V71.25H23.75H25V70V68.75H23.75H22.5V70Z" fill="#E9E9E9"/>
</g>
<defs>
<clipPath id="clip0_418_12399">
<rect width="80" height="80" rx="13.3054" fill="white"/>
</clipPath>
</defs>
</svg>
