<svg width="80" height="80" viewBox="0 0 80 80" fill="none" xmlns="http://www.w3.org/2000/svg">
<g clip-path="url(#clip0_418_12450)">
<path d="M47.7344 0.171875C40.8125 1.0625 34.4375 6 31.8125 12.5156C30.6406 15.4219 30.3125 17.5156 30.3125 22.0938V25.4219L29.7031 25.8281C28.9219 26.3438 28.0625 27.4062 27.6406 28.375C27.2188 29.3125 27.0781 31.0781 27.3438 32.1719C27.6094 33.2812 28.5781 34.7188 29.5312 35.4062L30.3125 35.9688V38.875V41.7969L29 41.75L27.6875 41.7031L27.5156 41.0469C27.4219 40.6406 27.1406 40.1719 26.7969 39.8438C26.2344 39.2969 26.2188 39.2969 24.5625 39.2188L22.9062 39.1406L22.75 38.6094C22.5312 37.8594 21.6094 36.9375 20.8594 36.7344C20.0625 36.5156 15.7344 36.5156 14.9688 36.7188C14.1406 36.9531 13.5312 37.5312 13.1406 38.4375L12.7969 39.2188H11.3594C10.2031 39.2188 9.82812 39.2812 9.42188 39.5312C8.82812 39.8906 8.4375 40.4531 8.29688 41.1406L8.1875 41.6406L6.76562 41.7188C5.5 41.7969 5.26562 41.8594 4.65625 42.2812C4.28125 42.5312 3.8125 43.0625 3.59375 43.4375L3.20312 44.1406V49.8906V55.6562L3.57812 55.9531C4.04688 56.3438 4.54688 56.3281 5.0625 55.9219L5.46875 55.6094V50.1406C5.46875 43.6875 5.35938 44.0625 7.1875 44.0625H8.28125V59.1875V74.3281L8.60938 74.625C8.92188 74.9062 9.34375 74.9219 17.8125 74.9688L26.6875 75L27.1406 74.625L27.5781 74.25L27.625 59.1562L27.6562 44.0625H28.6719C29.4844 44.0625 29.75 44.125 30 44.375C30.3125 44.6875 30.3125 44.8906 30.3125 60.8281V76.9844L29.9531 77.3125L29.5938 77.6562H17.8594H6.10938L5.79688 77.25C5.46875 76.8438 5.46875 76.6875 5.46875 68.4219V60.0156L5.0625 59.7031C4.51562 59.2656 3.98438 59.2969 3.5 59.7656L3.10938 60.1562L3.15625 68.8594C3.20312 77 3.21875 77.6094 3.48438 78.1094C3.875 78.8125 4.46875 79.3594 5.23438 79.7031C5.82812 79.9844 7.1875 80 40.9531 80C75.2969 80 76.0625 80 76.4219 79.7031L76.7969 79.4062V74.6562C76.7969 70.6094 76.75 69.75 76.5156 68.7031C76.3594 68.0312 76.0938 67.3438 75.9219 67.1719C75.5312 66.7812 74.6719 66.7812 74.3125 67.1719C73.9531 67.5625 73.9531 67.875 74.2812 69.5938C74.4688 70.6094 74.5312 71.875 74.5312 74.3125V77.6562H70.1562H65.7812V75.5C65.7812 73.4375 65.7656 73.3125 65.4219 73C64.9062 72.5156 64.1719 72.5469 63.7656 73.0625C63.4688 73.4375 63.4375 73.6875 63.4375 75.5625V77.6562H50.3906H37.3438V75.4688C37.3438 73.4844 37.3125 73.25 37.0312 72.9688C36.5625 72.5 35.7344 72.5469 35.3281 73.0625C35.0312 73.4375 35 73.6875 35 75.5625V77.6562H33.7344C32.6406 77.6562 32.4844 77.625 32.5625 77.4062C32.6094 77.2656 32.6562 73.6094 32.6562 69.2812V61.3906L33.3906 61.0781C34 60.8125 42.5469 58.5938 42.9375 58.5938C43.0156 58.5938 43.1875 58.9688 43.3281 59.4219C44.0625 61.7656 46.1094 63.6406 48.6719 64.2969C51.2188 64.9531 54.125 64.0625 55.9062 62.1094C56.6094 61.3281 57.6562 59.3906 57.6562 58.875C57.6562 58.7031 57.7656 58.5938 57.9375 58.5938C58.0781 58.5938 60.1406 59.0938 62.5 59.6875C67.6562 60.9844 68.9219 61.5312 70.8281 63.2656C72.1719 64.5 72.6562 64.6406 73.25 64.0156C73.875 63.3438 73.7188 62.8281 72.5469 61.6875C70.2812 59.5 68.8906 58.8906 62.8125 57.3438C58.4844 56.2656 58.0469 56.1094 58 55.8125L57.9531 55.4688H63.2031C69.0781 55.4688 69.1719 55.4531 69.9688 54.4062L70.3906 53.8594L70.4375 50.5C70.4844 47.2188 70.4844 47.1406 70.1406 46.7812C69.5781 46.1719 68.7344 46.2969 68.3594 47.0469C68.1719 47.375 68.125 48.1406 68.125 50.3125V53.125H63.0469H57.9688V51.8906V50.6719L59.4219 49.75C61.0781 48.7031 63.3594 46.5156 64.3594 45.0469C65.1875 43.7969 66.125 41.9219 66.5312 40.625C66.8125 39.7812 67.3438 37.1875 67.3438 36.7031C67.3438 36.625 67.5156 36.5625 67.7344 36.5625H68.125V39.3906C68.125 41.2344 68.1875 42.3281 68.3125 42.5469C68.7188 43.3281 69.3906 43.4844 70.0625 42.9531L70.4688 42.6406V39.2969V35.9688L71 35.6406C73.375 34.1719 74.3438 30.7188 73.0938 28.1406C72.7031 27.3125 71.5312 26.0156 70.9062 25.6875L70.4688 25.4531V21.8125C70.4688 19.25 70.3906 17.75 70.2344 16.7812C69.1562 10.5781 65.2812 5.26562 59.6719 2.28125C56.2344 0.453125 51.7812 -0.34375 47.7344 0.171875ZM52.7344 2.5C54.6562 2.78125 56.2812 3.28125 58.0469 4.125C62.875 6.45312 66.2344 10.5312 67.6875 15.8906C67.9688 16.9375 68.0312 17.6562 68.0938 20.9688L68.1562 24.8438H66.9062C65.7344 24.8438 65.625 24.875 65.3281 25.25C65.0312 25.625 65 25.875 65 28.1094V30.5469L64.4531 29.5312C63.5938 27.9062 62.9688 27.4531 60.5625 26.7031C56.9688 25.5781 54.9375 24.3281 52.5312 21.7969C51.7031 20.9219 50.8594 20.1562 50.6719 20.0938C50.1562 19.9375 49.6875 20.25 48.5781 21.5312C46.4844 23.9219 44.1875 25.4062 40.9219 26.4688C39.7188 26.875 38.5156 27.2969 38.2812 27.4219C37.5938 27.7812 36.9062 28.5625 36.3594 29.5938L35.8594 30.5469L35.7812 27.9219C35.6875 24.7656 35.7344 24.8438 33.8594 24.8438H32.625L32.7031 21.125C32.7969 17.2656 32.9062 16.4531 33.6406 14.2969C35.4844 8.92188 40.0469 4.625 45.5781 3.04688C47.9375 2.375 50.4531 2.1875 52.7344 2.5ZM51.4531 24.0938C53.8281 26.4688 56.5312 28 60.2656 29.0625C60.875 29.2344 61.5156 29.5 61.6875 29.6562C61.8594 29.7969 62.6875 31.2031 63.5 32.7656C65.1875 35.9844 65.1875 36 64.7031 38.3594C62.9844 46.7344 54.3438 51.875 46.1719 49.375C40.6719 47.7031 36.6562 42.9375 35.9219 37.2031L35.75 35.8281L37.25 32.9375C38.0625 31.3594 38.9062 29.9062 39.1094 29.7188C39.3125 29.5312 40.1719 29.1719 41.0938 28.9062C44.2188 27.9844 47.5156 26.0469 49.6094 23.9219C50.0312 23.4844 50.4062 23.125 50.4375 23.125C50.4688 23.125 50.9219 23.5625 51.4531 24.0938ZM33.4375 30.7031V34.2188H32.8594C31.6562 34.2031 30.375 33.3125 29.8281 32.1094C28.8281 29.9531 30.4844 27.1875 32.7812 27.1875H33.4375V30.7031ZM69.1875 27.4375C70.4688 27.9688 71.2812 29.2031 71.2969 30.625C71.3125 32.625 69.7812 34.2188 67.8281 34.2188H67.3438V30.7031V27.1875H67.9688C68.3125 27.1875 68.8594 27.2969 69.1875 27.4375ZM33.7031 38C33.9062 39.5 34.6094 41.7188 35.25 43C36.7031 45.875 39.2656 48.5781 41.9531 50.0781L42.9688 50.6562V51.8906V53.125L37.8594 53.0938L32.7344 53.0469L32.6875 44.7969L32.6562 36.5469L33.0781 36.5938C33.4844 36.6406 33.5156 36.6875 33.7031 38ZM20.2188 39C20.4062 39.0625 20.4688 39.3125 20.4688 39.8594C20.4688 40.4219 20.5625 40.7188 20.8438 41.0469C21.2188 41.4844 21.25 41.4844 23.2812 41.5469L25.3281 41.5938L25.2812 42.875L25.2344 44.1406L17.9375 44.1875L10.625 44.2188V42.9062V41.5938L12.5938 41.5312C14.5312 41.4844 14.5625 41.4844 14.9375 41.0469C15.2188 40.7188 15.3125 40.4219 15.3125 39.8438C15.3125 39.3906 15.3906 39.0625 15.5156 39.0156C15.7969 38.8906 19.9219 38.8906 20.2188 39ZM25.2812 59.5625L25.2344 72.5781L17.9375 72.625L10.625 72.6562V59.6094V46.5625H17.9688H25.3125L25.2812 59.5625ZM50.4688 52.2344C52.7188 52.2344 53.4062 52.1875 54.3438 51.9219C55.2812 51.6719 55.5156 51.6562 55.5781 51.8281C55.625 51.9375 55.625 53.3906 55.5938 55.0312C55.5312 57.625 55.4844 58.1562 55.2031 58.875C54.7031 60.1406 53.9062 61 52.6875 61.5938C51.7656 62.0469 51.5 62.1094 50.3906 62.1094C49.4531 62.1094 48.9688 62.0156 48.4062 61.7656C47.4219 61.3125 46.3125 60.2656 45.8125 59.2969C45.3906 58.5312 45.3906 58.4531 45.3438 55.0625L45.2969 51.5938L46.5156 51.9219C47.5156 52.1875 48.2031 52.25 50.4688 52.2344ZM42.8906 55.8438C42.8906 56.1094 42.2969 56.2969 38.125 57.3594C35.5 58.0312 33.2031 58.625 33.0156 58.6875C32.6562 58.7812 32.6562 58.7812 32.6562 57.125V55.4688L37.7812 55.5C42.7031 55.5469 42.8906 55.5625 42.8906 55.8438Z" fill="#E9E9E9"/>
<path d="M43.125 31.3906C41.4531 31.7344 40.1562 33.2656 40.1562 34.9375C40.1562 36.0937 41.3906 36.5781 42.1406 35.7187C42.3281 35.4844 42.5 35.125 42.5 34.9219C42.5 34.7187 42.6562 34.3594 42.8594 34.1406C43.5938 33.2812 45.1562 33.8281 45.1562 34.9219C45.1562 35.5156 45.7969 36.1406 46.4062 36.1406C47.7969 36.1406 47.8906 34.125 46.5625 32.6094C45.6875 31.625 44.3438 31.1562 43.125 31.3906Z" fill="#E9E9E9"/>
<path d="M56.2657 31.4219C54.7344 31.7188 53.5625 32.9688 53.3438 34.5781C53.2188 35.4688 53.7344 36.1406 54.5313 36.1406C55.0938 36.1406 55.625 35.6562 55.625 35.125C55.625 34.5938 56.0782 33.9219 56.5313 33.7969C57.4688 33.5469 58.1875 34.0312 58.3594 35C58.4844 35.7344 58.9063 36.1406 59.5313 36.1406C60.7344 36.1406 61.0313 34.6406 60.125 33.125C59.2969 31.7969 57.8282 31.1406 56.2657 31.4219Z" fill="#E9E9E9"/>
<path d="M46.125 42.3906C45.2969 43.2656 45.9219 44.2969 47.8125 45.2031C48.75 45.6719 48.9531 45.7031 50.4688 45.7031C51.9375 45.7031 52.2031 45.6562 52.9844 45.2812C53.4531 45.0469 54.125 44.6094 54.4531 44.3281C54.9688 43.8906 55.0625 43.7031 55.0625 43.2031C55.0625 42.7812 54.9688 42.5312 54.7031 42.3281C54.2031 41.9219 53.75 41.9531 53.1094 42.4375C52.2031 43.125 51.3906 43.4375 50.4219 43.4375C49.3906 43.4375 48.6563 43.1719 47.8438 42.5C47.1563 41.9375 46.5781 41.9062 46.125 42.3906Z" fill="#E9E9E9"/>
</g>
<defs>
<clipPath id="clip0_418_12450">
<rect width="80" height="80" rx="13.3054" fill="white"/>
</clipPath>
</defs>
</svg>
