<svg width="80" height="80" viewBox="0 0 80 80" fill="none" xmlns="http://www.w3.org/2000/svg">
<g clip-path="url(#clip0_418_12459)">
<g clip-path="url(#clip1_418_12459)">
<path d="M14.2654 13.2295C10.8592 13.8389 7.64041 15.5264 5.17166 17.9795C-0.625216 23.7295 -1.64084 32.542 2.68728 39.5576C3.17166 40.3545 4.14041 41.5264 5.20291 42.6357C6.70291 44.1826 6.98416 44.4014 7.43728 44.4014C7.79666 44.4014 8.03103 44.292 8.26541 43.9951C8.85916 43.2451 8.71853 42.9482 6.96853 41.1201C4.64041 38.6826 3.42166 36.5732 2.70291 33.6826C2.29666 32.0264 2.32791 28.4951 2.78103 26.6982C4.07791 21.5264 7.99978 17.4639 13.2342 15.8545C14.4998 15.4639 14.8123 15.4326 17.3435 15.4326C19.8748 15.4326 20.1873 15.4639 21.4529 15.8545C24.6248 16.8389 26.1248 17.8701 30.3279 22.0107C32.1092 23.7607 33.6717 25.1826 33.8123 25.1826C34.3435 25.1826 34.8123 24.7764 38.0467 21.6045C39.8592 19.8232 41.7342 18.1045 42.2342 17.7764C43.4373 16.9951 45.156 16.2139 46.5779 15.8076C48.0623 15.3701 51.2185 15.2139 52.9373 15.4951C54.6092 15.7607 56.781 16.5732 58.3435 17.5107C59.0779 17.9482 59.781 18.3076 59.906 18.3076C60.031 18.3076 60.3279 18.1357 60.5623 17.9482C61.1873 17.4014 61.156 16.667 60.4529 16.0889C59.5623 15.3389 56.5935 13.9639 54.9217 13.5107C53.4998 13.1357 53.1092 13.0889 50.4685 13.0889C47.2967 13.0889 46.4685 13.2451 43.9529 14.2451C41.4373 15.2607 39.8904 16.4014 36.4373 19.7764L33.906 22.2764L31.2029 19.6045C27.6717 16.1201 25.906 14.8857 22.9529 13.8857C20.4842 13.0264 16.8592 12.7607 14.2654 13.2295Z" fill="#E9E9E9"/>
<path d="M63.0623 20.2295C62.4998 20.792 62.5467 21.2139 63.3592 22.5732C64.2029 23.9639 64.9373 25.9014 65.2498 27.4951C65.5467 29.0264 65.531 31.7764 65.2185 33.2764C64.7029 35.8232 63.3592 38.4951 61.7185 40.2295C60.8435 41.167 60.7342 41.2451 59.9373 41.3389C58.0779 41.5576 55.2029 42.9014 52.9998 44.5889C49.1092 47.5732 44.7029 53.1357 41.1873 59.5576C40.6873 60.4639 40.2654 61.2139 40.2342 61.2451C40.2185 61.2764 38.1717 60.9014 35.6873 60.417C31.4373 59.5889 31.1092 59.5576 30.1717 59.7139C29.156 59.8857 28.2654 60.2764 27.4685 60.8545L27.0154 61.1826L19.4842 53.6514C12.3592 46.5264 11.9217 46.1201 11.3904 46.1201C10.7029 46.1201 10.2654 46.5576 10.2654 47.2295C10.2654 47.6514 10.7654 48.2139 14.1873 51.6357C16.3592 53.8076 18.1248 55.6201 18.1248 55.667C18.1248 55.7295 17.781 55.8076 17.3592 55.8389C15.0935 56.0576 13.0623 58.2295 12.9373 60.5732L12.8904 61.2764H11.8435C10.3123 61.2764 9.20292 61.7451 8.10917 62.8232C6.60917 64.3232 6.15605 66.417 6.89042 68.3701C7.21855 69.2607 8.28105 70.5889 8.95292 70.9482C9.3123 71.1357 9.34355 71.2451 9.40605 72.5107C9.46855 74.0732 9.8123 74.9482 10.781 75.9482C11.9217 77.1201 12.3592 77.2607 19.6873 78.6201L26.4373 79.8857L39.8904 79.8389L53.3592 79.792L54.3279 79.4326C54.8592 79.2295 55.7185 78.8076 56.2342 78.4951C56.7498 78.1826 60.4842 74.9951 64.531 71.4326C69.9217 66.667 72.1561 64.8076 72.9217 64.4014L73.9529 63.8545L76.6717 63.8076C79.3592 63.7451 79.3748 63.7451 79.6873 63.3545C80.0779 62.8545 80.0779 62.3545 79.7029 61.8857C79.4061 61.5107 79.3592 61.5107 76.6092 61.5107C74.1248 61.5107 73.7186 61.542 72.8123 61.8701C72.2498 62.0576 71.4998 62.4014 71.1561 62.6514C70.7967 62.8857 67.1873 65.9951 63.1248 69.5576C59.0623 73.1201 55.4373 76.2295 55.0623 76.4639C54.6873 76.6982 53.9685 77.042 53.4529 77.2139C52.531 77.5107 52.156 77.5264 39.5623 77.5264H26.6248L20.2967 76.3545C16.8279 75.7139 13.7654 75.1045 13.4842 75.0107C12.906 74.8232 11.9217 73.8076 11.781 73.2295C11.6092 72.5264 11.7967 71.1357 12.1404 70.6826C12.5623 70.1045 13.3592 69.5889 14.031 69.4639C14.4217 69.3857 16.3748 69.6826 20.6092 70.4795L26.6404 71.6045L29.3748 71.5889H32.1248L36.9529 73.0107C41.3123 74.3076 41.9217 74.4482 43.0467 74.4482C43.9373 74.4326 44.5467 74.3389 45.156 74.1045C45.6717 73.917 49.0467 71.7139 53.5154 68.667L61.0154 63.542V62.8545C61.0154 62.292 60.9373 62.1201 60.5935 61.8545C60.3279 61.6514 60.0623 61.5889 59.8123 61.6514C59.6248 61.6982 56.2185 63.9639 52.2654 66.667C48.3123 69.3701 44.7967 71.6982 44.4529 71.8389C43.2342 72.3389 42.5154 72.2139 35.9998 70.292C32.6248 69.3076 29.6717 68.3857 29.4217 68.2451C28.4217 67.7451 27.656 66.4639 27.656 65.3389C27.656 63.9326 28.7342 62.5264 30.1092 62.1201C30.9529 61.8701 30.9529 61.8701 35.8279 62.8232C38.5154 63.3545 40.8435 63.7764 41.031 63.7764C41.4842 63.7764 41.906 63.2607 42.5623 61.9326C43.9842 59.1045 46.8123 54.6982 49.0154 51.917C50.4998 50.0576 53.156 47.4014 54.6092 46.3076C55.8748 45.3701 57.6092 44.4326 59.0623 43.9014L60.0779 43.542L69.7185 43.4951L79.3592 43.4482L79.6873 43.042C80.2029 42.3857 80.0779 41.7139 79.3592 41.3545C78.9998 41.1514 77.7186 41.1201 71.5623 41.1201C67.5311 41.1201 64.2185 41.0889 64.2185 41.0576C64.2185 41.0264 64.531 40.542 64.9217 39.9639C66.2654 37.9639 67.281 35.3701 67.656 32.9482C67.9685 31.0732 67.781 27.6514 67.281 25.8076C66.8592 24.292 65.4529 21.2295 64.8123 20.4639C64.281 19.8232 63.5623 19.7295 63.0623 20.2295ZM20.3435 58.6982C21.7498 59.2295 21.8123 59.2764 23.7029 61.1514C24.7654 62.1982 25.6248 63.1514 25.6248 63.2607C25.6248 63.542 24.4529 63.5264 22.9373 63.2295C21.5623 62.9639 21.0935 63.0732 20.7967 63.7295C20.5623 64.2607 20.5779 64.4639 20.9373 64.917C21.1873 65.2295 21.4998 65.3545 22.6092 65.5576C23.3748 65.6982 24.281 65.8076 24.6404 65.8076H25.2967L25.4685 66.6514C25.5623 67.1201 25.8748 67.8857 26.1717 68.3701C26.656 69.1826 26.6717 69.2451 26.3592 69.167C26.1717 69.1201 23.5154 68.6201 20.4685 68.0576C14.4842 66.9482 13.8123 66.9014 12.4529 67.4951C12.0623 67.667 11.4373 68.1045 11.0467 68.4482L10.3592 69.0889L9.9373 68.7607C8.96855 67.9951 8.60917 66.2764 9.20292 65.1826C9.35917 64.8857 9.73417 64.4326 10.0467 64.1826C10.8435 63.542 11.6717 63.5107 14.2654 63.9951C16.5467 64.417 17.0154 64.3857 17.3279 63.792C17.781 62.9482 17.2654 62.1514 16.1248 61.9639C15.6092 61.8857 15.406 61.7607 15.2967 61.4951C14.9842 60.6357 15.656 59.1201 16.6404 58.5264C17.5623 57.9795 18.5623 58.0264 20.3435 58.6982Z" fill="#E9E9E9"/>
<path d="M36.2811 27.3076C32.2498 29.3076 33.7029 35.417 38.2029 35.3857C41.0467 35.3545 43.0623 32.6826 42.2811 29.9639C41.5467 27.4639 38.5936 26.1514 36.2811 27.3076ZM39.3592 29.6357C40.2654 30.417 40.3279 31.6982 39.4842 32.4951C37.8748 34.0107 35.4686 32.1514 36.4842 30.1826C36.9842 29.2139 38.4998 28.917 39.3592 29.6357Z" fill="#E9E9E9"/>
<path d="M26.9841 28.3857C24.906 29.167 23.7341 31.6357 24.4373 33.7451C25.2498 36.167 28.0623 37.3389 30.3591 36.2139C31.906 35.4639 32.7185 34.1514 32.7185 32.4482C32.7185 30.6982 31.8435 29.2607 30.3435 28.5264C29.5935 28.1514 27.781 28.0889 26.9841 28.3857ZM29.7654 30.9951C30.8435 31.9795 30.5935 33.5264 29.281 34.1201C27.5779 34.8701 25.9998 33.2295 26.7966 31.5264C27.1091 30.8701 27.7341 30.5107 28.5623 30.4951C29.0935 30.4951 29.3279 30.5889 29.7654 30.9951Z" fill="#E9E9E9"/>
<path d="M44.3591 33.6045C42.6248 34.1357 41.2498 35.9639 41.2498 37.7607C41.2498 38.9014 41.781 40.0732 42.6873 40.8701C44.4841 42.4951 46.8904 42.4326 48.5466 40.7295C50.2185 39.0107 50.2654 36.5889 48.6404 34.8545C47.5623 33.6982 45.781 33.1826 44.3591 33.6045ZM46.4216 36.042C46.9998 36.3545 47.4998 37.1357 47.4998 37.7607C47.4998 38.7295 46.5154 39.7139 45.5466 39.7139C44.5935 39.7139 43.5935 38.7295 43.5935 37.792C43.5935 36.8076 44.5623 35.8076 45.5154 35.8076C45.7498 35.8076 46.156 35.917 46.4216 36.042Z" fill="#E9E9E9"/>
<path d="M21.3279 36.8076C19.6873 37.5732 18.8435 38.9014 18.8435 40.7295C18.8435 42.4326 19.656 43.7451 21.2029 44.4951C24.156 45.9482 27.5935 43.6045 27.2966 40.3232C27.156 38.667 26.031 37.2139 24.4841 36.6357C23.6248 36.3232 22.2029 36.3857 21.3279 36.8076ZM24.0623 39.0264C25.3904 39.8232 25.2498 41.8701 23.8123 42.4639C22.2966 43.1045 20.6248 41.5107 21.2498 40.0264C21.7185 38.9014 23.0466 38.4326 24.0623 39.0264Z" fill="#E9E9E9"/>
<path d="M33.2341 37.2295C31.906 37.542 30.4216 38.6357 29.656 39.8857C29.2654 40.5107 28.906 41.8857 28.906 42.7451C28.906 43.6514 28.5779 44.4639 27.7498 45.6045C26.9841 46.6826 26.7029 47.5576 26.7029 48.8545C26.7029 50.9951 27.9216 52.9482 29.8123 53.8857C30.6091 54.2764 30.8748 54.3232 32.1873 54.3232C33.531 54.3076 33.781 54.2607 34.8435 53.792C35.9685 53.292 36.0623 53.2764 37.1873 53.4014C37.8279 53.4639 38.7185 53.5107 39.156 53.4951C41.0623 53.4482 42.8748 52.2139 43.781 50.3701C44.2341 49.4482 44.2966 49.1826 44.2966 47.9951C44.2966 46.8857 44.2341 46.5264 43.8904 45.792C43.3904 44.7295 42.5466 43.7764 41.6716 43.2451C40.7185 42.6826 40.2029 42.0889 39.781 41.0107C38.9998 39.0264 37.8748 37.917 36.0623 37.3389C35.0623 37.042 34.2029 36.9951 33.2341 37.2295ZM35.3591 39.5732C36.3123 39.8232 36.9998 40.5732 37.6716 42.042C38.3591 43.5107 38.9998 44.2764 40.3279 45.1982C41.3904 45.917 41.8591 46.6045 41.9841 47.6514C42.0935 48.6826 41.8123 49.4639 41.031 50.2607C40.1873 51.1045 39.3123 51.3389 38.031 51.1045C36.6873 50.8545 35.2654 51.0107 33.9529 51.5732C32.1404 52.3545 30.7498 52.1201 29.7185 50.8857C28.656 49.5889 28.7654 48.0107 30.0154 46.4326C30.7185 45.5576 31.0779 44.542 31.2341 43.0264C31.3904 41.4795 31.6091 40.9639 32.3123 40.292C33.1248 39.5107 34.2185 39.2607 35.3591 39.5732Z" fill="#E9E9E9"/>
</g>
</g>
<defs>
<clipPath id="clip0_418_12459">
<rect width="80" height="80" rx="13.3054" fill="white"/>
</clipPath>
<clipPath id="clip1_418_12459">
<rect width="80" height="80" fill="white"/>
</clipPath>
</defs>
</svg>
