<svg width="122" height="115" viewBox="0 0 122 115" fill="none" xmlns="http://www.w3.org/2000/svg">
<path d="M21.4393 42.423C21.6015 42.2682 21.7298 42.0805 21.8157 41.8722C21.8986 41.6709 21.9412 41.455 21.9412 41.2368C21.9412 41.0187 21.8986 40.8026 21.8157 40.6013C21.7482 40.3938 21.6335 40.2053 21.481 40.0508C21.3285 39.8963 21.1424 39.7801 20.9376 39.7117H20.3104H19.6832C19.4776 39.7987 19.2924 39.9286 19.1396 40.0929L14.9582 44.3293C14.7516 44.5445 14.5046 44.7156 14.2317 44.8324C13.9588 44.9493 13.6655 45.0094 13.3692 45.0094C13.0729 45.0094 12.7796 44.9493 12.5067 44.8324C12.2338 44.7156 11.9868 44.5445 11.7803 44.3293L10.7349 43.2702C10.4178 43.0017 10.0192 42.8522 9.60597 42.8467C9.40312 42.8461 9.20224 42.8871 9.01541 42.9671C8.82859 43.0472 8.65964 43.1647 8.51877 43.3126C8.21356 43.615 8.03406 44.0242 8.01702 44.4564C8.01862 44.8835 8.18353 45.2936 8.47704 45.6003L9.48054 46.6593C10.5197 47.6892 11.9156 48.2658 13.3692 48.2658C14.8229 48.2658 16.2187 47.6892 17.2579 46.6593L21.4393 42.423ZM48.3259 6.32926C47.1261 5.11366 45.7016 4.14938 44.134 3.4915C42.5664 2.83362 40.8863 2.49512 39.1895 2.49512C37.4927 2.49512 35.8125 2.83362 34.2449 3.4915C32.6772 4.14938 31.2528 5.11366 30.053 6.32926L4.12834 32.5522C1.69968 35.0072 0.333031 38.339 0.32911 41.8148C0.325189 45.2906 1.68429 48.6257 4.10741 51.0862C6.53053 53.5468 9.81918 54.9314 13.2499 54.9354C16.6806 54.9394 19.9724 53.5624 22.4011 51.1074L48.3259 24.8422C49.5257 23.6266 50.4775 22.1835 51.1268 20.5952C51.7762 19.007 52.1103 17.3047 52.1103 15.5857C52.1103 13.8666 51.7762 12.1644 51.1268 10.5762C50.4775 8.98799 49.5257 7.54482 48.3259 6.32926ZM18.2197 22.8934L31.9347 36.7886L20.1014 48.7775C19.1989 49.6845 18.1285 50.402 16.9518 50.8891C15.775 51.3762 14.5149 51.6231 13.2438 51.6158C10.6854 51.6046 8.23507 50.5701 6.42602 48.7373C4.61698 46.9045 3.59574 44.4218 3.58473 41.8298C3.5775 40.542 3.82126 39.2654 4.30201 38.0731C4.78276 36.8809 5.4911 35.7966 6.38634 34.8823L18.2197 22.8934ZM46.026 22.5545L34.2344 34.5011L20.5194 20.6058L32.3529 8.61692C34.1653 6.79547 36.6157 5.77507 39.1686 5.77865C40.4437 5.76979 41.7075 6.0201 42.8854 6.51491C44.0633 7.00972 45.1312 7.73894 46.026 8.65933C47.844 10.5023 48.8654 13.0012 48.8654 15.6069C48.8654 18.2125 47.844 20.7115 46.026 22.5545Z" fill="#0095F6" stroke="#0095F6" stroke-width="0.28" stroke-miterlimit="10"/>
<path d="M95.9503 28.4853C95.9515 28.1789 95.8931 27.8752 95.7783 27.5917C95.6635 27.3082 95.4946 27.0504 95.2814 26.8331C94.8387 26.4114 94.258 26.1701 93.6506 26.1554C93.0406 26.1554 92.4556 26.4008 92.0243 26.8377C91.593 27.2747 91.3508 27.8673 91.3508 28.4853V33.1453H86.7511C86.1483 33.1452 85.5698 33.3848 85.1397 33.8127C84.7096 34.2405 84.4623 34.8224 84.4514 35.433C84.4502 35.7394 84.5086 36.0431 84.6234 36.3266C84.7382 36.6101 84.9073 36.8678 85.1205 37.0851C85.3336 37.3031 85.5877 37.4754 85.8678 37.5919C86.148 37.7083 86.4483 37.7665 86.7511 37.7629H91.3508V42.4229C91.3508 43.0409 91.593 43.6334 92.0243 44.0704C92.4556 44.5073 93.0406 44.7528 93.6506 44.7528C94.258 44.7381 94.8387 44.4967 95.2814 44.075C95.4946 43.8577 95.6635 43.6 95.7783 43.3165C95.8931 43.033 95.9515 42.7293 95.9503 42.4229V37.7629H100.508C100.812 37.7742 101.115 37.7196 101.396 37.6027C101.677 37.4858 101.93 37.3093 102.139 37.0851C102.352 36.8678 102.521 36.6101 102.636 36.3266C102.751 36.0431 102.809 35.7394 102.808 35.433C102.799 34.8288 102.559 34.2515 102.139 33.8231C101.93 33.5989 101.677 33.4224 101.396 33.3055C101.115 33.1886 100.812 33.134 100.508 33.1453H95.9503V28.4853ZM79.8938 3.06724V14.6748H75.294C72.8654 14.6748 70.5362 15.6523 68.8189 17.3922C67.1016 19.1321 66.1367 21.4918 66.1367 23.9524V47.21C66.1367 49.6706 67.1016 52.0303 68.8189 53.7702C70.5362 55.5101 72.8654 56.4875 75.294 56.4875H112.007C114.436 56.4875 116.765 55.5101 118.482 53.7702C120.199 52.0303 121.164 49.6706 121.164 47.21V23.9524C121.164 21.4918 120.199 19.1321 118.482 17.3922C116.765 15.6523 114.436 14.6748 112.007 14.6748H107.407V3.06724C107.409 2.7608 107.35 2.45714 107.235 2.17363C107.121 1.89013 106.952 1.63229 106.738 1.415C106.53 1.19078 106.277 1.01438 105.995 0.89748C105.714 0.780577 105.411 0.725986 105.108 0.737298H82.1935C81.5836 0.737298 80.9986 0.982696 80.5673 1.41965C80.136 1.85661 79.8938 2.44928 79.8938 3.06724ZM102.808 5.3549V14.6748H84.4514V5.3549H102.808ZM75.294 19.2924H112.007C113.216 19.3144 114.369 19.8139 115.22 20.6842C116.072 21.5546 116.554 22.7271 116.565 23.9524V47.21C116.565 48.4347 116.085 49.6091 115.23 50.475C114.375 51.341 113.216 51.8276 112.007 51.8276H75.294C74.692 51.8332 74.0948 51.7179 73.537 51.4884C72.9792 51.2588 72.4718 50.9195 72.0442 50.4902C71.6165 50.0608 71.277 49.5499 71.0454 48.9869C70.8137 48.4238 70.6944 47.82 70.6945 47.21V23.9524C70.7054 22.7199 71.1935 21.541 72.0537 20.6695C72.914 19.798 74.0775 19.3034 75.294 19.2924Z" fill="#0095F6"/>
<path fill-rule="evenodd" clip-rule="evenodd" d="M76.2991 92.4541C76.2929 91.8043 76.1798 91.1599 75.9645 90.5477H85.4981C87.2382 90.5428 88.906 89.8425 90.1394 88.5991C90.7579 87.9881 91.2425 87.2519 91.5612 86.4385C91.8914 85.6328 92.0619 84.7691 92.063 83.8967C92.062 83.0105 91.8916 82.133 91.5612 81.3125C91.2321 80.5047 90.7488 79.7705 90.1394 79.152C89.5178 78.5485 88.7958 78.0609 88.0069 77.7116C87.2116 77.3771 86.3592 77.2044 85.4981 77.2033H59.2807L64.0893 75.0851C64.9901 74.7202 65.7864 74.1326 66.4056 73.3759C67.0248 72.6192 67.4473 71.7175 67.6343 70.753C67.8214 69.7885 67.7671 68.7919 67.4766 67.8541C67.1861 66.9162 66.6685 66.067 65.971 65.3839C65.1632 64.6118 64.1675 64.0709 63.0858 63.8164C61.993 63.5965 60.8609 63.6995 59.8243 64.113L37.8718 72.5857C33.2466 74.3921 29.3906 77.7803 26.9716 82.1637C24.5526 86.5472 23.7229 91.6498 24.6262 96.5877C25.5295 101.526 28.109 105.988 31.9178 109.202C35.7266 112.416 40.525 114.179 45.4819 114.187H63.2529C64.1554 114.193 65.0456 113.974 65.8455 113.551C66.65 113.136 67.3397 112.525 67.8525 111.772C68.3834 111.034 68.728 110.176 68.8562 109.272C68.9709 108.358 68.8706 107.429 68.5634 106.561H69.2742C70.0147 106.563 70.7479 106.414 71.4304 106.123C72.1128 105.832 72.7305 105.405 73.2466 104.867C74.3076 103.802 74.909 102.355 74.9191 100.842V100.037C74.9177 98.9435 74.6136 97.872 74.0411 96.9447C74.7353 96.424 75.2947 95.7409 75.6718 94.9536C76.0521 94.1613 76.2522 93.2927 76.2572 92.4117L76.2991 92.4541ZM88.2996 83.9815C88.301 83.6032 88.2278 83.2284 88.0842 82.8792C87.9406 82.53 87.7296 82.2133 87.4635 81.948C87.2094 81.6796 86.9042 81.4662 86.5665 81.3206C86.2287 81.1749 85.8652 81.1002 85.4981 81.1008H59.2807C58.4142 81.0931 57.577 80.7826 56.9102 80.2219C56.2435 79.6613 55.7881 78.8848 55.621 78.0235C55.4539 77.1621 55.5854 76.2686 55.9931 75.494C56.4008 74.7195 57.0599 74.1112 57.859 73.7719L62.7095 71.7808C63.215 71.5797 63.621 71.1835 63.8384 70.6793C64.0272 70.1597 64.0272 69.589 63.8384 69.0695C63.6256 68.5667 63.239 68.1601 62.7512 67.9257C62.2422 67.7138 61.6712 67.7138 61.1622 67.9257L39.2516 76.3984C35.449 77.8841 32.2784 80.6695 30.2881 84.2729C28.2979 87.8762 27.6131 92.0708 28.3522 96.1315C29.0913 100.192 31.2079 103.863 34.3358 106.511C37.4638 109.158 41.4063 110.614 45.4819 110.628H63.2529C63.752 110.628 64.2306 110.427 64.5835 110.07C64.9364 109.712 65.1346 109.227 65.1346 108.722C65.1346 108.216 64.9364 107.731 64.5835 107.374C64.2306 107.016 63.752 106.815 63.2529 106.815H56.7718V103.003H69.3161C69.5647 103.008 69.8119 102.963 70.0428 102.869C70.2736 102.776 70.4835 102.635 70.6594 102.457C70.8352 102.279 70.9735 102.066 71.0661 101.833C71.1586 101.599 71.2035 101.348 71.1977 101.096V100.291C71.1972 99.7851 71.0023 99.2989 70.6541 98.9357C70.291 98.5903 69.8141 98.394 69.3161 98.385H60.9532V94.5723H70.6959C70.9445 94.5781 71.1918 94.5328 71.4227 94.439C71.6536 94.3453 71.8633 94.2051 72.0392 94.0269C72.2151 93.8487 72.3535 93.6362 72.446 93.4023C72.5385 93.1684 72.5833 92.9178 72.5776 92.6659C72.5833 92.414 72.5385 92.1636 72.446 91.9296C72.3535 91.6957 72.2151 91.4833 72.0392 91.3051C71.8633 91.1269 71.6536 90.9867 71.4227 90.8929C71.1918 90.7992 70.9445 90.7538 70.6959 90.7596H60.9532V86.9468H79.1423C79.0086 86.6545 78.9374 86.3369 78.9333 86.0148C79.177 85.1957 79.6747 84.478 80.3525 83.9678C81.0303 83.4575 81.8522 83.182 82.6966 83.182C83.5411 83.182 84.363 83.4575 85.0408 83.9678C85.7186 84.478 86.2161 85.1957 86.4598 86.0148C86.5185 86.2941 86.5185 86.5829 86.4598 86.8621C87.0536 86.6907 87.5708 86.3166 87.9234 85.8031C88.2735 85.2351 88.4071 84.5573 88.2996 83.8967V83.9815Z" fill="#0095F6"/>
<path d="M88.2993 102.282C88.2993 103.799 87.7046 105.254 86.646 106.326C85.5874 107.399 84.1516 108.001 82.6545 108.001C81.1574 108.001 79.7216 107.399 78.663 106.326C77.6044 105.254 77.0098 103.799 77.0098 102.282C77.0098 99.2323 82.6545 92.4541 82.6545 92.4541C82.6545 92.4541 88.2993 99.4441 88.2993 102.282Z" fill="#0095F6"/>
</svg>
