<svg width="136" height="111" viewBox="0 0 146 83" fill="none" xmlns="http://www.w3.org/2000/svg">
<path fill-rule="evenodd" clip-rule="evenodd" d="M47.5285 4.66699C38.5307 4.66699 31.116 12.2304 31.116 21.7116C31.116 31.1928 38.5307 38.7562 47.5285 38.7562C56.5263 38.7562 63.9411 31.1928 63.9411 21.7116C63.9411 12.2304 56.5263 4.66699 47.5285 4.66699ZM26.866 21.7116C26.866 10.0186 36.0503 0.416992 47.5285 0.416992C59.0067 0.416992 68.1911 10.0186 68.1911 21.7116C68.1911 33.4046 59.0067 43.0062 47.5285 43.0062C36.0503 43.0062 26.866 33.4046 26.866 21.7116ZM21.3537 61.6199C20.7059 64.8465 20.471 69.1279 20.3265 74.9251L16.0778 74.8191C16.2215 69.0544 16.4564 64.4216 17.1869 60.7833C17.925 57.1071 19.219 54.1778 21.6807 52.0662C24.1022 49.9893 27.3663 48.9549 31.4828 48.4036C35.5924 47.8532 40.8492 47.7511 47.4945 47.7733C54.1399 47.7511 59.3967 47.8532 63.5063 48.4036C67.6228 48.9549 70.8869 49.9893 73.3084 52.0662C75.7701 54.1778 77.0641 57.1071 77.8022 60.7833C78.5328 64.4216 78.7676 69.0544 78.9113 74.8191L74.6627 74.9251C74.5182 69.1279 74.2833 64.8465 73.6354 61.6199C72.9952 58.4313 72.0022 56.5451 70.5414 55.2921C69.0404 54.0046 66.7464 53.1255 62.9422 52.616C59.1642 52.11 54.1907 52.0014 47.5459 52.0231V52.0235L47.4945 52.0233L47.4431 52.0235V52.0231C40.7984 52.0014 35.8249 52.11 32.0469 52.616C28.2428 53.1255 25.9488 54.0046 24.4477 55.2921C22.9869 56.5451 21.994 58.4313 21.3537 61.6199ZM101.023 18.5199C102.096 18.9579 103.091 19.5659 103.97 20.3193C104.161 20.4835 104.347 20.6546 104.527 20.8323L106.095 22.451L107.686 20.8323C107.863 20.6596 108.046 20.493 108.234 20.3328C109.118 19.5788 110.116 18.9667 111.191 18.5199C112.505 17.9675 113.916 17.6844 115.341 17.6875L115.364 17.7569C116.792 17.7501 118.205 18.0414 119.514 18.6125C120.82 19.1501 122.01 19.9352 123.019 20.9248C125.044 23.0286 126.177 25.8391 126.177 28.7638C126.177 31.6885 125.044 34.4989 123.019 36.6027L108.224 51.724L106.118 53.8762L104.02 51.717L89.2177 36.4872C87.1934 34.3872 86.0618 31.5806 86.0618 28.6597C86.0618 25.7389 87.1934 22.9323 89.2177 20.8323C90.2238 19.839 91.4145 19.0534 92.7223 18.5199C94.0373 17.9704 95.4478 17.6875 96.8725 17.6875C98.2971 17.6875 99.7076 17.9704 101.023 18.5199ZM99.8859 21.307C100.819 21.6875 101.669 22.2463 102.391 22.9526L103.933 24.5452L106.079 26.7611L108.242 24.5609L109.808 22.9672C110.543 22.2566 111.404 21.691 112.346 21.2995L112.357 21.2947C112.965 21.039 113.602 20.8638 114.252 20.7722L115.378 20.7669C116.387 20.762 117.385 20.9678 118.311 21.3714L118.339 21.3839L118.368 21.3957C119.302 21.7802 120.154 22.3394 120.88 23.0439C122.347 24.5825 123.167 26.631 123.167 28.7638C123.167 30.9074 122.338 32.9658 120.858 34.507L106.125 49.5648L91.3848 34.3981L91.3808 34.394C89.9006 32.8564 89.0718 30.8007 89.0718 28.6597C89.0718 26.5294 89.8924 24.4834 91.3589 22.9483C92.0791 22.244 92.9282 21.6867 93.8591 21.307L93.871 21.3022L93.8829 21.2972C94.8304 20.9013 95.8464 20.6975 96.8725 20.6975C97.8985 20.6975 98.9146 20.9013 99.8621 21.2972L99.874 21.3022L99.8859 21.307ZM2.08569 79.0742H0.460693V80.6992V81.2542V82.8792H2.08569H143.746H145.371V81.2542V80.6992V79.0742H143.746H2.08569Z" fill="#0095F6"/>
</svg>
