<svg width="65" height="93" viewBox="0 0 65 93" fill="none" xmlns="http://www.w3.org/2000/svg">
<path d="M36.1742 65.073L36.18 65.0705C36.7566 64.82 37.3607 64.6513 37.9762 64.5673L38.9363 64.5625C39.8647 64.5579 40.7855 64.7536 41.6404 65.1389L41.6549 65.1454L41.6696 65.1517C42.5279 65.5168 43.314 66.0503 43.9844 66.7256C45.3362 68.1842 46.0996 70.1386 46.0996 72.1821C46.0996 74.231 45.3321 76.1904 43.9736 77.6502L31.5141 90.8074L19.0506 77.558C19.0499 77.5572 19.0492 77.5565 19.0485 77.5558C17.6904 76.0991 16.923 74.1423 16.923 72.0959C16.923 70.0548 17.6864 68.1029 19.0379 66.6474C19.7045 65.9709 20.4891 65.4383 21.3466 65.077L21.3466 65.077L21.3587 65.0718C22.2265 64.6971 23.1553 64.505 24.092 64.505C25.0288 64.505 25.9577 64.6971 26.8254 65.0718L26.8254 65.0719L26.8375 65.077C27.6958 65.4386 28.481 65.9718 29.148 66.6492L30.3939 67.9782L31.4839 69.1409L32.5823 67.9862L33.8471 66.6566C34.5225 65.9795 35.3124 65.443 36.1742 65.073Z" stroke="#0095F6" stroke-width="3.01"/>
<path d="M2.95703 80C3.53932 55.3832 5.58898 53.3154 32.607 53.4138M62.1388 80C61.5566 55.3832 59.5069 53.3154 32.4888 53.4138M51.3091 23.4074C51.3091 34.678 42.9251 43.8147 32.5828 43.8147C22.2406 43.8147 13.8566 34.678 13.8566 23.4074C13.8566 12.1367 22.2406 3 32.5828 3C42.9251 3 51.3091 12.1367 51.3091 23.4074Z" stroke="#0095F6" stroke-width="4.25" stroke-miterlimit="10"/>
</svg>
