<svg width="60" height="80" viewBox="0 0 60 80" fill="none" xmlns="http://www.w3.org/2000/svg">
<path d="M27.3594 0.151608C23.2969 0.620358 19.1406 2.38598 15.8437 5.04223C10.0781 9.68286 6.92187 17.136 7.67187 24.3547C7.92187 26.7454 7.92187 27.511 7.67187 28.4172C6.98437 30.9016 9.09375 33.5735 11.75 33.5735C12.7031 33.5735 12.6875 33.5579 12.8906 34.6672C13.0937 35.7766 13.7969 37.7454 14.4219 38.9954L15.0625 40.2922L14.8906 41.3235C14.6719 42.6047 13.9062 44.1985 12.0781 47.2454C9.90625 50.8704 9.23437 52.636 8.90625 55.6516C8.8125 56.5266 8.6875 57.2922 8.625 57.3391C8.5625 57.386 7.6875 57.7297 6.67187 58.1047C5.65625 58.4641 4.4375 59.0266 3.9375 59.3391C2.78125 60.0891 1.5625 61.4641 0.9375 62.7297C0.0625 64.511 0 65.1516 0 72.5266V79.2141L0.390625 79.5891C0.875 80.0891 1.46875 80.0891 1.95312 79.5891L2.34375 79.2141V72.511C2.34375 66.261 2.35937 65.7297 2.65625 64.7922C3.1875 63.0579 4.23437 61.7766 5.75 61.011C6.48437 60.636 15.7344 57.3235 16.0312 57.3235C16.2031 57.3235 17.1875 58.6047 17.1875 58.8235C17.1875 58.886 16.75 59.6047 16.2187 60.4172C15.3594 61.7141 15.25 61.9641 15.2656 62.6047C15.2812 63.4954 15.9687 65.0422 16.4844 65.386C17.0469 65.761 17.7812 65.5422 18.0781 64.9172C18.2969 64.4329 18.2969 64.3547 17.9844 63.6516C17.8125 63.2454 17.6562 62.8079 17.6562 62.6985C17.6562 62.5891 18.1406 61.7454 18.75 60.8235C19.4375 59.7922 19.8437 59.011 19.8437 58.7454C19.8437 58.4485 19.4062 57.7297 18.4219 56.4172C17.5 55.1829 17.0312 54.4329 17.0937 54.261C17.2031 53.9641 21.7187 51.7922 21.8906 51.9641C21.9531 52.0266 23.5312 56.136 25.375 61.0891L28.75 70.0891V74.4016C28.75 76.9954 28.8125 78.886 28.9062 79.136C29.2344 79.9954 29.9687 80.2141 30.6875 79.6516L31.0937 79.3391V70.4016L34.5625 61.2454C36.4531 56.2141 38.0625 52.0266 38.125 51.9641C38.1875 51.9016 39.2656 52.3391 40.5156 52.9329C42.4375 53.8391 42.8125 54.0891 42.8125 54.3704C42.8125 54.5579 42.2187 55.511 41.4844 56.4954C40.5312 57.7922 40.1562 58.4172 40.1562 58.7454C40.1562 59.0579 40.5156 59.7454 41.25 60.8391C41.8594 61.7297 42.3437 62.5422 42.3437 62.636C42.3437 62.7141 40.8594 66.011 39.0312 69.9329C34.8906 78.9016 35 78.6672 35.1719 79.1985C35.4531 79.9641 36.4531 80.2141 37 79.6204C37.1719 79.4329 38.9844 75.6829 41 71.2922C44.9375 62.7766 45 62.6047 44.4375 61.4954C44.2812 61.2141 43.8437 60.4954 43.4375 59.9016L42.6875 58.7922L43.2344 58.0579C43.5312 57.6516 43.8437 57.3235 43.9375 57.3235C44.3125 57.3235 53.8906 60.8079 54.5156 61.1829C56.0312 62.0579 57.1562 63.7141 57.4844 65.511C57.5937 66.0891 57.6562 68.886 57.6562 72.886V79.3391L58.0625 79.6516C58.8125 80.2454 59.7031 79.9172 59.9375 78.9954C59.9844 78.7766 60 75.5579 59.9687 71.8391C59.8906 64.386 59.8906 64.3079 58.875 62.4797C58.1719 61.2297 57.4062 60.3547 56.3437 59.5891C55.1875 58.7766 54.6406 58.5422 49.3594 56.6985L45.1875 55.2297L45.125 54.2454C45.0312 52.7766 44.5937 52.3235 42.0937 51.1204C40.9844 50.5735 39.7656 49.9797 39.375 49.7922L38.6719 49.4329L38.5781 46.4016L39.7187 45.636C43.25 43.2454 45.8125 39.5735 46.8594 35.4172L47.2969 33.6516L48.375 33.5579C50.0937 33.4172 51.3437 32.5735 52.0156 31.0735C52.4062 30.2297 52.4531 28.5579 52.125 27.7766C51.9531 27.3704 51.9375 27.0579 52.0469 26.4641C52.3437 24.9641 52.4687 22.4954 52.3437 20.8079C51.375 8.05786 40.0312 -1.31714 27.3594 0.151608ZM32.3594 2.49536C41.3125 3.65161 48.25 10.261 49.7812 19.1047C50.0469 20.5735 50.125 24.0422 49.9375 24.9329C49.8281 25.386 49.7812 25.4172 49.4375 25.2922C49.2187 25.1985 48.5469 25.0891 47.9531 25.0422L46.875 24.9329L45.2656 23.2141C43.5312 21.3391 41.0781 19.1672 39.1094 17.761C35.6719 15.2766 30.7969 12.8547 27.125 11.7766C25.9687 11.4485 25.8594 11.386 25.9219 11.0422C25.9687 10.8547 26 10.3704 26 9.99536C26.0156 9.43286 25.9375 9.26098 25.5937 8.99536C25.1406 8.65161 24.5781 8.71411 24.1562 9.12036C24.0312 9.26098 23.7656 9.87036 23.5781 10.4954C22.25 15.0266 18.9219 20.0735 14.9375 23.6204L13.4687 24.9329L12.2344 25.0266C11.5469 25.0735 10.7969 25.1985 10.5625 25.2766C9.96875 25.511 9.92187 25.3079 9.92187 22.636C9.9375 19.0735 10.4844 16.6516 11.9531 13.636C15.6719 5.99536 24.0469 1.41723 32.3594 2.49536ZM28.0937 14.6047C34.0469 16.761 40.1719 20.8547 43.8281 25.136C45.2031 26.7454 45.8906 27.1672 47.4375 27.3391C48.8594 27.4954 49.5156 27.8391 49.8906 28.6047C50.125 29.0891 50.1406 29.2922 50 29.8079C49.7656 30.7141 49.0781 31.2297 48.1094 31.2297C47.4687 31.2297 47.3437 31.1829 47.3437 30.9485C47.3437 30.5266 46.7812 30.0891 46.25 30.0891C45.5312 30.0891 45.1875 30.511 45.0625 31.5579L44.9687 32.4641L39.0312 32.5579L38.6562 32.9954C38.2031 33.5266 38.1875 33.8704 38.6094 34.4172C38.8437 34.7141 39.0781 34.8235 39.4687 34.8235H40V36.9016C40 39.1829 39.7969 40.2454 39.0781 41.7766C38.0781 43.9016 36.3437 45.6047 34.1406 46.6204C32.6719 47.3079 31.625 47.5266 29.9375 47.5266C25.5625 47.511 21.75 44.7297 20.3906 40.5422C20 39.3391 19.9531 38.9485 19.9375 37.0422L19.9219 34.9016L27.4062 34.8547C34.8594 34.8235 34.9062 34.8235 35.2656 34.4797C35.4687 34.2922 35.625 33.9641 35.625 33.7297C35.625 33.386 35.5 33.1829 34.9531 32.6047C34.9375 32.5891 30.4219 32.5266 24.9219 32.4797L14.9219 32.4016L14.8437 31.5422C14.75 30.5266 14.6719 30.3704 14.0937 30.1672C13.5312 29.9641 13.0156 30.1829 12.6875 30.761C12.4531 31.1672 12.3281 31.2297 11.7656 31.2297C10.625 31.2297 9.70312 30.1047 9.90625 28.9954C10.1094 27.9329 11.1719 27.3391 12.9062 27.3235C14.0625 27.3235 14.9844 26.7766 16.8906 24.9954C19.8594 22.1985 22.5781 18.5891 24.1094 15.4016L24.9219 13.7141L25.5156 13.8079C25.8437 13.8547 27.0156 14.2141 28.0937 14.6047ZM17.5469 37.0422C17.5937 38.2766 17.6875 39.4485 17.7344 39.6672L17.8437 40.0579L17.5156 39.6672C16.7656 38.761 15.1875 35.1672 15.4219 34.9172C15.4844 34.8704 15.9531 34.8235 16.4844 34.8235H17.4531L17.5469 37.0422ZM44.5312 35.0422C44.5312 35.5422 43.6719 37.6204 43 38.761C42.6094 39.4329 42.2656 39.9641 42.25 39.9329C42.2344 39.9172 42.2656 39.1985 42.3437 38.3391C42.4219 37.4797 42.4844 36.3391 42.5 35.7922V34.8235H43.5156C44.2969 34.8235 44.5312 34.8704 44.5312 35.0422ZM18.1875 43.9954C18.7969 44.5891 19.7344 45.3391 20.2812 45.6829L21.25 46.3079L21.2187 47.9172L21.1719 49.5266L18.6719 50.6985C15.4062 52.2297 14.8125 52.8079 14.7812 54.4485V55.2454L13.125 55.8079C12.2187 56.136 11.4062 56.386 11.3125 56.386C11.0625 56.386 11.3281 54.6985 11.8125 53.1047C12.3125 51.4797 12.6719 50.761 14.6719 47.4172C15.5469 45.9641 16.4062 44.3704 16.5781 43.8547C16.7656 43.3547 16.9531 42.9485 17 42.9485C17.0312 42.9485 17.5781 43.4172 18.1875 43.9954ZM24.7031 48.7297C26.3125 49.4797 27.9687 49.8391 29.8594 49.8547C32.0156 49.8704 34.1719 49.3704 35.5469 48.5422C35.8125 48.386 36.0625 48.261 36.1406 48.261C36.2031 48.261 36.25 48.6985 36.25 49.2297C36.25 50.1047 35.9687 50.9485 33.1719 58.3704C31.4687 62.8547 30.0469 66.5422 30 66.5422C29.9531 66.5422 28.5 62.7297 26.75 58.0579C24.4062 51.8079 23.5781 49.4172 23.5937 48.9172C23.5937 48.5579 23.625 48.261 23.6562 48.261C23.6875 48.261 24.1562 48.4641 24.7031 48.7297Z" fill="#FBFBFB"/>
<path d="M20.8594 23.8704C20.0469 24.2141 19.8281 25.2766 20.4531 25.7922C20.75 26.0266 21.0938 26.0735 22.4844 26.0735C24.0312 26.0735 24.1875 26.0422 24.5 25.7141C24.9219 25.261 24.9375 24.6672 24.5469 24.1829C24.2656 23.8391 24.1094 23.8079 22.7031 23.7766C21.8594 23.7454 21.0312 23.7922 20.8594 23.8704Z" fill="#FBFBFB"/>
<path d="M35.9375 23.8391C35.125 24.1516 34.875 25.1672 35.4688 25.761C35.75 26.0422 35.9844 26.0735 37.5 26.0735C39.4688 26.0735 39.8438 25.886 39.8438 24.9329C39.8438 24.0266 39.4375 23.8079 37.6719 23.7766C36.8438 23.761 36.0625 23.7766 35.9375 23.8391Z" fill="#FBFBFB"/>
<path d="M22.0312 27.6829C21.4531 27.9797 21.2344 28.5266 21.2969 29.5422C21.3594 30.636 21.6875 31.0735 22.4531 31.0735C23.2969 31.0735 23.5938 30.636 23.5938 29.3704C23.5938 28.5735 23.5312 28.2141 23.3281 27.9797C22.9531 27.5579 22.5 27.4485 22.0312 27.6829Z" fill="#FBFBFB"/>
<path d="M37.1875 27.5891C36.4219 27.8704 36.0625 29.0266 36.3906 30.1516C36.6719 31.0891 37.6406 31.4016 38.2812 30.761C38.7188 30.3235 38.7344 28.2766 38.3281 27.9172C37.9844 27.6204 37.5 27.4797 37.1875 27.5891Z" fill="#FBFBFB"/>
<path d="M18.1406 67.886C17.7188 68.4329 17.7188 68.6204 18.2656 69.761C19.1094 71.5422 19.2344 71.386 16.8906 71.386H14.8438V70.4797C14.8438 69.7297 14.7812 69.511 14.4844 69.2297C14.0469 68.8079 13.4375 68.7922 12.9531 69.1829C12.6719 69.4016 12.5938 69.6672 12.5312 70.4329L12.4688 71.386H9.73438C7.0625 71.386 7.01562 71.386 6.64062 71.7766L6.25 72.1516V79.2141L6.64062 79.5891L7.01562 79.9797H13.6406C21.7188 79.9797 21.0938 80.1672 21.0938 77.761C21.0938 76.886 21.1406 76.2297 21.2031 76.2922C21.2656 76.3547 21.625 77.0579 21.9844 77.8391C22.75 79.511 23.1094 79.9797 23.6406 79.9797C24.2188 79.9797 24.8438 79.4172 24.8438 78.886C24.8438 78.4172 20.2656 68.3235 19.8125 67.7922C19.4062 67.3235 18.5469 67.3704 18.1406 67.886ZM18.75 77.636H8.59375V73.7297H18.75V77.636Z" fill="#FBFBFB"/>
</svg>
