<svg width="80" height="80" viewBox="0 0 80 80" fill="none" xmlns="http://www.w3.org/2000/svg">
<path d="M38.2031 0.09375C35.8281 0.46875 29.8125 1.8125 29.3281 2.07812C27.9688 2.82812 27.6406 4.34375 28.375 6.375L28.7969 7.51562L28.4531 7.75C25.625 9.73438 23.7344 12.875 23.2969 16.3281C23.2188 17.0156 22.9219 21.2344 22.6406 25.6875C22.0781 34.6406 22.0781 34.7656 22.9688 36.6719C23.7812 38.4531 25.6094 39.9844 27.5625 40.5469C28.0156 40.6875 29.0469 40.8438 29.8594 40.9062L31.3281 41.0156L31.375 43.2031C31.4062 44.9062 31.3594 45.5312 31.1719 46.0469C30.8281 46.9531 30.6875 47.0312 29.7656 46.8438C29.0156 46.7031 28.6875 46.7812 20.9375 49.1406C16.5156 50.4688 12.5781 51.7188 12.1875 51.9062C11.2344 52.375 10.2031 53.4375 9.73438 54.4844C9.45312 55.0938 9.125 56.5156 8.65625 59.2656C8.28125 61.4219 7.96875 63.4219 7.96875 63.7031C7.96875 65.0938 9.92188 65.25 10.2344 63.875C10.2656 63.6719 10.5938 61.8281 10.9375 59.7812C11.2812 57.7344 11.6875 55.8125 11.8125 55.5312C12.1719 54.7812 13.125 53.9844 14 53.6875C14.4219 53.5625 18.0312 52.4531 22.0312 51.25C28.7969 49.2188 29.3125 49.0781 29.5 49.3438C29.6094 49.4844 31.3281 52.8281 33.2969 56.7656C35.2812 60.7031 37.1094 64.1562 37.3594 64.4375C38.0312 65.2031 39.2344 65.6875 40.25 65.5781C41.2344 65.4844 42.1719 65.0156 42.7031 64.375C42.9375 64.1094 44.7344 60.6875 46.7031 56.75C48.6875 52.8281 50.3906 49.4844 50.5 49.3438C50.6875 49.0781 51.2031 49.2188 57.9688 51.25C61.9688 52.4531 65.5781 53.5625 66 53.6875C66.875 53.9844 67.8281 54.7812 68.1875 55.5312C68.4219 56.0312 71.875 75.75 71.875 76.6094C71.875 76.8438 71.7344 77.1719 71.5625 77.3438C71.2656 77.6406 71.0469 77.6562 67.4375 77.6562H63.625L63.5312 77.2344C63.4844 76.9844 63.0469 74.4844 62.5781 71.6719C62.0938 68.8594 61.6406 66.3906 61.5625 66.1875C61.375 65.6875 60.6562 65.4062 60.1094 65.6094C59.25 65.9375 59.2656 66.0938 60.2188 71.8281C60.7188 74.7344 61.1562 77.2344 61.1875 77.375C61.2656 77.6406 60.1875 77.6562 40 77.6562C19.8125 77.6562 18.7344 77.6406 18.8125 77.375C18.8438 77.2344 19.2812 74.7344 19.7812 71.8281C20.7344 66.0938 20.75 65.9375 19.8906 65.6094C19.3438 65.4062 18.625 65.6875 18.4375 66.1875C18.3594 66.3906 17.9062 68.8594 17.4219 71.6719C16.9531 74.4844 16.5156 76.9844 16.4688 77.2188L16.375 77.6562H12.5625C8.95312 77.6562 8.73438 77.6406 8.4375 77.3438C8.01562 76.9219 8.03125 76.6875 8.67188 73.0156C8.96875 71.2812 9.21875 69.6094 9.21875 69.2969C9.21875 67.8906 7.42188 67.6562 7.03125 69.0312C6.76562 70 5.78125 75.9688 5.78125 76.6562C5.78125 77.9531 6.51562 79.0625 7.71875 79.625L8.51562 80H40H71.4844L72.2812 79.625C73.4844 79.0625 74.2188 77.9531 74.2188 76.6719C74.2188 75.8281 70.8438 56.0625 70.5312 55.1406C70.0469 53.6406 68.8906 52.3594 67.5 51.7656C67.2188 51.6406 63.375 50.4375 58.9844 49.1094C51.3125 46.7812 50.9844 46.7031 50.2344 46.8438C49.3125 47.0312 49.1719 46.9531 48.8281 46.0469C48.6406 45.5312 48.5938 44.9062 48.625 43.2031L48.6719 41.0156L50.1406 40.9062C50.9531 40.8438 52 40.6719 52.4844 40.5312C54.4062 39.9844 56.2188 38.4375 57.0312 36.6719C57.9219 34.7656 57.9219 34.625 57.3594 25.9219C56.8906 18.4531 56.8438 18.0312 56.5312 17.7031C56.0469 17.1875 55.2812 17.2188 54.8438 17.7656C54.4844 18.2188 54.4844 18.5156 54.7812 21.8281L54.875 22.8125H54.3125C54.0156 22.8125 53.7031 22.7188 53.6406 22.6094C53.3438 22.0938 52.6562 21.875 50.625 21.6406C46 21.0938 42.5 20.1406 39.6094 18.6719C37.6562 17.6875 36.6562 16.9688 34.8906 15.2812C33.6562 14.0938 33.5938 14.0625 32.8438 14.0625C31.1406 14.0625 28.5625 15.8594 27.1875 17.9844C26.5938 18.9062 25.9375 20.7188 25.9375 21.4531C25.9375 22.2969 25.75 22.8125 25.4375 22.8125C25.1562 22.8125 25.1406 22.7344 25.2188 21.75C25.2812 21.1719 25.3906 19.6875 25.4688 18.4375C25.5469 17.1875 25.7344 15.75 25.8594 15.25C26.2656 13.7188 27.1406 12.2188 28.4062 10.9375C29.4688 9.85938 29.5781 9.79688 29.7344 10.0625C30.3438 11.0469 30.9531 11.6719 31.7031 12.0625L32.5312 12.5H40.1562H47.7812L48.6094 12.0625C49.3594 11.6719 50.2969 10.7188 50.5156 10.125C50.625 9.79688 52.3906 11.625 53.0625 12.7656C53.9219 14.2344 54.5469 14.5625 55.3281 13.9219C56.2188 13.2031 55.3438 11.3906 52.9844 9.0625L51.4688 7.57812L51.8906 6.48438C52.6875 4.45312 52.3594 2.84375 50.9844 2.07812C50.625 1.875 48.8906 1.4375 46.4062 0.9375C43.1562 0.265625 42.0781 0.109375 40.5469 0.078125C39.5156 0.046875 38.4688 0.0625 38.2031 0.09375ZM45.8594 3.20312C47.9219 3.60938 49.7031 4.03125 49.8125 4.125C50.125 4.35938 49.9844 4.9375 49.0469 7.32812C48.5625 8.59375 48.0781 9.57812 47.8438 9.79688L47.4531 10.1562H40.1094H32.7812L32.3906 9.71875C32.1719 9.48438 31.6406 8.375 31.2188 7.26562C30.1562 4.48438 30.1406 4.4375 30.4219 4.1875C30.5625 4.07812 32.4688 3.60938 34.6719 3.17188C39.7969 2.10938 40.4375 2.125 45.8594 3.20312ZM33.875 17.5156C36.4219 19.875 39.4219 21.5156 43.0781 22.5469C44.9375 23.0781 48.1562 23.7031 50.1875 23.9219C51.625 24.0781 51.875 24.1406 51.9688 24.4062C52.0938 24.7969 52.9375 25.1562 53.75 25.1562C54.8438 25.1562 55 25.4688 55 27.5781C55 29.6406 54.8281 30 53.8438 30C52.9375 30 52.3281 30.1875 52.1094 30.5312C51.9844 30.7031 51.8125 31.3281 51.7188 31.9219C51.2812 34.7188 49.5156 37.3594 46.4062 39.875C44.1875 41.6719 42.4375 42.3438 40 42.3438C37.5625 42.3438 35.8125 41.6719 33.5938 39.875C30.4844 37.3594 28.7188 34.7188 28.2812 31.9219C28.1875 31.3281 28.0156 30.7031 27.8906 30.5312C27.6719 30.1875 27.0625 30 26.1562 30C25.1719 30 25 29.625 25 27.6094C25 25.4062 25.0625 25.3125 26.5 25.1406C27.8438 24.9688 28.125 24.7031 28.125 23.5312C28.1406 21.1719 28.8125 19.3438 30.125 18.0469C30.8594 17.3281 32.2344 16.4062 32.5469 16.4062C32.625 16.4062 33.2188 16.9062 33.875 17.5156ZM25.5 32.2969C25.8594 32.3594 25.9375 32.4844 26.0938 33.1875C26.3438 34.2188 27.4531 36.5781 28.1875 37.5781C28.5 38.0156 28.6719 38.3906 28.5781 38.4219C28.4844 38.4531 27.9375 38.2344 27.375 37.9531C25.5156 36.9844 24.5312 35.3125 24.5312 33.1094C24.5312 32.1094 24.5625 32.0156 24.8125 32.1094C24.9531 32.1719 25.2656 32.2656 25.5 32.2969ZM55.4688 33.125C55.4688 35.3125 54.4844 36.9844 52.625 37.9531C52.0625 38.2344 51.5156 38.4531 51.4219 38.4219C51.3281 38.3906 51.5 38.0156 51.8125 37.5781C52.5469 36.5625 53.6562 34.2188 53.9062 33.1562C54.0625 32.4844 54.1562 32.3438 54.4219 32.3438C54.6094 32.3438 54.875 32.2656 55 32.1875C55.4219 31.9219 55.4688 32.0156 55.4688 33.125ZM37.5312 44.4375C40.0469 44.9531 42.6875 44.6562 44.9688 43.5938L46.25 42.9844V44.375C46.25 46.0156 46.5938 47.1094 47.4531 48.2344L48 48.9531L47.5938 49.7969L47.1875 50.625H40H32.8125L32.4062 49.7969L32 48.9531L32.5469 48.2344C33.4062 47.1094 33.75 46.0156 33.75 44.375V42.9844L35.0469 43.5938C35.75 43.9219 36.875 44.2969 37.5312 44.4375ZM45.9375 53.0781C45.9219 53.1562 44.7812 55.4219 43.3906 58.125C40.6562 63.4375 40.5781 63.5469 39.5781 63.1875C39.2031 63.0625 38.7656 62.3125 36.6094 58.125C35.2188 55.4219 34.0781 53.1562 34.0625 53.0781C34.0625 53.0156 36.7344 52.9688 40 52.9688C43.2656 52.9688 45.9375 53.0156 45.9375 53.0781Z" fill="#E9E9E9"/>
<path d="M39.3125 3.29688C38.9844 3.5625 38.9063 3.75 38.9063 4.3125V5H38.2969C37.6406 5 36.9688 5.42188 36.8438 5.90625C36.7969 6.07812 36.8438 6.42188 36.9688 6.6875C37.1719 7.17188 37.4063 7.29688 38.3594 7.375C38.7969 7.42188 38.8281 7.46875 38.9219 8.1875C39.0156 9.03125 39.3281 9.375 40 9.375C40.6719 9.375 40.9844 9.03125 41.0781 8.1875C41.1719 7.46875 41.2031 7.42188 41.6406 7.375C42.5938 7.29688 42.8281 7.17188 43.0313 6.6875C43.1563 6.42188 43.2031 6.07812 43.1563 5.90625C43.0313 5.42188 42.3594 5 41.7031 5H41.0938V4.3125C41.0938 3.75 41.0156 3.5625 40.6875 3.29688C40.4531 3.10938 40.1563 2.96875 40 2.96875C39.8438 2.96875 39.5469 3.10938 39.3125 3.29688Z" fill="#E9E9E9"/>
</svg>
