<svg width="146" height="84" viewBox="0 0 146 84" fill="none" xmlns="http://www.w3.org/2000/svg">
<path d="M47.5288 41.3812C57.7668 41.3812 66.0663 32.7987 66.0663 22.2116C66.0663 11.6245 57.7668 3.04199 47.5288 3.04199C37.2908 3.04199 28.9912 11.6245 28.9912 22.2116C28.9912 32.7987 37.2908 41.3812 47.5288 41.3812Z" stroke="#0095F6" stroke-width="4.25" stroke-miterlimit="10"/>
<path d="M18.2021 75.3721C18.7786 52.2483 20.8076 50.306 47.5533 50.3985" stroke="#0095F6" stroke-width="4.25" stroke-miterlimit="10"/>
<path d="M111.768 20.4092L111.774 20.4068C112.575 20.0703 113.417 19.8502 114.276 19.7517L114.281 19.7666L115.371 19.7614C116.589 19.7556 117.795 20.0041 118.913 20.4915L118.927 20.4977L118.941 20.5036C120.061 20.9646 121.082 21.6368 121.95 22.4838C123.696 24.3051 124.672 26.7346 124.672 29.2633C124.672 31.7974 123.692 34.2317 121.939 36.0542C121.937 36.0556 121.936 36.057 121.935 36.0583L106.122 52.22L90.3015 35.9422C90.3007 35.9414 90.3 35.9407 90.2993 35.9399C88.5472 34.1211 87.567 31.6901 87.567 29.1592C87.567 26.6336 88.5431 24.2073 90.2885 22.3898C91.1517 21.541 92.1716 20.8696 93.2909 20.413L93.291 20.413L93.3028 20.4081C94.4341 19.9353 95.6474 19.692 96.8727 19.692C98.098 19.692 99.3114 19.9354 100.443 20.4081L100.443 20.4081L100.455 20.413C101.575 20.8699 102.595 21.5419 103.459 22.3915L105.014 23.9976L106.087 25.1056L107.169 24.0055L108.748 22.3988C109.621 21.5507 110.646 20.8757 111.768 20.4092Z" stroke="#0095F6" stroke-width="3.01"/>
<path d="M76.7868 75.3721C76.2103 52.2483 74.1813 50.306 47.4355 50.3985" stroke="#0095F6" stroke-width="4.25" stroke-miterlimit="10"/>
<path d="M143.745 81.1997H2.08545V81.7547H143.745V81.1997Z" stroke="#0095F6" stroke-width="3.25" stroke-miterlimit="10"/>
</svg>
