<svg width="26" height="24" viewBox="0 0 26 24" fill="none" xmlns="http://www.w3.org/2000/svg">
<path d="M20.5714 6.17143V1.07143C20.5711 0.787368 20.4581 0.515035 20.2573 0.314174C20.0564 0.113313 19.7841 0.000326107 19.5 0H6.21429C5.93023 0.000326107 5.65789 0.113313 5.45703 0.314174C5.25617 0.515035 5.14318 0.787368 5.14286 1.07143V6.17143L0 9.84461V24H25.7143V9.84461L20.5714 6.17143ZM23.4471 10.3322L20.5714 12.2121V8.27786L23.4471 10.3322ZM6.85714 1.71429H18.8571V13.333L15.7947 15.3354L13.2994 14.0416L10.5799 15.3544L6.85714 13.0942V1.71429ZM13.272 15.9584L24 21.5211V22.2857H1.71429V21.538L13.272 15.9584ZM1.71429 11.9772L8.73986 16.2429L1.71429 19.6344V11.9772ZM17.5418 16.2415L24 12.0186V19.5901L17.5418 16.2415ZM5.14286 8.27786V12.0536L2.28568 10.3187L5.14286 8.27786Z" fill="#E9E9E9"/>
</svg>
