<svg width="23" height="23" viewBox="0 0 23 23" fill="none" xmlns="http://www.w3.org/2000/svg">
<path d="M11.5 2.16772C14.5727 2.16772 14.9365 2.18094 16.1449 2.23382C17.268 2.2823 17.8744 2.46738 18.2787 2.62162C18.8133 2.82434 19.1996 3.07112 19.5994 3.46333C20.0037 3.85994 20.2508 4.23452 20.4574 4.75894C20.6147 5.15555 20.8033 5.75488 20.8527 6.85218C20.9066 8.04203 20.9201 8.39898 20.9201 11.4088C20.9201 14.4231 20.9066 14.7801 20.8527 15.9655C20.8033 17.0672 20.6147 17.6621 20.4574 18.0588C20.2508 18.5832 19.9992 18.9622 19.5994 19.3544C19.1951 19.751 18.8133 19.9934 18.2787 20.1961C17.8744 20.3503 17.2635 20.5354 16.1449 20.5839C14.932 20.6368 14.5682 20.65 11.5 20.65C8.42735 20.65 8.06348 20.6368 6.85508 20.5839C5.73203 20.5354 5.12559 20.3503 4.72129 20.1961C4.18672 19.9934 3.80039 19.7466 3.40059 19.3544C2.99629 18.9578 2.74922 18.5832 2.54258 18.0588C2.38535 17.6621 2.19668 17.0628 2.14727 15.9655C2.09336 14.7757 2.07988 14.4187 2.07988 11.4088C2.07988 8.39457 2.09336 8.03762 2.14727 6.85218C2.19668 5.75047 2.38535 5.15555 2.54258 4.75894C2.74922 4.23452 3.00078 3.85554 3.40059 3.46333C3.80488 3.06671 4.18672 2.82434 4.72129 2.62162C5.12559 2.46738 5.73653 2.2823 6.85508 2.23382C8.06348 2.18094 8.42735 2.16772 11.5 2.16772ZM11.5 0.136169C8.37793 0.136169 7.98711 0.14939 6.76074 0.202272C5.53887 0.255154 4.69883 0.449055 3.97109 0.726685C3.21191 1.01754 2.56953 1.40093 1.93164 2.03111C1.28926 2.65688 0.898438 3.28706 0.601953 4.0274C0.318945 4.74572 0.121289 5.56539 0.0673828 6.76405C0.0134766 7.97152 0 8.35491 0 11.4177C0 14.4804 0.0134766 14.8638 0.0673828 16.0669C0.121289 17.2655 0.318945 18.0896 0.601953 18.8035C0.898438 19.5483 1.28926 20.1784 1.93164 20.8042C2.56953 21.43 3.21192 21.8178 3.9666 22.1042C4.69883 22.3819 5.53438 22.5758 6.75625 22.6286C7.98262 22.6815 8.37344 22.6947 11.4955 22.6947C14.6176 22.6947 15.0084 22.6815 16.2348 22.6286C17.4566 22.5758 18.2967 22.3819 19.0244 22.1042C19.7791 21.8178 20.4215 21.43 21.0594 20.8042C21.6973 20.1784 22.0926 19.5483 22.3846 18.8079C22.6676 18.0896 22.8652 17.2699 22.9191 16.0713C22.9731 14.8682 22.9865 14.4848 22.9865 11.4221C22.9865 8.35932 22.9731 7.97592 22.9191 6.77286C22.8652 5.5742 22.6676 4.75012 22.3846 4.03622C22.1016 3.28705 21.7107 2.65688 21.0684 2.03111C20.4305 1.40534 19.7881 1.01754 19.0334 0.731092C18.3012 0.453461 17.4656 0.259561 16.2438 0.206679C15.0129 0.14939 14.6221 0.136169 11.5 0.136169Z" fill="#E9E9E9"/>
<path d="M11.5 5.62268C8.23867 5.62268 5.59277 8.21831 5.59277 11.4177C5.59277 14.617 8.23867 17.2127 11.5 17.2127C14.7613 17.2127 17.4072 14.617 17.4072 11.4177C17.4072 8.21831 14.7613 5.62268 11.5 5.62268ZM11.5 15.1767C9.38418 15.1767 7.66816 13.4933 7.66816 11.4177C7.66816 9.34205 9.38418 7.65864 11.5 7.65864C13.6158 7.65864 15.3318 9.34205 15.3318 11.4177C15.3318 13.4933 13.6158 15.1767 11.5 15.1767Z" fill="#E9E9E9"/>
<path d="M19.0199 5.35908C19.0199 6.12276 18.4 6.73819 17.6408 6.73819C16.8771 6.73819 16.2617 6.11826 16.2617 5.35908C16.2617 4.59541 16.8816 3.97998 17.6408 3.97998C18.4 3.97998 19.0199 4.5999 19.0199 5.35908Z" fill="#E9E9E9"/>
</svg>
