<svg width="24" height="24" viewBox="0 0 24 24" fill="none" xmlns="http://www.w3.org/2000/svg">
<path fill-rule="evenodd" clip-rule="evenodd" d="M20.4058 3.48822C19.304 2.37921 17.9932 1.49986 16.5491 0.901095C15.1051 0.302332 13.5566 -0.00393495 11.9934 3.81661e-05C5.43828 3.81661e-05 0.102009 5.33498 0.0993596 11.8927C0.0993596 13.9885 0.646499 16.034 1.68646 17.8384L0 24L6.30469 22.3453C8.04864 23.2947 10.0025 23.7925 11.9881 23.7933H11.9934C18.5471 23.7933 23.8834 18.4584 23.886 11.9007C23.8905 10.338 23.5853 8.79003 22.9879 7.3461C22.3906 5.90216 21.513 4.59094 20.4058 3.48822ZM11.9934 21.7863H11.9894C10.2188 21.7865 8.48084 21.3101 6.95782 20.4072L6.59747 20.1925L2.85626 21.1742L3.85382 17.5271L3.61934 17.1535C2.62943 15.5775 2.10541 13.7538 2.10775 11.8927C2.1104 6.44251 6.54448 2.00843 11.9973 2.00843C13.296 2.00554 14.5823 2.26024 15.7818 2.7578C16.9813 3.25535 18.0703 3.98587 18.9856 4.90707C19.9058 5.82389 20.6352 6.914 21.1316 8.1144C21.628 9.3148 21.8816 10.6017 21.8776 11.9007C21.875 17.3509 17.4409 21.7863 11.9934 21.7863ZM17.4157 14.382C17.1177 14.2323 15.6577 13.5143 15.3848 13.4149C15.1132 13.3155 14.9159 13.2665 14.7171 13.5633C14.5184 13.86 13.9488 14.529 13.7752 14.7278C13.6017 14.9265 13.4281 14.9503 13.1314 14.802C12.8346 14.6536 11.8768 14.3396 10.7414 13.3275C9.85779 12.5392 9.26163 11.5668 9.08808 11.2687C8.91454 10.9707 9.06954 10.8104 9.21924 10.662C9.35304 10.5295 9.51599 10.3149 9.66437 10.1413C9.81275 9.96778 9.86176 9.84458 9.96112 9.64586C10.0605 9.44714 10.0115 9.27359 9.93595 9.12522C9.86176 8.97551 9.26693 7.51294 9.01919 6.91811C8.77941 6.34183 8.53432 6.41866 8.3515 6.41072C8.16216 6.40297 7.97266 6.39944 7.78316 6.40012C7.63247 6.40396 7.48421 6.43889 7.34765 6.50272C7.2111 6.56655 7.0892 6.65791 6.98961 6.77106C6.7167 7.06914 5.94965 7.78718 5.94965 9.24975C5.94965 10.7123 7.01478 12.1259 7.16316 12.3246C7.31154 12.5233 9.25898 15.524 12.2398 16.8117C12.9499 17.1177 13.5036 17.3005 13.9342 17.4383C14.6456 17.6648 15.2934 17.6317 15.8061 17.5562C16.3771 17.4714 17.5641 16.8382 17.8119 16.144C18.0596 15.4498 18.0596 14.8549 17.9854 14.7304C17.9112 14.6059 17.7112 14.5304 17.4157 14.382Z" fill="#E9E9E9"/>
</svg>
