<svg width="23" height="22" viewBox="0 0 23 22" fill="none" xmlns="http://www.w3.org/2000/svg">
<path fill-rule="evenodd" clip-rule="evenodd" d="M11.1195 2C6.09943 2 2.02987 6.02944 2.02987 11C2.02987 15.9706 6.09943 20 11.1195 20C16.1396 20 20.2091 15.9706 20.2091 11C20.2091 6.02944 16.1396 2 11.1195 2ZM0.00994873 11C0.00994873 4.92487 4.98386 0 11.1195 0C17.2551 0 22.229 4.92487 22.229 11C22.229 17.0751 17.2551 22 11.1195 22C4.98386 22 0.00994873 17.0751 0.00994873 11Z" fill="#FFB240"/>
<path fill-rule="evenodd" clip-rule="evenodd" d="M11.1195 6C11.6773 6 12.1295 6.44772 12.1295 7V11C12.1295 11.5523 11.6773 12 11.1195 12C10.5617 12 10.1095 11.5523 10.1095 11V7C10.1095 6.44772 10.5617 6 11.1195 6Z" fill="#FFB240"/>
<path fill-rule="evenodd" clip-rule="evenodd" d="M10.1095 15C10.1095 14.4477 10.5617 14 11.1195 14H11.1296C11.6874 14 12.1396 14.4477 12.1396 15C12.1396 15.5523 11.6874 16 11.1296 16H11.1195C10.5617 16 10.1095 15.5523 10.1095 15Z" fill="#FFB240"/>
</svg>
