<svg width="25" height="24" viewBox="0 0 25 24" fill="none" xmlns="http://www.w3.org/2000/svg">
<path fill-rule="evenodd" clip-rule="evenodd" d="M15.8188 3.77329C14.0284 2.9834 12.028 2.78771 10.1161 3.21542C8.20421 3.64314 6.48315 4.67133 5.20963 6.14666C3.93611 7.62199 3.17836 9.4654 3.04939 11.402C2.92042 13.3386 3.42714 15.2645 4.49399 16.8927C5.56083 18.5208 7.13063 19.7638 8.96927 20.4364C10.8079 21.109 12.8169 21.1751 14.6965 20.6248C16.5762 20.0745 18.2259 18.9374 19.3995 17.3829C20.5731 15.8285 21.2078 13.9401 21.2089 11.9993V11.0799C21.2089 10.5276 21.6611 10.0799 22.2189 10.0799C22.7767 10.0799 23.2289 10.5276 23.2289 11.0799V11.9999C23.2275 14.3719 22.4517 16.6806 21.0173 18.5804C19.5829 20.4803 17.5666 21.8702 15.2693 22.5427C12.9719 23.2153 10.5165 23.1345 8.26926 22.3125C6.02204 21.4904 4.10339 19.9711 2.79947 17.9812C1.49555 15.9913 0.876219 13.6373 1.03385 11.2704C1.19148 8.90346 2.11762 6.6504 3.67414 4.84722C5.23067 3.04404 7.33419 1.78736 9.67098 1.2646C12.0078 0.741837 14.4526 0.981007 16.6409 1.94644C17.1504 2.17122 17.3794 2.76239 17.1524 3.26687C16.9254 3.77134 16.3283 3.99807 15.8188 3.77329Z" fill="#E9E9E9"/>
<path fill-rule="evenodd" clip-rule="evenodd" d="M22.9327 3.29241C23.3273 3.68273 23.3276 4.3159 22.9334 4.70662L12.8338 14.7166C12.6445 14.9043 12.3875 15.0098 12.1196 15.0099C11.8516 15.0099 11.5946 14.9046 11.4052 14.717L8.37529 11.717C7.98088 11.3264 7.98088 10.6933 8.37529 10.3028C8.7697 9.91224 9.40918 9.91224 9.80359 10.3028L12.119 12.5953L21.5044 3.29311C21.8986 2.90239 22.5381 2.90208 22.9327 3.29241Z" fill="#E9E9E9"/>
</svg>
