<svg width="23" height="22" viewBox="0 0 23 22" fill="none" xmlns="http://www.w3.org/2000/svg">
<path fill-rule="evenodd" clip-rule="evenodd" d="M11.1196 2C6.09949 2 2.02993 6.02944 2.02993 11C2.02993 15.9706 6.09949 20 11.1196 20C16.1396 20 20.2092 15.9706 20.2092 11C20.2092 6.02944 16.1396 2 11.1196 2ZM0.0100098 11C0.0100098 4.92487 4.98392 0 11.1196 0C17.2552 0 22.2291 4.92487 22.2291 11C22.2291 17.0751 17.2552 22 11.1196 22C4.98392 22 0.0100098 17.0751 0.0100098 11Z" fill="#FF4848"/>
<path fill-rule="evenodd" clip-rule="evenodd" d="M14.8636 7.29289C15.258 7.68342 15.258 8.31658 14.8636 8.70711L8.80383 14.7071C8.40941 15.0976 7.76994 15.0976 7.37553 14.7071C6.98112 14.3166 6.98112 13.6834 7.37553 13.2929L13.4353 7.29289C13.8297 6.90237 14.4692 6.90237 14.8636 7.29289Z" fill="#FF4848"/>
<path fill-rule="evenodd" clip-rule="evenodd" d="M7.37553 7.29289C7.76994 6.90237 8.40941 6.90237 8.80383 7.29289L14.8636 13.2929C15.258 13.6834 15.258 14.3166 14.8636 14.7071C14.4692 15.0976 13.8297 15.0976 13.4353 14.7071L7.37553 8.70711C6.98112 8.31658 6.98112 7.68342 7.37553 7.29289Z" fill="#FF4848"/>
</svg>
