<svg width="84" height="84" viewBox="0 0 84 84" fill="none" xmlns="http://www.w3.org/2000/svg">
<path d="M8.28931 64.2339C7.59895 64.2339 7.03931 64.7935 7.03931 65.4839C7.03931 66.1742 7.59895 66.7339 8.28931 66.7339V64.2339ZM11.3082 66.7339C11.9985 66.7339 12.5582 66.1742 12.5582 65.4839C12.5582 64.7935 11.9985 64.2339 11.3082 64.2339V66.7339ZM8.28931 68.1048C7.59895 68.1048 7.03931 68.6645 7.03931 69.3548C7.03931 70.0452 7.59895 70.6048 8.28931 70.6048V68.1048ZM24.6415 69.3548H25.8915V68.1048H24.6415V69.3548ZM48.7925 22.1694C48.1021 22.1694 47.5425 22.729 47.5425 23.4194C47.5425 24.1097 48.1021 24.6694 48.7925 24.6694V22.1694ZM61.1195 24.6694C61.8099 24.6694 62.3695 24.1097 62.3695 23.4194C62.3695 22.729 61.8099 22.1694 61.1195 22.1694V24.6694ZM65.1447 22.1694C64.4543 22.1694 63.8947 22.729 63.8947 23.4194C63.8947 24.1097 64.4543 24.6694 65.1447 24.6694V22.1694ZM67.1572 24.6694C67.8476 24.6694 68.4072 24.1097 68.4072 23.4194C68.4072 22.729 67.8476 22.1694 67.1572 22.1694V24.6694ZM54.8302 60.621C54.1398 60.621 53.5802 61.1806 53.5802 61.871C53.5802 62.5613 54.1398 63.121 54.8302 63.121V60.621ZM64.3899 63.121C65.0803 63.121 65.6399 62.5613 65.6399 61.871C65.6399 61.1806 65.0803 60.621 64.3899 60.621V63.121ZM31.6213 70.5977C31.1675 70.0774 30.3779 70.0236 29.8576 70.4773C29.3373 70.9311 29.2834 71.7207 29.7372 72.241L31.6213 70.5977ZM34.014 77.1442C34.4677 77.6645 35.2574 77.7184 35.7776 77.2646C36.2979 76.8108 36.3518 76.0212 35.898 75.5009L34.014 77.1442ZM44.2642 73.5242C43.5738 73.5242 43.0142 74.0838 43.0142 74.7742C43.0142 75.4645 43.5738 76.0242 44.2642 76.0242V73.5242ZM49.7987 76.0242C50.4891 76.0242 51.0487 75.4645 51.0487 74.7742C51.0487 74.0838 50.4891 73.5242 49.7987 73.5242V76.0242ZM48.7925 37.1371C48.1021 37.1371 47.5425 37.6967 47.5425 38.3871C47.5425 39.0774 48.1021 39.6371 48.7925 39.6371V37.1371ZM74.956 38.3871H76.206C76.206 37.6967 75.6463 37.1371 74.956 37.1371V38.3871ZM48.7925 57.2661C48.1021 57.2661 47.5425 57.8258 47.5425 58.5161C47.5425 59.2065 48.1021 59.7661 48.7925 59.7661V57.2661ZM74.956 59.7661C75.6463 59.7661 76.206 59.2065 76.206 58.5161C76.206 57.8258 75.6463 57.2661 74.956 57.2661V59.7661ZM55.5849 64.2339C54.8946 64.2339 54.3349 64.7935 54.3349 65.4839C54.3349 66.1742 54.8946 66.7339 55.5849 66.7339V64.2339ZM74.956 65.4839V66.7339C75.6463 66.7339 76.206 66.1742 76.206 65.4839H74.956ZM55.5849 76.879C54.8946 76.879 54.3349 77.4387 54.3349 78.129C54.3349 78.8194 54.8946 79.379 55.5849 79.379V76.879ZM62.1258 79.379C62.8161 79.379 63.3758 78.8194 63.3758 78.129C63.3758 77.4387 62.8161 76.879 62.1258 76.879V79.379ZM46.7799 2V0.75H45.5299V2H46.7799ZM55.8365 2H57.0865V0.75H55.8365V2ZM55.8365 18V19.25H57.0865V18H55.8365ZM44.0126 21.9113C43.3222 21.9113 42.7626 22.4709 42.7626 23.1613C42.7626 23.8516 43.3222 24.4113 44.0126 24.4113V21.9113ZM63.3837 2V0.75H62.1337V2H63.3837ZM72.4403 2H73.6903V0.75H72.4403V2ZM72.4403 18V19.25H73.6903V18H72.4403ZM63.3837 18H62.1337V19.25H63.3837V18ZM76.9686 24.4516L76.3134 25.5161L76.32 25.5202L76.3267 25.5242L76.9686 24.4516ZM80.75 36.0645C80.75 36.7549 81.3096 37.3145 82 37.3145C82.6904 37.3145 83.25 36.7549 83.25 36.0645H80.75ZM67.6604 76.621C66.97 76.621 66.4104 77.1806 66.4104 77.871C66.4104 78.5613 66.97 79.121 67.6604 79.121V76.621ZM83.25 41.7419C83.25 41.0516 82.6904 40.4919 82 40.4919C81.3096 40.4919 80.75 41.0516 80.75 41.7419H83.25ZM73.6903 16.7097C73.6903 16.0193 73.1306 15.4597 72.4403 15.4597C71.7499 15.4597 71.1903 16.0193 71.1903 16.7097H73.6903ZM57.8491 46.9032V48.1532H59.0991V46.9032H57.8491ZM57.8491 45.0968H56.5991H57.8491ZM57.8491 52.3226H59.0991H57.8491ZM57.8491 50.5161H59.0991V49.2661H57.8491V50.5161ZM61.3711 50.5161V49.2661H60.1211V50.5161H61.3711ZM61.3711 52.3225H62.6211H61.3711ZM61.3711 45.0968H60.1211H61.3711ZM61.3711 46.9032H60.1211V48.1532H61.3711V46.9032ZM59.6101 43.2903V42.0403V43.2903ZM59.6101 54.129V52.879V54.129ZM39.9792 62.4284C39.4324 62.8498 39.3306 63.6347 39.752 64.1815C40.1733 64.7284 40.9582 64.8301 41.5051 64.4088L39.9792 62.4284ZM41.5051 78.9461C40.9582 78.5247 40.1733 78.6264 39.752 79.1733C39.3306 79.7202 39.4324 80.505 39.9792 80.9264L41.5051 78.9461ZM11.8113 24.4113C12.5017 24.4113 13.0613 23.8516 13.0613 23.1613C13.0613 22.4709 12.5017 21.9113 11.8113 21.9113V24.4113ZM17.3459 21.9113C16.6556 21.9113 16.0959 22.4709 16.0959 23.1613C16.0959 23.8516 16.6556 24.4113 17.3459 24.4113V21.9113ZM23.3915 59.8064C23.3915 60.4968 23.9512 61.0564 24.6415 61.0564C25.3319 61.0564 25.8915 60.4968 25.8915 59.8064H23.3915ZM23.3915 25.2258C23.3915 25.9162 23.9512 26.4758 24.6415 26.4758C25.3319 26.4758 25.8915 25.9162 25.8915 25.2258H23.3915ZM10.3097 52.5806C10.3097 53.271 10.8694 53.8306 11.5597 53.8306C12.2501 53.8306 12.8097 53.271 12.8097 52.5806H10.3097ZM12.8097 51.5484C12.8097 50.858 12.2501 50.2984 11.5597 50.2984C10.8694 50.2984 10.3097 50.858 10.3097 51.5484H12.8097ZM10.3097 36.5806C10.3097 37.271 10.8694 37.8306 11.5597 37.8306C12.2501 37.8306 12.8097 37.271 12.8097 36.5806H10.3097ZM12.8097 35.5484C12.8097 34.858 12.2501 34.2984 11.5597 34.2984C10.8694 34.2984 10.3097 34.858 10.3097 35.5484H12.8097ZM25.8915 28.8387C25.8915 28.1484 25.3319 27.5887 24.6415 27.5887C23.9512 27.5887 23.3915 28.1484 23.3915 28.8387H25.8915ZM46.033 61.0968C46.033 61.7871 46.5927 62.3468 47.283 62.3468C47.9734 62.3468 48.533 61.7871 48.533 61.0968H46.033ZM33.4544 52.5806C33.4544 53.271 34.014 53.8306 34.7044 53.8306C35.3948 53.8306 35.9544 53.271 35.9544 52.5806H33.4544ZM35.9544 51.5484C35.9544 50.858 35.3948 50.2984 34.7044 50.2984C34.014 50.2984 33.4544 50.858 33.4544 51.5484H35.9544ZM33.4544 36.5806C33.4544 37.271 34.014 37.8306 34.7044 37.8306C35.3948 37.8306 35.9544 37.271 35.9544 36.5806H33.4544ZM35.9544 35.5484C35.9544 34.858 35.3948 34.2984 34.7044 34.2984C34.014 34.2984 33.4544 34.858 33.4544 35.5484H35.9544ZM8.28931 66.7339H11.3082V64.2339H8.28931V66.7339ZM8.28931 70.6048H24.6415V68.1048H8.28931V70.6048ZM48.7925 24.6694H61.1195V22.1694H48.7925V24.6694ZM65.1447 24.6694H67.1572V22.1694H65.1447V24.6694ZM54.8302 63.121H64.3899V60.621H54.8302V63.121ZM29.7372 72.241L34.014 77.1442L35.898 75.5009L31.6213 70.5977L29.7372 72.241ZM44.2642 76.0242H49.7987V73.5242H44.2642V76.0242ZM48.7925 39.6371H74.956V37.1371H48.7925V39.6371ZM48.7925 59.7661H74.956V57.2661H48.7925V59.7661ZM55.5849 66.7339H74.956V64.2339H55.5849V66.7339ZM73.706 38.3871V65.4839H76.206V38.3871H73.706ZM55.5849 79.379H62.1258V76.879H55.5849V79.379ZM46.7799 3.25H55.8365V0.75H46.7799V3.25ZM54.5865 2V18H57.0865V2H54.5865ZM55.8365 16.75H46.7799V19.25H55.8365V16.75ZM48.0299 18V2H45.5299V18H48.0299ZM45.5312 17.942C45.4932 18.7606 45.3199 19.8998 44.9604 20.7901C44.5636 21.773 44.1897 21.9113 44.0126 21.9113V24.4113C45.848 24.4113 46.8159 22.8722 47.2786 21.726C47.7787 20.4873 47.9827 19.0458 48.0285 18.058L45.5312 17.942ZM63.3837 3.25H72.4403V0.75H63.3837V3.25ZM71.1903 2V18H73.6903V2H71.1903ZM72.4403 16.75H63.3837V19.25H72.4403V16.75ZM64.6337 18V2H62.1337V18H64.6337ZM42.2516 3.25H77.4717V0.75H42.2516V3.25ZM76.7248 2.51613V17.4839H79.2248V2.51613H76.7248ZM77.4717 16.75H42.2516V19.25H77.4717V16.75ZM42.9984 17.4839V2.51613H40.4984V17.4839H42.9984ZM42.2516 16.75C42.6939 16.75 42.9984 17.1088 42.9984 17.4839H40.4984C40.4984 18.4291 41.2535 19.25 42.2516 19.25V16.75ZM76.7248 17.4839C76.7248 17.1088 77.0294 16.75 77.4717 16.75V19.25C78.4698 19.25 79.2248 18.4291 79.2248 17.4839H76.7248ZM77.4717 3.25C77.0294 3.25 76.7248 2.89122 76.7248 2.51613H79.2248C79.2248 1.57094 78.4698 0.75 77.4717 0.75V3.25ZM42.2516 0.75C41.2535 0.75 40.4984 1.57094 40.4984 2.51613H42.9984C42.9984 2.89122 42.6939 3.25 42.2516 3.25V0.75ZM76.3267 25.5242C78.8428 27.0298 80.75 30.1413 80.75 36.0645H83.25C83.25 29.6007 81.1321 25.4863 77.6104 23.379L76.3267 25.5242ZM75.9623 76.621H67.6604V79.121H75.9623V76.621ZM80.75 41.7419V70.9032H83.25V41.7419H80.75ZM77.6238 23.3871C76.0798 22.4368 73.6903 20.5981 73.6903 16.7097H71.1903C71.1903 21.9051 74.503 24.4019 76.3134 25.5161L77.6238 23.3871ZM75.9623 79.121C80.4764 79.121 83.25 75.067 83.25 70.9032H80.75C80.75 74.1508 78.673 76.621 75.9623 76.621V79.121ZM59.0991 46.9032V45.0968H56.5991V46.9032H59.0991ZM59.0991 52.3226V50.5161H56.5991V52.3226H59.0991ZM60.1211 50.5161V52.3225H62.6211V50.5161H60.1211ZM60.1211 45.0968V46.9032H62.6211V45.0968H60.1211ZM59.6101 42.0403C57.9173 42.0403 56.5991 43.439 56.5991 45.0968H59.0991C59.0991 44.7592 59.3577 44.5403 59.6101 44.5403V42.0403ZM59.6101 52.879C59.3577 52.879 59.0991 52.6601 59.0991 52.3226H56.5991C56.5991 53.9804 57.9173 55.379 59.6101 55.379V52.879ZM59.6101 55.379C61.3029 55.379 62.6211 53.9803 62.6211 52.3225H60.1211C60.1211 52.6601 59.8624 52.879 59.6101 52.879V55.379ZM59.6101 44.5403C59.8624 44.5403 60.1211 44.7592 60.1211 45.0968H62.6211C62.6211 43.439 61.3029 42.0403 59.6101 42.0403V44.5403ZM56.0881 48.1532H57.8491V45.6532H56.0881V48.1532ZM61.3711 48.1532H63.1321V45.6532H61.3711V48.1532ZM63.1321 49.2661H61.3711V51.7661H63.1321V49.2661ZM57.8491 49.2661H56.0881V51.7661H57.8491V49.2661ZM53.077 48.7097C53.077 50.3675 54.3953 51.7661 56.0881 51.7661V49.2661C55.8357 49.2661 55.577 49.0472 55.577 48.7097H53.077ZM63.6431 48.7097C63.6431 49.0472 63.3845 49.2661 63.1321 49.2661V51.7661C64.8248 51.7661 66.1431 50.3675 66.1431 48.7097H63.6431ZM66.1431 48.7097C66.1431 47.0519 64.8248 45.6532 63.1321 45.6532V48.1532C63.3845 48.1532 63.6431 48.3721 63.6431 48.7097H66.1431ZM55.577 48.7097C55.577 48.3721 55.8357 48.1532 56.0881 48.1532V45.6532C54.3953 45.6532 53.077 47.0519 53.077 48.7097H55.577ZM55.5928 71.6774C55.5928 76.7183 51.6173 80.75 46.7799 80.75V83.25C53.0576 83.25 58.0928 78.0386 58.0928 71.6774H55.5928ZM46.7799 62.6048C51.6173 62.6048 55.5928 66.6366 55.5928 71.6774H58.0928C58.0928 65.3163 53.0576 60.1048 46.7799 60.1048V62.6048ZM41.5051 64.4088C42.9781 63.2738 44.8027 62.6048 46.7799 62.6048V60.1048C44.2263 60.1048 41.8699 60.9717 39.9792 62.4284L41.5051 64.4088ZM46.7799 80.75C44.8027 80.75 42.9781 80.081 41.5051 78.9461L39.9792 80.9264C41.8699 82.3832 44.2263 83.25 46.7799 83.25V80.75ZM43.5173 71.6774C43.5173 76.7183 39.5418 80.75 34.7044 80.75V83.25C40.9822 83.25 46.0173 78.0386 46.0173 71.6774H43.5173ZM34.7044 80.75C29.867 80.75 25.8915 76.7183 25.8915 71.6774H23.3915C23.3915 78.0386 28.4266 83.25 34.7044 83.25V80.75ZM25.8915 71.6774C25.8915 66.6366 29.867 62.6048 34.7044 62.6048V60.1048C28.4266 60.1048 23.3915 65.3163 23.3915 71.6774H25.8915ZM34.7044 62.6048C39.5418 62.6048 43.5173 66.6366 43.5173 71.6774H46.0173C46.0173 65.3163 40.9822 60.1048 34.7044 60.1048V62.6048ZM21.6226 73.5242H5.01887V76.0242H21.6226V73.5242ZM3.25 71.6774V26.2581H0.75V71.6774H3.25ZM5.01887 24.4113H11.8113V21.9113H5.01887V24.4113ZM17.3459 24.4113H22.3774V21.9113H17.3459V24.4113ZM23.3915 69.3548V71.6774H25.8915V69.3548H23.3915ZM5.01887 73.5242C4.07178 73.5242 3.25 72.7276 3.25 71.6774H0.75C0.75 74.0479 2.6314 76.0242 5.01887 76.0242V73.5242ZM21.6226 76.0242C24.0101 76.0242 25.8915 74.0479 25.8915 71.6774H23.3915C23.3915 72.7276 22.5697 73.5242 21.6226 73.5242V76.0242ZM22.3774 24.4113C22.7487 24.4113 23.0098 24.527 23.1588 24.6564C23.2901 24.7704 23.3915 24.9398 23.3915 25.2258H25.8915C25.8915 24.2291 25.4861 23.3663 24.7979 22.7687C24.1275 22.1865 23.2564 21.9113 22.3774 21.9113V24.4113ZM3.25 26.2581C3.25 25.2079 4.07178 24.4113 5.01887 24.4113V21.9113C2.63141 21.9113 0.75 23.8876 0.75 26.2581H3.25ZM16.8506 52.0645C16.8506 54.2549 15.1278 55.9758 13.0692 55.9758V58.4758C16.5682 58.4758 19.3506 55.5752 19.3506 52.0645H16.8506ZM13.0692 55.9758C11.0106 55.9758 9.28774 54.2549 9.28774 52.0645H6.78774C6.78774 55.5752 9.5702 58.4758 13.0692 58.4758V55.9758ZM9.28774 52.0645C9.28774 49.8742 11.0106 48.1532 13.0692 48.1532V45.6532C9.5702 45.6532 6.78774 48.5539 6.78774 52.0645H9.28774ZM13.0692 48.1532C15.1278 48.1532 16.8506 49.8742 16.8506 52.0645H19.3506C19.3506 48.5539 16.5682 45.6532 13.0692 45.6532V48.1532ZM12.8097 52.5806V51.5484H10.3097V52.5806H12.8097ZM16.8506 36.0645C16.8506 38.2549 15.1278 39.9758 13.0692 39.9758V42.4758C16.5682 42.4758 19.3506 39.5752 19.3506 36.0645H16.8506ZM13.0692 39.9758C11.0106 39.9758 9.28774 38.2549 9.28774 36.0645H6.78774C6.78774 39.5752 9.5702 42.4758 13.0692 42.4758V39.9758ZM9.28774 36.0645C9.28774 33.8742 11.0106 32.1532 13.0692 32.1532V29.6532C9.5702 29.6532 6.78774 32.5539 6.78774 36.0645H9.28774ZM13.0692 32.1532C15.1278 32.1532 16.8506 33.8742 16.8506 36.0645H19.3506C19.3506 32.5539 16.5682 29.6532 13.0692 29.6532V32.1532ZM12.8097 36.5806V35.5484H10.3097V36.5806H12.8097ZM26.6541 24.4113H44.2642V21.9113H26.6541V24.4113ZM25.8915 59.8064V28.8387H23.3915V59.8064H25.8915ZM46.033 26.2605V61.0968H48.533V26.2605H46.033ZM44.2642 24.4113C45.21 24.4113 46.033 25.209 46.033 26.2605H48.533C48.533 23.8913 46.6529 21.9113 44.2642 21.9113V24.4113ZM26.6541 21.9113C24.8224 21.9113 23.3915 23.4255 23.3915 25.2258H25.8915C25.8915 24.7457 26.2628 24.4113 26.6541 24.4113V21.9113ZM39.9953 36.0645C39.9953 38.2549 38.2724 39.9758 36.2138 39.9758V42.4758C39.7128 42.4758 42.4953 39.5752 42.4953 36.0645H39.9953ZM36.2138 39.9758C34.1552 39.9758 32.4324 38.2549 32.4324 36.0645H29.9324C29.9324 39.5752 32.7149 42.4758 36.2138 42.4758V39.9758ZM32.4324 36.0645C32.4324 33.8742 34.1552 32.1532 36.2138 32.1532V29.6532C32.7149 29.6532 29.9324 32.5539 29.9324 36.0645H32.4324ZM36.2138 32.1532C38.2724 32.1532 39.9953 33.8742 39.9953 36.0645H42.4953C42.4953 32.5539 39.7128 29.6532 36.2138 29.6532V32.1532ZM39.9953 52.0645C39.9953 54.2549 38.2724 55.9758 36.2138 55.9758V58.4758C39.7128 58.4758 42.4953 55.5752 42.4953 52.0645H39.9953ZM36.2138 55.9758C34.1552 55.9758 32.4324 54.2549 32.4324 52.0645H29.9324C29.9324 55.5752 32.7149 58.4758 36.2138 58.4758V55.9758ZM32.4324 52.0645C32.4324 49.8742 34.1552 48.1532 36.2138 48.1532V45.6532C32.7149 45.6532 29.9324 48.5539 29.9324 52.0645H32.4324ZM36.2138 48.1532C38.2724 48.1532 39.9953 49.8742 39.9953 52.0645H42.4953C42.4953 48.5539 39.7128 45.6532 36.2138 45.6532V48.1532ZM35.9544 52.5806V51.5484H33.4544V52.5806H35.9544ZM35.9544 36.5806V35.5484H33.4544V36.5806H35.9544Z" fill="#E9E9E9"/>
</svg>
