<svg width="83" height="83" viewBox="0 0 83 83" fill="none" xmlns="http://www.w3.org/2000/svg">
<path d="M65.5152 12.8399C66.2056 12.8399 66.7652 12.2803 66.7652 11.5899C66.7652 10.8995 66.2056 10.3399 65.5152 10.3399V12.8399ZM72.8338 10.3399C72.1435 10.3399 71.5838 10.8995 71.5838 11.5899C71.5838 12.2803 72.1435 12.8399 72.8338 12.8399V10.3399ZM17.3133 26.9842V25.7342H16.1734L16.0686 26.8693L17.3133 26.9842ZM49.8685 26.9842L51.1132 26.8693L51.0084 25.7342H49.8685V26.9842ZM20.2971 80.6363L19.7521 81.7612L20.2971 80.6363ZM47.6418 80.6363L48.1868 81.7612L47.6418 80.6363ZM63.2898 39.7238L64.4381 39.2299L63.2898 39.7238ZM1.66663 56.7516C7.14603 56.7516 11.9692 59.0447 15.4441 63.2108C18.9303 67.3903 21.1106 73.5235 21.1106 81.2429H23.6106C23.6106 73.0632 21.2979 66.3258 17.3639 61.6094C13.4188 56.8796 7.89496 54.2516 1.66663 54.2516V56.7516ZM60.9726 32.0197H76.8717V29.5197H60.9726V32.0197ZM76.8717 39.1096H63.7486V41.6096H76.8717V39.1096ZM76.8717 48.6995H66.0199V51.1995H76.8717V48.6995ZM80.4166 45.1546C80.4166 47.1124 78.8295 48.6995 76.8717 48.6995V51.1995C80.2102 51.1995 82.9166 48.4931 82.9166 45.1546H80.4166ZM82.9166 45.1546C82.9166 41.816 80.2102 39.1096 76.8717 39.1096V41.6096C78.8295 41.6096 80.4166 43.1968 80.4166 45.1546H82.9166ZM39.5215 22.4298H76.8717V19.9298H39.5215V22.4298ZM80.4166 25.9748C80.4166 27.9326 78.8295 29.5197 76.8717 29.5197V32.0197C80.2102 32.0197 82.9166 29.3133 82.9166 25.9748H80.4166ZM76.8717 22.4298C78.8295 22.4298 80.4166 24.0169 80.4166 25.9748H82.9166C82.9166 22.6362 80.2102 19.9298 76.8717 19.9298V22.4298ZM39.5215 19.9298C36.183 19.9298 33.4766 22.6362 33.4766 25.9748H35.9766C35.9766 24.0169 37.5637 22.4298 39.5215 22.4298V19.9298ZM39.5215 11.5899C39.5215 12.8399 39.5216 12.8399 39.5217 12.8399C39.5218 12.8399 39.522 12.8399 39.5222 12.8399C39.5225 12.8399 39.5228 12.8399 39.5231 12.8399C39.5235 12.8399 39.5239 12.8399 39.5244 12.8399C39.5249 12.8399 39.5254 12.8399 39.526 12.8399C39.5266 12.8399 39.5273 12.8399 39.528 12.8399C39.5287 12.8399 39.5295 12.8399 39.5303 12.8399C39.5312 12.8399 39.5321 12.8399 39.533 12.8399C39.534 12.8399 39.535 12.8399 39.5361 12.8399C39.5372 12.8399 39.5383 12.8399 39.5395 12.8399C39.5407 12.8399 39.5419 12.8399 39.5432 12.8399C39.5445 12.8399 39.5459 12.8399 39.5473 12.8399C39.5488 12.8399 39.5503 12.8399 39.5518 12.8399C39.5533 12.8399 39.5549 12.8399 39.5566 12.8399C39.5583 12.8399 39.56 12.8399 39.5618 12.8399C39.5635 12.8399 39.5654 12.8399 39.5673 12.8399C39.5692 12.8399 39.5711 12.8399 39.5731 12.8399C39.5751 12.8399 39.5772 12.8399 39.5793 12.8399C39.5814 12.8399 39.5836 12.8399 39.5859 12.8399C39.5881 12.8399 39.5904 12.8399 39.5928 12.8399C39.5951 12.8399 39.5975 12.8399 39.6 12.8399C39.6025 12.8399 39.605 12.8399 39.6076 12.8399C39.6101 12.8399 39.6128 12.8399 39.6155 12.8399C39.6182 12.8399 39.6209 12.8399 39.6237 12.8399C39.6265 12.8399 39.6294 12.8399 39.6323 12.8399C39.6352 12.8399 39.6382 12.8399 39.6413 12.8399C39.6443 12.8399 39.6474 12.8399 39.6505 12.8399C39.6537 12.8399 39.6569 12.8399 39.6601 12.8399C39.6634 12.8399 39.6667 12.8399 39.6701 12.8399C39.6734 12.8399 39.6769 12.8399 39.6804 12.8399C39.6838 12.8399 39.6874 12.8399 39.691 12.8399C39.6946 12.8399 39.6982 12.8399 39.7019 12.8399C39.7056 12.8399 39.7094 12.8399 39.7132 12.8399C39.717 12.8399 39.7209 12.8399 39.7248 12.8399C39.7287 12.8399 39.7327 12.8399 39.7367 12.8399C39.7408 12.8399 39.7449 12.8399 39.749 12.8399C39.7531 12.8399 39.7573 12.8399 39.7616 12.8399C39.7658 12.8399 39.7701 12.8399 39.7745 12.8399C39.7789 12.8399 39.7833 12.8399 39.7878 12.8399C39.7922 12.8399 39.7968 12.8399 39.8013 12.8399C39.8059 12.8399 39.8105 12.8399 39.8152 12.8399C39.8199 12.8399 39.8247 12.8399 39.8294 12.8399C39.8342 12.8399 39.8391 12.8399 39.844 12.8399C39.8489 12.8399 39.8538 12.8399 39.8588 12.8399C39.8639 12.8399 39.8689 12.8399 39.874 12.8399C39.8791 12.8399 39.8843 12.8399 39.8895 12.8399C39.8948 12.8399 39.9 12.8399 39.9054 12.8399C39.9107 12.8399 39.9161 12.8399 39.9215 12.8399C39.9269 12.8399 39.9324 12.8399 39.9379 12.8399C39.9435 12.8399 39.9491 12.8399 39.9547 12.8399C39.9604 12.8399 39.9661 12.8399 39.9718 12.8399C39.9775 12.8399 39.9833 12.8399 39.9892 12.8399C39.995 12.8399 40.001 12.8399 40.0069 12.8399C40.0129 12.8399 40.0189 12.8399 40.0249 12.8399C40.031 12.8399 40.0371 12.8399 40.0433 12.8399C40.0494 12.8399 40.0556 12.8399 40.0619 12.8399C40.0682 12.8399 40.0745 12.8399 40.0809 12.8399C40.0872 12.8399 40.0936 12.8399 40.1001 12.8399C40.1066 12.8399 40.1131 12.8399 40.1197 12.8399C40.1263 12.8399 40.1329 12.8399 40.1395 12.8399C40.1462 12.8399 40.153 12.8399 40.1597 12.8399C40.1665 12.8399 40.1733 12.8399 40.1802 12.8399C40.1871 12.8399 40.194 12.8399 40.201 12.8399C40.208 12.8399 40.215 12.8399 40.2221 12.8399C40.2292 12.8399 40.2363 12.8399 40.2435 12.8399C40.2506 12.8399 40.2579 12.8399 40.2651 12.8399C40.2724 12.8399 40.2798 12.8399 40.2871 12.8399C40.2945 12.8399 40.3019 12.8399 40.3094 12.8399C40.3169 12.8399 40.3244 12.8399 40.332 12.8399C40.3396 12.8399 40.3472 12.8399 40.3549 12.8399C40.3625 12.8399 40.3703 12.8399 40.378 12.8399C40.3858 12.8399 40.3936 12.8399 40.4015 12.8399C40.4094 12.8399 40.4173 12.8399 40.4253 12.8399C40.4332 12.8399 40.4412 12.8399 40.4493 12.8399C40.4574 12.8399 40.4655 12.8399 40.4737 12.8399C40.4818 12.8399 40.49 12.8399 40.4983 12.8399C40.5065 12.8399 40.5149 12.8399 40.5232 12.8399C40.5316 12.8399 40.54 12.8399 40.5484 12.8399C40.5569 12.8399 40.5654 12.8399 40.5739 12.8399C40.5825 12.8399 40.5911 12.8399 40.5997 12.8399C40.6084 12.8399 40.617 12.8399 40.6258 12.8399C40.6345 12.8399 40.6433 12.8399 40.6521 12.8399C40.661 12.8399 40.6698 12.8399 40.6788 12.8399C40.6877 12.8399 40.6967 12.8399 40.7057 12.8399C40.7147 12.8399 40.7238 12.8399 40.7329 12.8399C40.742 12.8399 40.7512 12.8399 40.7604 12.8399C40.7696 12.8399 40.7788 12.8399 40.7881 12.8399C40.7974 12.8399 40.8068 12.8399 40.8162 12.8399C40.8256 12.8399 40.835 12.8399 40.8445 12.8399C40.854 12.8399 40.8635 12.8399 40.8731 12.8399C40.8827 12.8399 40.8923 12.8399 40.902 12.8399C40.9117 12.8399 40.9214 12.8399 40.9311 12.8399C40.9409 12.8399 40.9507 12.8399 40.9606 12.8399C40.9704 12.8399 40.9803 12.8399 40.9902 12.8399C41.0002 12.8399 41.0102 12.8399 41.0202 12.8399C41.0303 12.8399 41.0403 12.8399 41.0505 12.8399C41.0606 12.8399 41.0708 12.8399 41.081 12.8399C41.0912 12.8399 41.1014 12.8399 41.1117 12.8399C41.1221 12.8399 41.1324 12.8399 41.1428 12.8399C41.1532 12.8399 41.1636 12.8399 41.1741 12.8399C41.1846 12.8399 41.1951 12.8399 41.2057 12.8399C41.2163 12.8399 41.2269 12.8399 41.2375 12.8399C41.2482 12.8399 41.2589 12.8399 41.2696 12.8399C41.2804 12.8399 41.2912 12.8399 41.302 12.8399C41.3129 12.8399 41.3237 12.8399 41.3347 12.8399C41.3456 12.8399 41.3565 12.8399 41.3675 12.8399C41.3786 12.8399 41.3896 12.8399 41.4007 12.8399C41.4118 12.8399 41.4229 12.8399 41.4341 12.8399C41.4453 12.8399 41.4565 12.8399 41.4678 12.8399C41.4791 12.8399 41.4904 12.8399 41.5017 12.8399C41.5131 12.8399 41.5245 12.8399 41.5359 12.8399C41.5474 12.8399 41.5588 12.8399 41.5704 12.8399C41.5819 12.8399 41.5935 12.8399 41.6051 12.8399C41.6167 12.8399 41.6283 12.8399 41.64 12.8399C41.6517 12.8399 41.6635 12.8399 41.6752 12.8399C41.687 12.8399 41.6988 12.8399 41.7107 12.8399C41.7226 12.8399 41.7345 12.8399 41.7464 12.8399C41.7584 12.8399 41.7703 12.8399 41.7824 12.8399C41.7944 12.8399 41.8065 12.8399 41.8186 12.8399C41.8307 12.8399 41.8428 12.8399 41.855 12.8399C41.8672 12.8399 41.8795 12.8399 41.8917 12.8399C41.904 12.8399 41.9163 12.8399 41.9287 12.8399C41.9411 12.8399 41.9535 12.8399 41.9659 12.8399C41.9783 12.8399 41.9908 12.8399 42.0033 12.8399C42.0159 12.8399 42.0284 12.8399 42.041 12.8399C42.0536 12.8399 42.0663 12.8399 42.0789 12.8399C42.0916 12.8399 42.1043 12.8399 42.1171 12.8399C42.1299 12.8399 42.1427 12.8399 42.1555 12.8399C42.1684 12.8399 42.1812 12.8399 42.1942 12.8399C42.2071 12.8399 42.2201 12.8399 42.2331 12.8399C42.2461 12.8399 42.2591 12.8399 42.2722 12.8399C42.2853 12.8399 42.2984 12.8399 42.3115 12.8399C42.3247 12.8399 42.3379 12.8399 42.3511 12.8399C42.3644 12.8399 42.3776 12.8399 42.391 12.8399C42.4043 12.8399 42.4176 12.8399 42.431 12.8399C42.4444 12.8399 42.4578 12.8399 42.4713 12.8399C42.4848 12.8399 42.4983 12.8399 42.5118 12.8399C42.5254 12.8399 42.539 12.8399 42.5526 12.8399C42.5662 12.8399 42.5799 12.8399 42.5936 12.8399C42.6073 12.8399 42.621 12.8399 42.6348 12.8399C42.6486 12.8399 42.6624 12.8399 42.6763 12.8399C42.6901 12.8399 42.704 12.8399 42.7179 12.8399C42.7319 12.8399 42.7458 12.8399 42.7598 12.8399C42.7738 12.8399 42.7879 12.8399 42.8019 12.8399C42.816 12.8399 42.8301 12.8399 42.8443 12.8399C42.8584 12.8399 42.8726 12.8399 42.8869 12.8399C42.9011 12.8399 42.9154 12.8399 42.9297 12.8399C42.944 12.8399 42.9583 12.8399 42.9727 12.8399C42.987 12.8399 43.0015 12.8399 43.0159 12.8399C43.0303 12.8399 43.0448 12.8399 43.0594 12.8399C43.0739 12.8399 43.0884 12.8399 43.103 12.8399C43.1176 12.8399 43.1322 12.8399 43.1469 12.8399C43.1616 12.8399 43.1763 12.8399 43.191 12.8399C43.2057 12.8399 43.2205 12.8399 43.2353 12.8399C43.2501 12.8399 43.265 12.8399 43.2799 12.8399C43.2947 12.8399 43.3097 12.8399 43.3246 12.8399C43.3396 12.8399 43.3545 12.8399 43.3696 12.8399C43.3846 12.8399 43.3997 12.8399 43.4147 12.8399C43.4298 12.8399 43.445 12.8399 43.4601 12.8399C43.4753 12.8399 43.4905 12.8399 43.5057 12.8399C43.5209 12.8399 43.5362 12.8399 43.5515 12.8399C43.5668 12.8399 43.5822 12.8399 43.5975 12.8399C43.6129 12.8399 43.6283 12.8399 43.6437 12.8399C43.6592 12.8399 43.6746 12.8399 43.6902 12.8399C43.7057 12.8399 43.7212 12.8399 43.7368 12.8399C43.7524 12.8399 43.768 12.8399 43.7836 12.8399C43.7993 12.8399 43.8149 12.8399 43.8306 12.8399C43.8463 12.8399 43.8621 12.8399 43.8779 12.8399C43.8936 12.8399 43.9095 12.8399 43.9253 12.8399C43.9411 12.8399 43.957 12.8399 43.9729 12.8399C43.9888 12.8399 44.0048 12.8399 44.0208 12.8399C44.0367 12.8399 44.0528 12.8399 44.0688 12.8399C44.0848 12.8399 44.1009 12.8399 44.117 12.8399C44.1331 12.8399 44.1493 12.8399 44.1655 12.8399C44.1816 12.8399 44.1978 12.8399 44.2141 12.8399C44.2303 12.8399 44.2466 12.8399 44.2629 12.8399C44.2792 12.8399 44.2955 12.8399 44.3119 12.8399C44.3283 12.8399 44.3447 12.8399 44.3611 12.8399C44.3775 12.8399 44.394 12.8399 44.4105 12.8399C44.427 12.8399 44.4435 12.8399 44.4601 12.8399C44.4766 12.8399 44.4932 12.8399 44.5098 12.8399C44.5264 12.8399 44.5431 12.8399 44.5598 12.8399C44.5765 12.8399 44.5932 12.8399 44.6099 12.8399C44.6267 12.8399 44.6434 12.8399 44.6603 12.8399C44.6771 12.8399 44.6939 12.8399 44.7108 12.8399C44.7276 12.8399 44.7445 12.8399 44.7615 12.8399C44.7784 12.8399 44.7954 12.8399 44.8124 12.8399C44.8293 12.8399 44.8464 12.8399 44.8634 12.8399C44.8805 12.8399 44.8976 12.8399 44.9147 12.8399C44.9318 12.8399 44.9489 12.8399 44.9661 12.8399C44.9833 12.8399 45.0005 12.8399 45.0177 12.8399C45.0349 12.8399 45.0522 12.8399 45.0695 12.8399C45.0868 12.8399 45.1041 12.8399 45.1215 12.8399C45.1388 12.8399 45.1562 12.8399 45.1736 12.8399C45.191 12.8399 45.2085 12.8399 45.2259 12.8399C45.2434 12.8399 45.2609 12.8399 45.2784 12.8399C45.2959 12.8399 45.3135 12.8399 45.3311 12.8399C45.3487 12.8399 45.3663 12.8399 45.3839 12.8399C45.4016 12.8399 45.4192 12.8399 45.4369 12.8399C45.4546 12.8399 45.4724 12.8399 45.4901 12.8399C45.5079 12.8399 45.5257 12.8399 45.5435 12.8399C45.5613 12.8399 45.5791 12.8399 45.597 12.8399C45.6149 12.8399 45.6328 12.8399 45.6507 12.8399C45.6686 12.8399 45.6866 12.8399 45.7046 12.8399C45.7225 12.8399 45.7405 12.8399 45.7586 12.8399C45.7766 12.8399 45.7947 12.8399 45.8128 12.8399C45.8309 12.8399 45.849 12.8399 45.8671 12.8399C45.8853 12.8399 45.9034 12.8399 45.9216 12.8399C45.9398 12.8399 45.9581 12.8399 45.9763 12.8399C45.9946 12.8399 46.0128 12.8399 46.0312 12.8399C46.0495 12.8399 46.0678 12.8399 46.0862 12.8399C46.1045 12.8399 46.1229 12.8399 46.1413 12.8399C46.1597 12.8399 46.1782 12.8399 46.1966 12.8399C46.2151 12.8399 46.2336 12.8399 46.2521 12.8399C46.2706 12.8399 46.2892 12.8399 46.3077 12.8399C46.3263 12.8399 46.3449 12.8399 46.3635 12.8399C46.3822 12.8399 46.4008 12.8399 46.4195 12.8399C46.4382 12.8399 46.4569 12.8399 46.4756 12.8399C46.4943 12.8399 46.5131 12.8399 46.5318 12.8399C46.5506 12.8399 46.5694 12.8399 46.5882 12.8399C46.6071 12.8399 46.6259 12.8399 46.6448 12.8399C46.6637 12.8399 46.6826 12.8399 46.7015 12.8399C46.7204 12.8399 46.7394 12.8399 46.7583 12.8399C46.7773 12.8399 46.7963 12.8399 46.8153 12.8399C46.8344 12.8399 46.8534 12.8399 46.8725 12.8399C46.8916 12.8399 46.9107 12.8399 46.9298 12.8399C46.9489 12.8399 46.968 12.8399 46.9872 12.8399C47.0064 12.8399 47.0256 12.8399 47.0448 12.8399C47.064 12.8399 47.0833 12.8399 47.1025 12.8399C47.1218 12.8399 47.1411 12.8399 47.1604 12.8399C47.1797 12.8399 47.199 12.8399 47.2184 12.8399C47.2378 12.8399 47.2571 12.8399 47.2765 12.8399C47.2959 12.8399 47.3154 12.8399 47.3348 12.8399C47.3543 12.8399 47.3738 12.8399 47.3933 12.8399C47.4128 12.8399 47.4323 12.8399 47.4518 12.8399C47.4714 12.8399 47.4909 12.8399 47.5105 12.8399C47.5301 12.8399 47.5497 12.8399 47.5694 12.8399C47.589 12.8399 47.6086 12.8399 47.6283 12.8399C47.648 12.8399 47.6677 12.8399 47.6874 12.8399C47.7071 12.8399 47.7269 12.8399 47.7467 12.8399C47.7664 12.8399 47.7862 12.8399 47.806 12.8399C47.8258 12.8399 47.8457 12.8399 47.8655 12.8399C47.8854 12.8399 47.9053 12.8399 47.9252 12.8399C47.945 12.8399 47.965 12.8399 47.9849 12.8399C48.0048 12.8399 48.0248 12.8399 48.0448 12.8399C48.0648 12.8399 48.0848 12.8399 48.1048 12.8399C48.1248 12.8399 48.1449 12.8399 48.1649 12.8399C48.185 12.8399 48.2051 12.8399 48.2252 12.8399C48.2453 12.8399 48.2654 12.8399 48.2856 12.8399C48.3057 12.8399 48.3259 12.8399 48.3461 12.8399C48.3663 12.8399 48.3865 12.8399 48.4067 12.8399C48.427 12.8399 48.4472 12.8399 48.4675 12.8399C48.4877 12.8399 48.508 12.8399 48.5283 12.8399C48.5487 12.8399 48.569 12.8399 48.5893 12.8399C48.6097 12.8399 48.6301 12.8399 48.6504 12.8399C48.6708 12.8399 48.6912 12.8399 48.7117 12.8399C48.7321 12.8399 48.7525 12.8399 48.773 12.8399C48.7935 12.8399 48.814 12.8399 48.8345 12.8399C48.855 12.8399 48.8755 12.8399 48.896 12.8399C48.9166 12.8399 48.9371 12.8399 48.9577 12.8399C48.9783 12.8399 48.9989 12.8399 49.0195 12.8399C49.0401 12.8399 49.0608 12.8399 49.0814 12.8399C49.1021 12.8399 49.1228 12.8399 49.1434 12.8399C49.1641 12.8399 49.1848 12.8399 49.2056 12.8399C49.2263 12.8399 49.247 12.8399 49.2678 12.8399C49.2886 12.8399 49.3094 12.8399 49.3302 12.8399C49.351 12.8399 49.3718 12.8399 49.3926 12.8399C49.4134 12.8399 49.4343 12.8399 49.4552 12.8399C49.476 12.8399 49.4969 12.8399 49.5178 12.8399C49.5387 12.8399 49.5596 12.8399 49.5806 12.8399C49.6015 12.8399 49.6225 12.8399 49.6435 12.8399C49.6644 12.8399 49.6854 12.8399 49.7064 12.8399C49.7274 12.8399 49.7484 12.8399 49.7695 12.8399C49.7905 12.8399 49.8116 12.8399 49.8327 12.8399C49.8537 12.8399 49.8748 12.8399 49.8959 12.8399C49.917 12.8399 49.9382 12.8399 49.9593 12.8399C49.9804 12.8399 50.0016 12.8399 50.0228 12.8399C50.0439 12.8399 50.0651 12.8399 50.0863 12.8399C50.1075 12.8399 50.1287 12.8399 50.15 12.8399C50.1712 12.8399 50.1924 12.8399 50.2137 12.8399C50.235 12.8399 50.2563 12.8399 50.2776 12.8399C50.2989 12.8399 50.3202 12.8399 50.3415 12.8399C50.3628 12.8399 50.3842 12.8399 50.4055 12.8399C50.4269 12.8399 50.4482 12.8399 50.4696 12.8399C50.491 12.8399 50.5124 12.8399 50.5338 12.8399C50.5552 12.8399 50.5767 12.8399 50.5981 12.8399C50.6196 12.8399 50.641 12.8399 50.6625 12.8399C50.684 12.8399 50.7055 12.8399 50.727 12.8399C50.7485 12.8399 50.77 12.8399 50.7915 12.8399C50.813 12.8399 50.8346 12.8399 50.8562 12.8399C50.8777 12.8399 50.8993 12.8399 50.9209 12.8399C50.9425 12.8399 50.9641 12.8399 50.9857 12.8399C51.0073 12.8399 51.0289 12.8399 51.0506 12.8399C51.0722 12.8399 51.0938 12.8399 51.1155 12.8399C51.1372 12.8399 51.1589 12.8399 51.1806 12.8399C51.2023 12.8399 51.224 12.8399 51.2457 12.8399C51.2674 12.8399 51.2891 12.8399 51.3109 12.8399C51.3326 12.8399 51.3544 12.8399 51.3762 12.8399C51.3979 12.8399 51.4197 12.8399 51.4415 12.8399C51.4633 12.8399 51.4851 12.8399 51.5069 12.8399C51.5288 12.8399 51.5506 12.8399 51.5724 12.8399C51.5943 12.8399 51.6161 12.8399 51.638 12.8399C51.6599 12.8399 51.6818 12.8399 51.7036 12.8399C51.7255 12.8399 51.7474 12.8399 51.7694 12.8399C51.7913 12.8399 51.8132 12.8399 51.8352 12.8399C51.8571 12.8399 51.879 12.8399 51.901 12.8399C51.923 12.8399 51.9449 12.8399 51.9669 12.8399C51.9889 12.8399 52.0109 12.8399 52.0329 12.8399C52.0549 12.8399 52.0769 12.8399 52.099 12.8399C52.121 12.8399 52.143 12.8399 52.1651 12.8399C52.1871 12.8399 52.2092 12.8399 52.2313 12.8399C52.2534 12.8399 52.2754 12.8399 52.2975 12.8399C52.3196 12.8399 52.3417 12.8399 52.3638 12.8399C52.386 12.8399 52.4081 12.8399 52.4302 12.8399C52.4523 12.8399 52.4745 12.8399 52.4966 12.8399C52.5188 12.8399 52.541 12.8399 52.5631 12.8399C52.5853 12.8399 52.6075 12.8399 52.6297 12.8399C52.6519 12.8399 52.6741 12.8399 52.6963 12.8399C52.7185 12.8399 52.7407 12.8399 52.763 12.8399C52.7852 12.8399 52.8074 12.8399 52.8297 12.8399C52.8519 12.8399 52.8742 12.8399 52.8965 12.8399C52.9187 12.8399 52.941 12.8399 52.9633 12.8399C52.9856 12.8399 53.0079 12.8399 53.0302 12.8399C53.0525 12.8399 53.0748 12.8399 53.0971 12.8399C53.1194 12.8399 53.1417 12.8399 53.1641 12.8399C53.1864 12.8399 53.2088 12.8399 53.2311 12.8399C53.2535 12.8399 53.2758 12.8399 53.2982 12.8399C53.3206 12.8399 53.3429 12.8399 53.3653 12.8399C53.3877 12.8399 53.4101 12.8399 53.4325 12.8399C53.4549 12.8399 53.4773 12.8399 53.4997 12.8399C53.5221 12.8399 53.5445 12.8399 53.567 12.8399C53.5894 12.8399 53.6118 12.8399 53.6343 12.8399C53.6567 12.8399 53.6792 12.8399 53.7016 12.8399C53.7241 12.8399 53.7466 12.8399 53.769 12.8399C53.7915 12.8399 53.814 12.8399 53.8365 12.8399C53.859 12.8399 53.8815 12.8399 53.904 12.8399C53.9265 12.8399 53.949 12.8399 53.9715 12.8399C53.994 12.8399 54.0165 12.8399 54.039 12.8399C54.0615 12.8399 54.0841 12.8399 54.1066 12.8399C54.1292 12.8399 54.1517 12.8399 54.1742 12.8399C54.1968 12.8399 54.2193 12.8399 54.2419 12.8399C54.2645 12.8399 54.287 12.8399 54.3096 12.8399C54.3322 12.8399 54.3548 12.8399 54.3773 12.8399C54.3999 12.8399 54.4225 12.8399 54.4451 12.8399C54.4677 12.8399 54.4903 12.8399 54.5129 12.8399C54.5355 12.8399 54.5581 12.8399 54.5807 12.8399C54.6033 12.8399 54.6259 12.8399 54.6486 12.8399C54.6712 12.8399 54.6938 12.8399 54.7165 12.8399C54.7391 12.8399 54.7617 12.8399 54.7844 12.8399C54.807 12.8399 54.8297 12.8399 54.8523 12.8399C54.875 12.8399 54.8976 12.8399 54.9203 12.8399C54.9429 12.8399 54.9656 12.8399 54.9883 12.8399C55.0109 12.8399 55.0336 12.8399 55.0563 12.8399C55.0789 12.8399 55.1016 12.8399 55.1243 12.8399C55.147 12.8399 55.1697 12.8399 55.1924 12.8399C55.215 12.8399 55.2377 12.8399 55.2604 12.8399C55.2831 12.8399 55.3058 12.8399 55.3285 12.8399C55.3512 12.8399 55.3739 12.8399 55.3966 12.8399C55.4194 12.8399 55.4421 12.8399 55.4648 12.8399C55.4875 12.8399 55.5102 12.8399 55.5329 12.8399C55.5557 12.8399 55.5784 12.8399 55.6011 12.8399C55.6238 12.8399 55.6466 12.8399 55.6693 12.8399C55.692 12.8399 55.7147 12.8399 55.7375 12.8399C55.7602 12.8399 55.783 12.8399 55.8057 12.8399C55.8284 12.8399 55.8512 12.8399 55.8739 12.8399C55.8967 12.8399 55.9194 12.8399 55.9421 12.8399C55.9649 12.8399 55.9876 12.8399 56.0104 12.8399C56.0331 12.8399 56.0559 12.8399 56.0786 12.8399C56.1014 12.8399 56.1241 12.8399 56.1469 12.8399C56.1697 12.8399 56.1924 12.8399 56.2152 12.8399C56.2379 12.8399 56.2607 12.8399 56.2834 12.8399C56.3062 12.8399 56.329 12.8399 56.3517 12.8399C56.3745 12.8399 56.3972 12.8399 56.42 12.8399C56.4428 12.8399 56.4655 12.8399 56.4883 12.8399C56.5111 12.8399 56.5338 12.8399 56.5566 12.8399C56.5794 12.8399 56.6021 12.8399 56.6249 12.8399C56.6476 12.8399 56.6704 12.8399 56.6932 12.8399C56.7159 12.8399 56.7387 12.8399 56.7615 12.8399C56.7842 12.8399 56.807 12.8399 56.8298 12.8399C56.8525 12.8399 56.8753 12.8399 56.898 12.8399C56.9208 12.8399 56.9436 12.8399 56.9663 12.8399C56.9891 12.8399 57.0119 12.8399 57.0346 12.8399C57.0574 12.8399 57.0801 12.8399 57.1029 12.8399C57.1257 12.8399 57.1484 12.8399 57.1712 12.8399C57.1939 12.8399 57.2167 12.8399 57.2394 12.8399C57.2622 12.8399 57.2849 12.8399 57.3077 12.8399C57.3304 12.8399 57.3532 12.8399 57.3759 12.8399C57.3987 12.8399 57.4214 12.8399 57.4442 12.8399C57.4669 12.8399 57.4897 12.8399 57.5124 12.8399C57.5351 12.8399 57.5579 12.8399 57.5806 12.8399C57.6033 12.8399 57.6261 12.8399 57.6488 12.8399C57.6715 12.8399 57.6943 12.8399 57.717 12.8399C57.7397 12.8399 57.7624 12.8399 57.7852 12.8399C57.8079 12.8399 57.8306 12.8399 57.8533 12.8399C57.876 12.8399 57.8988 12.8399 57.9215 12.8399C57.9442 12.8399 57.9669 12.8399 57.9896 12.8399C58.0123 12.8399 58.035 12.8399 58.0577 12.8399C58.0804 12.8399 58.1031 12.8399 58.1258 12.8399C58.1485 12.8399 58.1712 12.8399 58.1938 12.8399C58.2165 12.8399 58.2392 12.8399 58.2619 12.8399C58.2846 12.8399 58.3072 12.8399 58.3299 12.8399C58.3526 12.8399 58.3752 12.8399 58.3979 12.8399C58.4206 12.8399 58.4432 12.8399 58.4659 12.8399C58.4885 12.8399 58.5112 12.8399 58.5338 12.8399C58.5565 12.8399 58.5791 12.8399 58.6017 12.8399C58.6244 12.8399 58.647 12.8399 58.6696 12.8399C58.6923 12.8399 58.7149 12.8399 58.7375 12.8399C58.7601 12.8399 58.7827 12.8399 58.8053 12.8399C58.8279 12.8399 58.8505 12.8399 58.8731 12.8399C58.8957 12.8399 58.9183 12.8399 58.9409 12.8399C58.9635 12.8399 58.9861 12.8399 59.0087 12.8399C59.0312 12.8399 59.0538 12.8399 59.0764 12.8399C59.0989 12.8399 59.1215 12.8399 59.144 12.8399C59.1666 12.8399 59.1891 12.8399 59.2117 12.8399C59.2342 12.8399 59.2568 12.8399 59.2793 12.8399C59.3018 12.8399 59.3243 12.8399 59.3469 12.8399C59.3694 12.8399 59.3919 12.8399 59.4144 12.8399C59.4369 12.8399 59.4594 12.8399 59.4819 12.8399C59.5044 12.8399 59.5269 12.8399 59.5493 12.8399C59.5718 12.8399 59.5943 12.8399 59.6167 12.8399C59.6392 12.8399 59.6617 12.8399 59.6841 12.8399C59.7066 12.8399 59.729 12.8399 59.7514 12.8399C59.7739 12.8399 59.7963 12.8399 59.8187 12.8399C59.8411 12.8399 59.8636 12.8399 59.886 12.8399C59.9084 12.8399 59.9308 12.8399 59.9532 12.8399C59.9755 12.8399 59.9979 12.8399 60.0203 12.8399C60.0427 12.8399 60.065 12.8399 60.0874 12.8399C60.1098 12.8399 60.1321 12.8399 60.1544 12.8399C60.1768 12.8399 60.1991 12.8399 60.2214 12.8399C60.2438 12.8399 60.2661 12.8399 60.2884 12.8399C60.3107 12.8399 60.333 12.8399 60.3553 12.8399C60.3776 12.8399 60.3999 12.8399 60.4221 12.8399C60.4444 12.8399 60.4667 12.8399 60.4889 12.8399C60.5112 12.8399 60.5334 12.8399 60.5557 12.8399C60.5779 12.8399 60.6001 12.8399 60.6224 12.8399C60.6446 12.8399 60.6668 12.8399 60.689 12.8399C60.7112 12.8399 60.7334 12.8399 60.7556 12.8399C60.7777 12.8399 60.7999 12.8399 60.8221 12.8399C60.8442 12.8399 60.8664 12.8399 60.8885 12.8399C60.9107 12.8399 60.9328 12.8399 60.9549 12.8399C60.977 12.8399 60.9991 12.8399 61.0212 12.8399C61.0434 12.8399 61.0654 12.8399 61.0875 12.8399C61.1096 12.8399 61.1317 12.8399 61.1537 12.8399C61.1758 12.8399 61.1978 12.8399 61.2199 12.8399C61.2419 12.8399 61.2639 12.8399 61.286 12.8399C61.308 12.8399 61.33 12.8399 61.352 12.8399C61.374 12.8399 61.3959 12.8399 61.4179 12.8399C61.4399 12.8399 61.4618 12.8399 61.4838 12.8399C61.5057 12.8399 61.5277 12.8399 61.5496 12.8399C61.5715 12.8399 61.5934 12.8399 61.6153 12.8399C61.6372 12.8399 61.6591 12.8399 61.681 12.8399C61.7029 12.8399 61.7248 12.8399 61.7466 12.8399C61.7685 12.8399 61.7903 12.8399 61.8121 12.8399C61.834 12.8399 61.8558 12.8399 61.8776 12.8399C61.8994 12.8399 61.9212 12.8399 61.943 12.8399C61.9647 12.8399 61.9865 12.8399 62.0083 12.8399C62.03 12.8399 62.0518 12.8399 62.0735 12.8399C62.0952 12.8399 62.1169 12.8399 62.1386 12.8399C62.1604 12.8399 62.182 12.8399 62.2037 12.8399C62.2254 12.8399 62.2471 12.8399 62.2687 12.8399C62.2904 12.8399 62.312 12.8399 62.3336 12.8399C62.3552 12.8399 62.3769 12.8399 62.3985 12.8399C62.42 12.8399 62.4416 12.8399 62.4632 12.8399C62.4848 12.8399 62.5063 12.8399 62.5279 12.8399C62.5494 12.8399 62.5709 12.8399 62.5924 12.8399C62.614 12.8399 62.6355 12.8399 62.6569 12.8399C62.6784 12.8399 62.6999 12.8399 62.7214 12.8399C62.7428 12.8399 62.7642 12.8399 62.7857 12.8399C62.8071 12.8399 62.8285 12.8399 62.8499 12.8399C62.8713 12.8399 62.8927 12.8399 62.9141 12.8399C62.9354 12.8399 62.9568 12.8399 62.9781 12.8399C62.9995 12.8399 63.0208 12.8399 63.0421 12.8399C63.0634 12.8399 63.0847 12.8399 63.106 12.8399C63.1272 12.8399 63.1485 12.8399 63.1697 12.8399C63.191 12.8399 63.2122 12.8399 63.2334 12.8399C63.2546 12.8399 63.2758 12.8399 63.297 12.8399C63.3182 12.8399 63.3394 12.8399 63.3605 12.8399C63.3817 12.8399 63.4028 12.8399 63.4239 12.8399C63.445 12.8399 63.4661 12.8399 63.4872 12.8399C63.5083 12.8399 63.5294 12.8399 63.5504 12.8399C63.5715 12.8399 63.5925 12.8399 63.6135 12.8399C63.6345 12.8399 63.6555 12.8399 63.6765 12.8399C63.6975 12.8399 63.7185 12.8399 63.7394 12.8399C63.7604 12.8399 63.7813 12.8399 63.8022 12.8399C63.8232 12.8399 63.8441 12.8399 63.8649 12.8399C63.8858 12.8399 63.9067 12.8399 63.9275 12.8399C63.9484 12.8399 63.9692 12.8399 63.99 12.8399C64.0108 12.8399 64.0316 12.8399 64.0524 12.8399C64.0732 12.8399 64.0939 12.8399 64.1147 12.8399C64.1354 12.8399 64.1561 12.8399 64.1768 12.8399C64.1975 12.8399 64.2182 12.8399 64.2389 12.8399C64.2596 12.8399 64.2802 12.8399 64.3008 12.8399C64.3215 12.8399 64.3421 12.8399 64.3627 12.8399C64.3833 12.8399 64.4039 12.8399 64.4244 12.8399C64.445 12.8399 64.4655 12.8399 64.486 12.8399C64.5065 12.8399 64.527 12.8399 64.5475 12.8399C64.568 12.8399 64.5885 12.8399 64.6089 12.8399C64.6293 12.8399 64.6498 12.8399 64.6702 12.8399C64.6906 12.8399 64.7109 12.8399 64.7313 12.8399C64.7517 12.8399 64.772 12.8399 64.7923 12.8399C64.8127 12.8399 64.833 12.8399 64.8533 12.8399C64.8735 12.8399 64.8938 12.8399 64.9141 12.8399C64.9343 12.8399 64.9545 12.8399 64.9747 12.8399C64.9949 12.8399 65.0151 12.8399 65.0353 12.8399C65.0554 12.8399 65.0756 12.8399 65.0957 12.8399C65.1158 12.8399 65.1359 12.8399 65.156 12.8399C65.1761 12.8399 65.1962 12.8399 65.2162 12.8399C65.2362 12.8399 65.2563 12.8399 65.2763 12.8399C65.2962 12.8399 65.3162 12.8399 65.3362 12.8399C65.3561 12.8399 65.3761 12.8399 65.396 12.8399C65.4159 12.8399 65.4358 12.8399 65.4557 12.8399C65.4755 12.8399 65.4954 12.8399 65.5152 12.8399V10.3399C65.4954 10.3399 65.4755 10.3399 65.4557 10.3399C65.4358 10.3399 65.4159 10.3399 65.396 10.3399C65.3761 10.3399 65.3561 10.3399 65.3362 10.3399C65.3162 10.3399 65.2962 10.3399 65.2763 10.3399C65.2563 10.3399 65.2362 10.3399 65.2162 10.3399C65.1962 10.3399 65.1761 10.3399 65.156 10.3399C65.1359 10.3399 65.1158 10.3399 65.0957 10.3399C65.0756 10.3399 65.0554 10.3399 65.0353 10.3399C65.0151 10.3399 64.9949 10.3399 64.9747 10.3399C64.9545 10.3399 64.9343 10.3399 64.9141 10.3399C64.8938 10.3399 64.8735 10.3399 64.8533 10.3399C64.833 10.3399 64.8127 10.3399 64.7923 10.3399C64.772 10.3399 64.7517 10.3399 64.7313 10.3399C64.7109 10.3399 64.6906 10.3399 64.6702 10.3399C64.6498 10.3399 64.6293 10.3399 64.6089 10.3399C64.5885 10.3399 64.568 10.3399 64.5475 10.3399C64.527 10.3399 64.5065 10.3399 64.486 10.3399C64.4655 10.3399 64.445 10.3399 64.4244 10.3399C64.4039 10.3399 64.3833 10.3399 64.3627 10.3399C64.3421 10.3399 64.3215 10.3399 64.3008 10.3399C64.2802 10.3399 64.2596 10.3399 64.2389 10.3399C64.2182 10.3399 64.1975 10.3399 64.1768 10.3399C64.1561 10.3399 64.1354 10.3399 64.1147 10.3399C64.0939 10.3399 64.0732 10.3399 64.0524 10.3399C64.0316 10.3399 64.0108 10.3399 63.99 10.3399C63.9692 10.3399 63.9484 10.3399 63.9275 10.3399C63.9067 10.3399 63.8858 10.3399 63.8649 10.3399C63.8441 10.3399 63.8232 10.3399 63.8022 10.3399C63.7813 10.3399 63.7604 10.3399 63.7394 10.3399C63.7185 10.3399 63.6975 10.3399 63.6765 10.3399C63.6555 10.3399 63.6345 10.3399 63.6135 10.3399C63.5925 10.3399 63.5715 10.3399 63.5504 10.3399C63.5294 10.3399 63.5083 10.3399 63.4872 10.3399C63.4661 10.3399 63.445 10.3399 63.4239 10.3399C63.4028 10.3399 63.3817 10.3399 63.3605 10.3399C63.3394 10.3399 63.3182 10.3399 63.297 10.3399C63.2758 10.3399 63.2546 10.3399 63.2334 10.3399C63.2122 10.3399 63.191 10.3399 63.1697 10.3399C63.1485 10.3399 63.1272 10.3399 63.106 10.3399C63.0847 10.3399 63.0634 10.3399 63.0421 10.3399C63.0208 10.3399 62.9995 10.3399 62.9781 10.3399C62.9568 10.3399 62.9354 10.3399 62.9141 10.3399C62.8927 10.3399 62.8713 10.3399 62.8499 10.3399C62.8285 10.3399 62.8071 10.3399 62.7857 10.3399C62.7642 10.3399 62.7428 10.3399 62.7214 10.3399C62.6999 10.3399 62.6784 10.3399 62.6569 10.3399C62.6355 10.3399 62.614 10.3399 62.5924 10.3399C62.5709 10.3399 62.5494 10.3399 62.5279 10.3399C62.5063 10.3399 62.4848 10.3399 62.4632 10.3399C62.4416 10.3399 62.42 10.3399 62.3985 10.3399C62.3769 10.3399 62.3552 10.3399 62.3336 10.3399C62.312 10.3399 62.2904 10.3399 62.2687 10.3399C62.2471 10.3399 62.2254 10.3399 62.2037 10.3399C62.182 10.3399 62.1604 10.3399 62.1386 10.3399C62.1169 10.3399 62.0952 10.3399 62.0735 10.3399C62.0518 10.3399 62.03 10.3399 62.0083 10.3399C61.9865 10.3399 61.9647 10.3399 61.943 10.3399C61.9212 10.3399 61.8994 10.3399 61.8776 10.3399C61.8558 10.3399 61.834 10.3399 61.8121 10.3399C61.7903 10.3399 61.7685 10.3399 61.7466 10.3399C61.7248 10.3399 61.7029 10.3399 61.681 10.3399C61.6591 10.3399 61.6372 10.3399 61.6153 10.3399C61.5934 10.3399 61.5715 10.3399 61.5496 10.3399C61.5277 10.3399 61.5057 10.3399 61.4838 10.3399C61.4618 10.3399 61.4399 10.3399 61.4179 10.3399C61.3959 10.3399 61.374 10.3399 61.352 10.3399C61.33 10.3399 61.308 10.3399 61.286 10.3399C61.2639 10.3399 61.2419 10.3399 61.2199 10.3399C61.1978 10.3399 61.1758 10.3399 61.1537 10.3399C61.1317 10.3399 61.1096 10.3399 61.0875 10.3399C61.0654 10.3399 61.0434 10.3399 61.0212 10.3399C60.9991 10.3399 60.977 10.3399 60.9549 10.3399C60.9328 10.3399 60.9107 10.3399 60.8885 10.3399C60.8664 10.3399 60.8442 10.3399 60.8221 10.3399C60.7999 10.3399 60.7777 10.3399 60.7556 10.3399C60.7334 10.3399 60.7112 10.3399 60.689 10.3399C60.6668 10.3399 60.6446 10.3399 60.6224 10.3399C60.6001 10.3399 60.5779 10.3399 60.5557 10.3399C60.5334 10.3399 60.5112 10.3399 60.4889 10.3399C60.4667 10.3399 60.4444 10.3399 60.4221 10.3399C60.3999 10.3399 60.3776 10.3399 60.3553 10.3399C60.333 10.3399 60.3107 10.3399 60.2884 10.3399C60.2661 10.3399 60.2438 10.3399 60.2214 10.3399C60.1991 10.3399 60.1768 10.3399 60.1544 10.3399C60.1321 10.3399 60.1098 10.3399 60.0874 10.3399C60.065 10.3399 60.0427 10.3399 60.0203 10.3399C59.9979 10.3399 59.9755 10.3399 59.9532 10.3399C59.9308 10.3399 59.9084 10.3399 59.886 10.3399C59.8636 10.3399 59.8411 10.3399 59.8187 10.3399C59.7963 10.3399 59.7739 10.3399 59.7514 10.3399C59.729 10.3399 59.7066 10.3399 59.6841 10.3399C59.6617 10.3399 59.6392 10.3399 59.6167 10.3399C59.5943 10.3399 59.5718 10.3399 59.5493 10.3399C59.5269 10.3399 59.5044 10.3399 59.4819 10.3399C59.4594 10.3399 59.4369 10.3399 59.4144 10.3399C59.3919 10.3399 59.3694 10.3399 59.3469 10.3399C59.3243 10.3399 59.3018 10.3399 59.2793 10.3399C59.2568 10.3399 59.2342 10.3399 59.2117 10.3399C59.1891 10.3399 59.1666 10.3399 59.144 10.3399C59.1215 10.3399 59.0989 10.3399 59.0764 10.3399C59.0538 10.3399 59.0312 10.3399 59.0087 10.3399C58.9861 10.3399 58.9635 10.3399 58.9409 10.3399C58.9183 10.3399 58.8957 10.3399 58.8731 10.3399C58.8505 10.3399 58.8279 10.3399 58.8053 10.3399C58.7827 10.3399 58.7601 10.3399 58.7375 10.3399C58.7149 10.3399 58.6923 10.3399 58.6696 10.3399C58.647 10.3399 58.6244 10.3399 58.6017 10.3399C58.5791 10.3399 58.5565 10.3399 58.5338 10.3399C58.5112 10.3399 58.4885 10.3399 58.4659 10.3399C58.4432 10.3399 58.4206 10.3399 58.3979 10.3399C58.3752 10.3399 58.3526 10.3399 58.3299 10.3399C58.3072 10.3399 58.2846 10.3399 58.2619 10.3399C58.2392 10.3399 58.2165 10.3399 58.1938 10.3399C58.1712 10.3399 58.1485 10.3399 58.1258 10.3399C58.1031 10.3399 58.0804 10.3399 58.0577 10.3399C58.035 10.3399 58.0123 10.3399 57.9896 10.3399C57.9669 10.3399 57.9442 10.3399 57.9215 10.3399C57.8988 10.3399 57.876 10.3399 57.8533 10.3399C57.8306 10.3399 57.8079 10.3399 57.7852 10.3399C57.7624 10.3399 57.7397 10.3399 57.717 10.3399C57.6943 10.3399 57.6715 10.3399 57.6488 10.3399C57.6261 10.3399 57.6033 10.3399 57.5806 10.3399C57.5579 10.3399 57.5351 10.3399 57.5124 10.3399C57.4897 10.3399 57.4669 10.3399 57.4442 10.3399C57.4214 10.3399 57.3987 10.3399 57.3759 10.3399C57.3532 10.3399 57.3304 10.3399 57.3077 10.3399C57.2849 10.3399 57.2622 10.3399 57.2394 10.3399C57.2167 10.3399 57.1939 10.3399 57.1712 10.3399C57.1484 10.3399 57.1257 10.3399 57.1029 10.3399C57.0801 10.3399 57.0574 10.3399 57.0346 10.3399C57.0119 10.3399 56.9891 10.3399 56.9663 10.3399C56.9436 10.3399 56.9208 10.3399 56.898 10.3399C56.8753 10.3399 56.8525 10.3399 56.8298 10.3399C56.807 10.3399 56.7842 10.3399 56.7615 10.3399C56.7387 10.3399 56.7159 10.3399 56.6932 10.3399C56.6704 10.3399 56.6476 10.3399 56.6249 10.3399C56.6021 10.3399 56.5794 10.3399 56.5566 10.3399C56.5338 10.3399 56.5111 10.3399 56.4883 10.3399C56.4655 10.3399 56.4428 10.3399 56.42 10.3399C56.3972 10.3399 56.3745 10.3399 56.3517 10.3399C56.329 10.3399 56.3062 10.3399 56.2834 10.3399C56.2607 10.3399 56.2379 10.3399 56.2152 10.3399C56.1924 10.3399 56.1697 10.3399 56.1469 10.3399C56.1241 10.3399 56.1014 10.3399 56.0786 10.3399C56.0559 10.3399 56.0331 10.3399 56.0104 10.3399C55.9876 10.3399 55.9649 10.3399 55.9421 10.3399C55.9194 10.3399 55.8967 10.3399 55.8739 10.3399C55.8512 10.3399 55.8284 10.3399 55.8057 10.3399C55.783 10.3399 55.7602 10.3399 55.7375 10.3399C55.7147 10.3399 55.692 10.3399 55.6693 10.3399C55.6466 10.3399 55.6238 10.3399 55.6011 10.3399C55.5784 10.3399 55.5557 10.3399 55.5329 10.3399C55.5102 10.3399 55.4875 10.3399 55.4648 10.3399C55.4421 10.3399 55.4194 10.3399 55.3966 10.3399C55.3739 10.3399 55.3512 10.3399 55.3285 10.3399C55.3058 10.3399 55.2831 10.3399 55.2604 10.3399C55.2377 10.3399 55.215 10.3399 55.1924 10.3399C55.1697 10.3399 55.147 10.3399 55.1243 10.3399C55.1016 10.3399 55.0789 10.3399 55.0563 10.3399C55.0336 10.3399 55.0109 10.3399 54.9883 10.3399C54.9656 10.3399 54.9429 10.3399 54.9203 10.3399C54.8976 10.3399 54.875 10.3399 54.8523 10.3399C54.8297 10.3399 54.807 10.3399 54.7844 10.3399C54.7617 10.3399 54.7391 10.3399 54.7165 10.3399C54.6938 10.3399 54.6712 10.3399 54.6486 10.3399C54.6259 10.3399 54.6033 10.3399 54.5807 10.3399C54.5581 10.3399 54.5355 10.3399 54.5129 10.3399C54.4903 10.3399 54.4677 10.3399 54.4451 10.3399C54.4225 10.3399 54.3999 10.3399 54.3773 10.3399C54.3548 10.3399 54.3322 10.3399 54.3096 10.3399C54.287 10.3399 54.2645 10.3399 54.2419 10.3399C54.2193 10.3399 54.1968 10.3399 54.1742 10.3399C54.1517 10.3399 54.1292 10.3399 54.1066 10.3399C54.0841 10.3399 54.0615 10.3399 54.039 10.3399C54.0165 10.3399 53.994 10.3399 53.9715 10.3399C53.949 10.3399 53.9265 10.3399 53.904 10.3399C53.8815 10.3399 53.859 10.3399 53.8365 10.3399C53.814 10.3399 53.7915 10.3399 53.769 10.3399C53.7466 10.3399 53.7241 10.3399 53.7016 10.3399C53.6792 10.3399 53.6567 10.3399 53.6343 10.3399C53.6118 10.3399 53.5894 10.3399 53.567 10.3399C53.5445 10.3399 53.5221 10.3399 53.4997 10.3399C53.4773 10.3399 53.4549 10.3399 53.4325 10.3399C53.4101 10.3399 53.3877 10.3399 53.3653 10.3399C53.3429 10.3399 53.3206 10.3399 53.2982 10.3399C53.2758 10.3399 53.2535 10.3399 53.2311 10.3399C53.2088 10.3399 53.1864 10.3399 53.1641 10.3399C53.1417 10.3399 53.1194 10.3399 53.0971 10.3399C53.0748 10.3399 53.0525 10.3399 53.0302 10.3399C53.0079 10.3399 52.9856 10.3399 52.9633 10.3399C52.941 10.3399 52.9187 10.3399 52.8965 10.3399C52.8742 10.3399 52.8519 10.3399 52.8297 10.3399C52.8074 10.3399 52.7852 10.3399 52.763 10.3399C52.7407 10.3399 52.7185 10.3399 52.6963 10.3399C52.6741 10.3399 52.6519 10.3399 52.6297 10.3399C52.6075 10.3399 52.5853 10.3399 52.5631 10.3399C52.541 10.3399 52.5188 10.3399 52.4966 10.3399C52.4745 10.3399 52.4523 10.3399 52.4302 10.3399C52.4081 10.3399 52.386 10.3399 52.3638 10.3399C52.3417 10.3399 52.3196 10.3399 52.2975 10.3399C52.2754 10.3399 52.2534 10.3399 52.2313 10.3399C52.2092 10.3399 52.1871 10.3399 52.1651 10.3399C52.143 10.3399 52.121 10.3399 52.099 10.3399C52.0769 10.3399 52.0549 10.3399 52.0329 10.3399C52.0109 10.3399 51.9889 10.3399 51.9669 10.3399C51.9449 10.3399 51.923 10.3399 51.901 10.3399C51.879 10.3399 51.8571 10.3399 51.8352 10.3399C51.8132 10.3399 51.7913 10.3399 51.7694 10.3399C51.7474 10.3399 51.7255 10.3399 51.7036 10.3399C51.6818 10.3399 51.6599 10.3399 51.638 10.3399C51.6161 10.3399 51.5943 10.3399 51.5724 10.3399C51.5506 10.3399 51.5288 10.3399 51.5069 10.3399C51.4851 10.3399 51.4633 10.3399 51.4415 10.3399C51.4197 10.3399 51.3979 10.3399 51.3762 10.3399C51.3544 10.3399 51.3326 10.3399 51.3109 10.3399C51.2891 10.3399 51.2674 10.3399 51.2457 10.3399C51.224 10.3399 51.2023 10.3399 51.1806 10.3399C51.1589 10.3399 51.1372 10.3399 51.1155 10.3399C51.0938 10.3399 51.0722 10.3399 51.0506 10.3399C51.0289 10.3399 51.0073 10.3399 50.9857 10.3399C50.9641 10.3399 50.9425 10.3399 50.9209 10.3399C50.8993 10.3399 50.8777 10.3399 50.8562 10.3399C50.8346 10.3399 50.813 10.3399 50.7915 10.3399C50.77 10.3399 50.7485 10.3399 50.727 10.3399C50.7055 10.3399 50.684 10.3399 50.6625 10.3399C50.641 10.3399 50.6196 10.3399 50.5981 10.3399C50.5767 10.3399 50.5552 10.3399 50.5338 10.3399C50.5124 10.3399 50.491 10.3399 50.4696 10.3399C50.4482 10.3399 50.4269 10.3399 50.4055 10.3399C50.3842 10.3399 50.3628 10.3399 50.3415 10.3399C50.3202 10.3399 50.2989 10.3399 50.2776 10.3399C50.2563 10.3399 50.235 10.3399 50.2137 10.3399C50.1924 10.3399 50.1712 10.3399 50.15 10.3399C50.1287 10.3399 50.1075 10.3399 50.0863 10.3399C50.0651 10.3399 50.0439 10.3399 50.0228 10.3399C50.0016 10.3399 49.9804 10.3399 49.9593 10.3399C49.9382 10.3399 49.917 10.3399 49.8959 10.3399C49.8748 10.3399 49.8537 10.3399 49.8327 10.3399C49.8116 10.3399 49.7905 10.3399 49.7695 10.3399C49.7484 10.3399 49.7274 10.3399 49.7064 10.3399C49.6854 10.3399 49.6644 10.3399 49.6435 10.3399C49.6225 10.3399 49.6015 10.3399 49.5806 10.3399C49.5596 10.3399 49.5387 10.3399 49.5178 10.3399C49.4969 10.3399 49.476 10.3399 49.4552 10.3399C49.4343 10.3399 49.4134 10.3399 49.3926 10.3399C49.3718 10.3399 49.351 10.3399 49.3302 10.3399C49.3094 10.3399 49.2886 10.3399 49.2678 10.3399C49.247 10.3399 49.2263 10.3399 49.2056 10.3399C49.1848 10.3399 49.1641 10.3399 49.1434 10.3399C49.1228 10.3399 49.1021 10.3399 49.0814 10.3399C49.0608 10.3399 49.0401 10.3399 49.0195 10.3399C48.9989 10.3399 48.9783 10.3399 48.9577 10.3399C48.9371 10.3399 48.9166 10.3399 48.896 10.3399C48.8755 10.3399 48.855 10.3399 48.8345 10.3399C48.814 10.3399 48.7935 10.3399 48.773 10.3399C48.7525 10.3399 48.7321 10.3399 48.7117 10.3399C48.6912 10.3399 48.6708 10.3399 48.6504 10.3399C48.6301 10.3399 48.6097 10.3399 48.5893 10.3399C48.569 10.3399 48.5487 10.3399 48.5283 10.3399C48.508 10.3399 48.4877 10.3399 48.4675 10.3399C48.4472 10.3399 48.427 10.3399 48.4067 10.3399C48.3865 10.3399 48.3663 10.3399 48.3461 10.3399C48.3259 10.3399 48.3057 10.3399 48.2856 10.3399C48.2654 10.3399 48.2453 10.3399 48.2252 10.3399C48.2051 10.3399 48.185 10.3399 48.1649 10.3399C48.1449 10.3399 48.1248 10.3399 48.1048 10.3399C48.0848 10.3399 48.0648 10.3399 48.0448 10.3399C48.0248 10.3399 48.0048 10.3399 47.9849 10.3399C47.965 10.3399 47.945 10.3399 47.9252 10.3399C47.9053 10.3399 47.8854 10.3399 47.8655 10.3399C47.8457 10.3399 47.8258 10.3399 47.806 10.3399C47.7862 10.3399 47.7664 10.3399 47.7467 10.3399C47.7269 10.3399 47.7071 10.3399 47.6874 10.3399C47.6677 10.3399 47.648 10.3399 47.6283 10.3399C47.6086 10.3399 47.589 10.3399 47.5694 10.3399C47.5497 10.3399 47.5301 10.3399 47.5105 10.3399C47.4909 10.3399 47.4714 10.3399 47.4518 10.3399C47.4323 10.3399 47.4128 10.3399 47.3933 10.3399C47.3738 10.3399 47.3543 10.3399 47.3348 10.3399C47.3154 10.3399 47.2959 10.3399 47.2765 10.3399C47.2571 10.3399 47.2378 10.3399 47.2184 10.3399C47.199 10.3399 47.1797 10.3399 47.1604 10.3399C47.1411 10.3399 47.1218 10.3399 47.1025 10.3399C47.0833 10.3399 47.064 10.3399 47.0448 10.3399C47.0256 10.3399 47.0064 10.3399 46.9872 10.3399C46.968 10.3399 46.9489 10.3399 46.9298 10.3399C46.9107 10.3399 46.8916 10.3399 46.8725 10.3399C46.8534 10.3399 46.8344 10.3399 46.8153 10.3399C46.7963 10.3399 46.7773 10.3399 46.7583 10.3399C46.7394 10.3399 46.7204 10.3399 46.7015 10.3399C46.6826 10.3399 46.6637 10.3399 46.6448 10.3399C46.6259 10.3399 46.6071 10.3399 46.5882 10.3399C46.5694 10.3399 46.5506 10.3399 46.5318 10.3399C46.5131 10.3399 46.4943 10.3399 46.4756 10.3399C46.4569 10.3399 46.4382 10.3399 46.4195 10.3399C46.4008 10.3399 46.3822 10.3399 46.3635 10.3399C46.3449 10.3399 46.3263 10.3399 46.3077 10.3399C46.2892 10.3399 46.2706 10.3399 46.2521 10.3399C46.2336 10.3399 46.2151 10.3399 46.1966 10.3399C46.1782 10.3399 46.1597 10.3399 46.1413 10.3399C46.1229 10.3399 46.1045 10.3399 46.0862 10.3399C46.0678 10.3399 46.0495 10.3399 46.0312 10.3399C46.0128 10.3399 45.9946 10.3399 45.9763 10.3399C45.9581 10.3399 45.9398 10.3399 45.9216 10.3399C45.9034 10.3399 45.8853 10.3399 45.8671 10.3399C45.849 10.3399 45.8309 10.3399 45.8128 10.3399C45.7947 10.3399 45.7766 10.3399 45.7586 10.3399C45.7405 10.3399 45.7225 10.3399 45.7046 10.3399C45.6866 10.3399 45.6686 10.3399 45.6507 10.3399C45.6328 10.3399 45.6149 10.3399 45.597 10.3399C45.5791 10.3399 45.5613 10.3399 45.5435 10.3399C45.5257 10.3399 45.5079 10.3399 45.4901 10.3399C45.4724 10.3399 45.4546 10.3399 45.4369 10.3399C45.4192 10.3399 45.4016 10.3399 45.3839 10.3399C45.3663 10.3399 45.3487 10.3399 45.3311 10.3399C45.3135 10.3399 45.2959 10.3399 45.2784 10.3399C45.2609 10.3399 45.2434 10.3399 45.2259 10.3399C45.2085 10.3399 45.191 10.3399 45.1736 10.3399C45.1562 10.3399 45.1388 10.3399 45.1215 10.3399C45.1041 10.3399 45.0868 10.3399 45.0695 10.3399C45.0522 10.3399 45.0349 10.3399 45.0177 10.3399C45.0005 10.3399 44.9833 10.3399 44.9661 10.3399C44.9489 10.3399 44.9318 10.3399 44.9147 10.3399C44.8976 10.3399 44.8805 10.3399 44.8634 10.3399C44.8464 10.3399 44.8293 10.3399 44.8124 10.3399C44.7954 10.3399 44.7784 10.3399 44.7615 10.3399C44.7445 10.3399 44.7276 10.3399 44.7108 10.3399C44.6939 10.3399 44.6771 10.3399 44.6603 10.3399C44.6434 10.3399 44.6267 10.3399 44.6099 10.3399C44.5932 10.3399 44.5765 10.3399 44.5598 10.3399C44.5431 10.3399 44.5264 10.3399 44.5098 10.3399C44.4932 10.3399 44.4766 10.3399 44.4601 10.3399C44.4435 10.3399 44.427 10.3399 44.4105 10.3399C44.394 10.3399 44.3775 10.3399 44.3611 10.3399C44.3447 10.3399 44.3283 10.3399 44.3119 10.3399C44.2955 10.3399 44.2792 10.3399 44.2629 10.3399C44.2466 10.3399 44.2303 10.3399 44.2141 10.3399C44.1978 10.3399 44.1816 10.3399 44.1655 10.3399C44.1493 10.3399 44.1331 10.3399 44.117 10.3399C44.1009 10.3399 44.0848 10.3399 44.0688 10.3399C44.0528 10.3399 44.0367 10.3399 44.0208 10.3399C44.0048 10.3399 43.9888 10.3399 43.9729 10.3399C43.957 10.3399 43.9411 10.3399 43.9253 10.3399C43.9095 10.3399 43.8936 10.3399 43.8779 10.3399C43.8621 10.3399 43.8463 10.3399 43.8306 10.3399C43.8149 10.3399 43.7993 10.3399 43.7836 10.3399C43.768 10.3399 43.7524 10.3399 43.7368 10.3399C43.7212 10.3399 43.7057 10.3399 43.6902 10.3399C43.6746 10.3399 43.6592 10.3399 43.6437 10.3399C43.6283 10.3399 43.6129 10.3399 43.5975 10.3399C43.5822 10.3399 43.5668 10.3399 43.5515 10.3399C43.5362 10.3399 43.5209 10.3399 43.5057 10.3399C43.4905 10.3399 43.4753 10.3399 43.4601 10.3399C43.445 10.3399 43.4298 10.3399 43.4147 10.3399C43.3997 10.3399 43.3846 10.3399 43.3696 10.3399C43.3545 10.3399 43.3396 10.3399 43.3246 10.3399C43.3097 10.3399 43.2947 10.3399 43.2799 10.3399C43.265 10.3399 43.2501 10.3399 43.2353 10.3399C43.2205 10.3399 43.2057 10.3399 43.191 10.3399C43.1763 10.3399 43.1616 10.3399 43.1469 10.3399C43.1322 10.3399 43.1176 10.3399 43.103 10.3399C43.0884 10.3399 43.0739 10.3399 43.0594 10.3399C43.0448 10.3399 43.0303 10.3399 43.0159 10.3399C43.0015 10.3399 42.987 10.3399 42.9727 10.3399C42.9583 10.3399 42.944 10.3399 42.9297 10.3399C42.9154 10.3399 42.9011 10.3399 42.8869 10.3399C42.8726 10.3399 42.8584 10.3399 42.8443 10.3399C42.8301 10.3399 42.816 10.3399 42.8019 10.3399C42.7879 10.3399 42.7738 10.3399 42.7598 10.3399C42.7458 10.3399 42.7319 10.3399 42.7179 10.3399C42.704 10.3399 42.6901 10.3399 42.6763 10.3399C42.6624 10.3399 42.6486 10.3399 42.6348 10.3399C42.621 10.3399 42.6073 10.3399 42.5936 10.3399C42.5799 10.3399 42.5662 10.3399 42.5526 10.3399C42.539 10.3399 42.5254 10.3399 42.5118 10.3399C42.4983 10.3399 42.4848 10.3399 42.4713 10.3399C42.4578 10.3399 42.4444 10.3399 42.431 10.3399C42.4176 10.3399 42.4043 10.3399 42.391 10.3399C42.3776 10.3399 42.3644 10.3399 42.3511 10.3399C42.3379 10.3399 42.3247 10.3399 42.3115 10.3399C42.2984 10.3399 42.2853 10.3399 42.2722 10.3399C42.2591 10.3399 42.2461 10.3399 42.2331 10.3399C42.2201 10.3399 42.2071 10.3399 42.1942 10.3399C42.1812 10.3399 42.1684 10.3399 42.1555 10.3399C42.1427 10.3399 42.1299 10.3399 42.1171 10.3399C42.1043 10.3399 42.0916 10.3399 42.0789 10.3399C42.0663 10.3399 42.0536 10.3399 42.041 10.3399C42.0284 10.3399 42.0159 10.3399 42.0033 10.3399C41.9908 10.3399 41.9783 10.3399 41.9659 10.3399C41.9535 10.3399 41.9411 10.3399 41.9287 10.3399C41.9163 10.3399 41.904 10.3399 41.8917 10.3399C41.8795 10.3399 41.8672 10.3399 41.855 10.3399C41.8428 10.3399 41.8307 10.3399 41.8186 10.3399C41.8065 10.3399 41.7944 10.3399 41.7824 10.3399C41.7703 10.3399 41.7584 10.3399 41.7464 10.3399C41.7345 10.3399 41.7226 10.3399 41.7107 10.3399C41.6988 10.3399 41.687 10.3399 41.6752 10.3399C41.6635 10.3399 41.6517 10.3399 41.64 10.3399C41.6283 10.3399 41.6167 10.3399 41.6051 10.3399C41.5935 10.3399 41.5819 10.3399 41.5704 10.3399C41.5588 10.3399 41.5474 10.3399 41.5359 10.3399C41.5245 10.3399 41.5131 10.3399 41.5017 10.3399C41.4904 10.3399 41.4791 10.3399 41.4678 10.3399C41.4565 10.3399 41.4453 10.3399 41.4341 10.3399C41.4229 10.3399 41.4118 10.3399 41.4007 10.3399C41.3896 10.3399 41.3786 10.3399 41.3675 10.3399C41.3565 10.3399 41.3456 10.3399 41.3347 10.3399C41.3237 10.3399 41.3129 10.3399 41.302 10.3399C41.2912 10.3399 41.2804 10.3399 41.2696 10.3399C41.2589 10.3399 41.2482 10.3399 41.2375 10.3399C41.2269 10.3399 41.2163 10.3399 41.2057 10.3399C41.1951 10.3399 41.1846 10.3399 41.1741 10.3399C41.1636 10.3399 41.1532 10.3399 41.1428 10.3399C41.1324 10.3399 41.1221 10.3399 41.1117 10.3399C41.1014 10.3399 41.0912 10.3399 41.081 10.3399C41.0708 10.3399 41.0606 10.3399 41.0505 10.3399C41.0403 10.3399 41.0303 10.3399 41.0202 10.3399C41.0102 10.3399 41.0002 10.3399 40.9902 10.3399C40.9803 10.3399 40.9704 10.3399 40.9606 10.3399C40.9507 10.3399 40.9409 10.3399 40.9311 10.3399C40.9214 10.3399 40.9117 10.3399 40.902 10.3399C40.8923 10.3399 40.8827 10.3399 40.8731 10.3399C40.8635 10.3399 40.854 10.3399 40.8445 10.3399C40.835 10.3399 40.8256 10.3399 40.8162 10.3399C40.8068 10.3399 40.7974 10.3399 40.7881 10.3399C40.7788 10.3399 40.7696 10.3399 40.7604 10.3399C40.7512 10.3399 40.742 10.3399 40.7329 10.3399C40.7238 10.3399 40.7147 10.3399 40.7057 10.3399C40.6967 10.3399 40.6877 10.3399 40.6788 10.3399C40.6698 10.3399 40.661 10.3399 40.6521 10.3399C40.6433 10.3399 40.6345 10.3399 40.6258 10.3399C40.617 10.3399 40.6084 10.3399 40.5997 10.3399C40.5911 10.3399 40.5825 10.3399 40.5739 10.3399C40.5654 10.3399 40.5569 10.3399 40.5484 10.3399C40.54 10.3399 40.5316 10.3399 40.5232 10.3399C40.5149 10.3399 40.5065 10.3399 40.4983 10.3399C40.49 10.3399 40.4818 10.3399 40.4737 10.3399C40.4655 10.3399 40.4574 10.3399 40.4493 10.3399C40.4412 10.3399 40.4332 10.3399 40.4253 10.3399C40.4173 10.3399 40.4094 10.3399 40.4015 10.3399C40.3936 10.3399 40.3858 10.3399 40.378 10.3399C40.3703 10.3399 40.3625 10.3399 40.3549 10.3399C40.3472 10.3399 40.3396 10.3399 40.332 10.3399C40.3244 10.3399 40.3169 10.3399 40.3094 10.3399C40.3019 10.3399 40.2945 10.3399 40.2871 10.3399C40.2798 10.3399 40.2724 10.3399 40.2651 10.3399C40.2579 10.3399 40.2506 10.3399 40.2435 10.3399C40.2363 10.3399 40.2292 10.3399 40.2221 10.3399C40.215 10.3399 40.208 10.3399 40.201 10.3399C40.194 10.3399 40.1871 10.3399 40.1802 10.3399C40.1733 10.3399 40.1665 10.3399 40.1597 10.3399C40.153 10.3399 40.1462 10.3399 40.1395 10.3399C40.1329 10.3399 40.1263 10.3399 40.1197 10.3399C40.1131 10.3399 40.1066 10.3399 40.1001 10.3399C40.0936 10.3399 40.0872 10.3399 40.0809 10.3399C40.0745 10.3399 40.0682 10.3399 40.0619 10.3399C40.0556 10.3399 40.0494 10.3399 40.0433 10.3399C40.0371 10.3399 40.031 10.3399 40.0249 10.3399C40.0189 10.3399 40.0129 10.3399 40.0069 10.3399C40.001 10.3399 39.995 10.3399 39.9892 10.3399C39.9833 10.3399 39.9775 10.3399 39.9718 10.3399C39.9661 10.3399 39.9604 10.3399 39.9547 10.3399C39.9491 10.3399 39.9435 10.3399 39.9379 10.3399C39.9324 10.3399 39.9269 10.3399 39.9215 10.3399C39.9161 10.3399 39.9107 10.3399 39.9054 10.3399C39.9 10.3399 39.8948 10.3399 39.8895 10.3399C39.8843 10.3399 39.8791 10.3399 39.874 10.3399C39.8689 10.3399 39.8639 10.3399 39.8588 10.3399C39.8538 10.3399 39.8489 10.3399 39.844 10.3399C39.8391 10.3399 39.8342 10.3399 39.8294 10.3399C39.8247 10.3399 39.8199 10.3399 39.8152 10.3399C39.8105 10.3399 39.8059 10.3399 39.8013 10.3399C39.7968 10.3399 39.7922 10.3399 39.7878 10.3399C39.7833 10.3399 39.7789 10.3399 39.7745 10.3399C39.7701 10.3399 39.7658 10.3399 39.7616 10.3399C39.7573 10.3399 39.7531 10.3399 39.749 10.3399C39.7449 10.3399 39.7408 10.3399 39.7367 10.3399C39.7327 10.3399 39.7287 10.3399 39.7248 10.3399C39.7209 10.3399 39.717 10.3399 39.7132 10.3399C39.7094 10.3399 39.7056 10.3399 39.7019 10.3399C39.6982 10.3399 39.6946 10.3399 39.691 10.3399C39.6874 10.3399 39.6838 10.3399 39.6804 10.3399C39.6769 10.3399 39.6734 10.3399 39.6701 10.3399C39.6667 10.3399 39.6634 10.3399 39.6601 10.3399C39.6569 10.3399 39.6537 10.3399 39.6505 10.3399C39.6474 10.3399 39.6443 10.3399 39.6413 10.3399C39.6382 10.3399 39.6352 10.3399 39.6323 10.3399C39.6294 10.3399 39.6265 10.3399 39.6237 10.3399C39.6209 10.3399 39.6182 10.3399 39.6155 10.3399C39.6128 10.3399 39.6101 10.3399 39.6076 10.3399C39.605 10.3399 39.6025 10.3399 39.6 10.3399C39.5975 10.3399 39.5951 10.3399 39.5928 10.3399C39.5904 10.3399 39.5881 10.3399 39.5859 10.3399C39.5836 10.3399 39.5814 10.3399 39.5793 10.3399C39.5772 10.3399 39.5751 10.3399 39.5731 10.3399C39.5711 10.3399 39.5692 10.3399 39.5673 10.3399C39.5654 10.3399 39.5635 10.3399 39.5618 10.3399C39.56 10.3399 39.5583 10.3399 39.5566 10.3399C39.5549 10.3399 39.5533 10.3399 39.5518 10.3399C39.5503 10.3399 39.5488 10.3399 39.5473 10.3399C39.5459 10.3399 39.5445 10.3399 39.5432 10.3399C39.5419 10.3399 39.5407 10.3399 39.5395 10.3399C39.5383 10.3399 39.5372 10.3399 39.5361 10.3399C39.535 10.3399 39.534 10.3399 39.533 10.3399C39.5321 10.3399 39.5312 10.3399 39.5303 10.3399C39.5295 10.3399 39.5287 10.3399 39.528 10.3399C39.5273 10.3399 39.5266 10.3399 39.526 10.3399C39.5254 10.3399 39.5249 10.3399 39.5244 10.3399C39.5239 10.3399 39.5235 10.3399 39.5231 10.3399C39.5228 10.3399 39.5225 10.3399 39.5222 10.3399C39.522 10.3399 39.5218 10.3399 39.5217 10.3399C39.5216 10.3399 39.5215 10.3399 39.5215 11.5899ZM72.8338 12.8399H76.8717V10.3399H72.8338V12.8399ZM39.5215 19.9298C37.5637 19.9298 35.9766 18.3427 35.9766 16.3849H33.4766C33.4766 19.7234 36.183 22.4298 39.5215 22.4298V19.9298ZM80.4166 16.3849C80.4166 18.3427 78.8295 19.9298 76.8717 19.9298V22.4298C80.2102 22.4298 82.9166 19.7234 82.9166 16.3849H80.4166ZM82.9166 16.3849C82.9166 13.0463 80.2102 10.3399 76.8717 10.3399V12.8399C78.8295 12.8399 80.4166 14.427 80.4166 16.3849H82.9166ZM35.9766 16.3849C35.9766 14.427 37.5637 12.8399 39.5215 12.8399V10.3399C36.183 10.3399 33.4766 13.0463 33.4766 16.3849H35.9766ZM39.5215 3.25H76.8717V0.75H39.5215V3.25ZM33.4766 6.79495C33.4766 10.1335 36.183 12.8399 39.5215 12.8399V10.3399C37.5637 10.3399 35.9766 8.75278 35.9766 6.79495H33.4766ZM80.4166 6.79495C80.4166 8.75278 78.8295 10.3399 76.8717 10.3399V12.8399C80.2102 12.8399 82.9166 10.1335 82.9166 6.79495H80.4166ZM76.8717 3.25C78.8295 3.25 80.4166 4.83713 80.4166 6.79495H82.9166C82.9166 3.45642 80.2102 0.75 76.8717 0.75V3.25ZM39.5215 0.75C36.183 0.75 33.4766 3.45642 33.4766 6.79495H35.9766C35.9766 4.83713 37.5637 3.25 39.5215 3.25V0.75ZM50.3732 33.9164H44.8212V36.4164H50.3732V33.9164ZM44.8214 45.5016H51.3827V43.0016H44.8214V45.5016ZM39.0286 39.709C39.0286 42.9082 41.6223 45.5016 44.8214 45.5016V43.0016C43.0029 43.0016 41.5286 41.5274 41.5286 39.709H39.0286ZM41.5286 39.709C41.5286 37.8905 43.0028 36.4164 44.8212 36.4164V33.9164C41.622 33.9164 39.0286 36.5098 39.0286 39.709H41.5286ZM76.8717 41.6096C80.2102 41.6096 82.9166 38.9032 82.9166 35.5647H80.4166C80.4166 37.5225 78.8295 39.1096 76.8717 39.1096V41.6096ZM76.8717 32.0197C78.8295 32.0197 80.4166 33.6068 80.4166 35.5647H82.9166C82.9166 32.2261 80.2102 29.5197 76.8717 29.5197V32.0197ZM17.3133 28.2342H49.8685V25.7342H17.3133V28.2342ZM48.6238 27.0991L51.6522 59.9067L54.1416 59.6769L51.1132 26.8693L48.6238 27.0991ZM15.5296 59.9067L18.558 27.0991L16.0686 26.8693L13.0402 59.6769L15.5296 59.9067ZM65.5152 54.1057C59.2869 54.1057 53.763 56.7337 49.8179 61.4635C45.884 66.1799 43.5712 72.9173 43.5712 81.097H46.0712C46.0712 73.3776 48.2516 67.2444 51.7377 63.0649C55.2126 58.8988 60.0358 56.6057 65.5152 56.6057V54.1057ZM3.42136 51.4636C3.42136 47.3626 4.08661 43.6554 5.41324 40.2239L3.08143 39.3224C1.63345 43.0678 0.921358 47.0839 0.921358 51.4636H3.42136ZM62.1415 40.2177C63.6319 43.6828 64.5176 47.3929 64.5176 51.4636H67.0176C67.0176 47.0148 66.0466 42.9696 64.4381 39.2299L62.1415 40.2177ZM34.4742 80.1943H24.0908V82.6943H34.4742V80.1943ZM20.8422 79.5114C10.5453 74.5222 3.42136 63.8427 3.42136 51.4636H0.921358C0.921358 64.8209 8.6111 76.3631 19.7521 81.7612L20.8422 79.5114ZM64.5176 51.4636C64.5176 63.8427 57.3936 74.5222 47.0967 79.5114L48.1868 81.7612C59.3278 76.3631 67.0176 64.821 67.0176 51.4636H64.5176ZM43.847 80.1943H34.4742V82.6943H43.847V80.1943ZM24.0908 80.1943C22.9279 80.1943 21.8165 79.9835 20.8422 79.5114L19.7521 81.7612C21.1348 82.4312 22.6347 82.6943 24.0908 82.6943V80.1943ZM47.0967 79.5114C46.1226 79.9834 45.0102 80.1943 43.847 80.1943V82.6943C45.303 82.6943 46.804 82.4312 48.1868 81.7612L47.0967 79.5114ZM9.2376 27.9819H58.1966V25.4819H9.2376V27.9819ZM58.1966 27.9819C58.9 27.9819 59.4702 28.5521 59.4702 29.2555H61.9702C61.9702 27.1714 60.2807 25.4819 58.1966 25.4819V27.9819ZM9.2376 25.4819C7.15347 25.4819 5.46394 27.1714 5.46394 29.2555H7.96394C7.96394 28.5521 8.53418 27.9819 9.2376 27.9819V25.4819ZM16.8086 36.5623H22.3606V34.0623H16.8086V36.5623ZM22.3605 43.1475H15.7991V45.6475H22.3605V43.1475ZM25.6532 39.8549C25.6532 41.6733 24.179 43.1475 22.3605 43.1475V45.6475C25.5596 45.6475 28.1532 43.0541 28.1532 39.8549H25.6532ZM28.1532 39.8549C28.1532 36.6557 25.5598 34.0623 22.3606 34.0623V36.5623C24.1791 36.5623 25.6532 38.0364 25.6532 39.8549H28.1532ZM64.4381 39.2299C63.0279 35.9514 61.9702 32.6337 61.9702 29.2555H59.4702C59.4702 33.1381 60.6828 36.8263 62.1415 40.2177L64.4381 39.2299ZM5.41324 40.2239C6.72836 36.8221 7.96394 33.1348 7.96394 29.2555H5.46394C5.46394 32.637 4.38449 35.9519 3.08143 39.3224L5.41324 40.2239Z" fill="#E9E9E9"/>
</svg>
