<svg width="83" height="88" viewBox="0 0 83 88" fill="none" xmlns="http://www.w3.org/2000/svg">
<path d="M28.3046 38.8493C28.7522 38.3237 28.689 37.5348 28.1634 37.0872C27.6378 36.6396 26.8489 36.7028 26.4013 37.2284L28.3046 38.8493ZM16.4844 50.8005L15.5328 49.99L15.2742 50.2936L15.2392 50.6908L16.4844 50.8005ZM42.5759 57.9773C43.0904 57.517 43.1344 56.7268 42.6741 56.2122C42.2138 55.6977 41.4236 55.6538 40.909 56.114L42.5759 57.9773ZM31.4254 66.2752L31.5384 67.5201L31.9505 67.4827L32.2589 67.2068L31.4254 66.2752ZM60.2033 1.38595L61.1042 0.519354C60.8634 0.269031 60.5293 0.130193 60.182 0.136128C59.8347 0.142064 59.5055 0.292237 59.2734 0.550642L60.2033 1.38595ZM30.4972 32.5867C30.0358 33.1003 30.0782 33.8906 30.5918 34.352C31.1054 34.8133 31.8957 34.7709 32.357 34.2573L30.4972 32.5867ZM81.6647 23.7735C82.1827 23.3171 82.2327 22.5272 81.7764 22.0092C81.32 21.4912 80.5302 21.4412 80.0122 21.8976L81.6647 23.7735ZM45.8064 52.0311C45.2884 52.4874 45.2384 53.2773 45.6948 53.7953C46.1511 54.3133 46.941 54.3633 47.459 53.907L45.8064 52.0311ZM79.9363 23.7018C80.4149 24.1993 81.2062 24.2147 81.7037 23.7361C82.2012 23.2574 82.2166 22.4661 81.738 21.9686L79.9363 23.7018ZM56.9461 5.12263C56.4607 4.63177 55.6693 4.62737 55.1784 5.11281C54.6875 5.59825 54.6832 6.38969 55.1686 6.88055L56.9461 5.12263ZM75.6032 27.5435C76.0887 28.0343 76.8801 28.0387 77.371 27.5533C77.8618 27.0678 77.8662 26.2764 77.3808 25.7855L75.6032 27.5435ZM30.9437 46.6585C30.4556 46.1703 29.6641 46.1703 29.1759 46.6585C28.6878 47.1466 28.6878 47.9381 29.176 48.4263L30.9437 46.6585ZM34.0631 53.3134C34.5513 53.8016 35.3427 53.8016 35.8309 53.3134C36.319 52.8252 36.319 52.0338 35.8309 51.5456L34.0631 53.3134ZM35.0163 42.5859C34.5282 42.0977 33.7367 42.0977 33.2486 42.5859C32.7604 43.074 32.7604 43.8655 33.2486 44.3536L35.0163 42.5859ZM38.1357 49.2408C38.6239 49.7289 39.4153 49.7289 39.9035 49.2408C40.3917 48.7526 40.3917 47.9612 39.9035 47.473L38.1357 49.2408ZM38.8175 38.7847C38.3293 38.2966 37.5379 38.2966 37.0497 38.7847C36.5615 39.2729 36.5615 40.0644 37.0497 40.5525L38.8175 38.7847ZM41.9369 45.4397C42.425 45.9278 43.2165 45.9278 43.7046 45.4397C44.1928 44.9515 44.1928 44.16 43.7046 43.6719L41.9369 45.4397ZM48.2947 29.2571C47.7928 28.783 47.0016 28.8057 46.5276 29.3076C46.0536 29.8094 46.0762 30.6006 46.5781 31.0746L48.2947 29.2571ZM51.4652 35.6902C51.9671 36.1643 52.7583 36.1416 53.2323 35.6398C53.7063 35.1379 53.6837 34.3467 53.1818 33.8727L51.4652 35.6902ZM46.5781 33.8727C46.0762 34.3467 46.0536 35.1379 46.5276 35.6398C47.0016 36.1417 47.7928 36.1643 48.2947 35.6902L46.5781 33.8727ZM53.1818 31.0746C53.6837 30.6006 53.7063 29.8094 53.2323 29.3076C52.7583 28.8057 51.9671 28.783 51.4652 29.2571L53.1818 31.0746ZM58.02 7.87131C57.4988 8.32401 57.4433 9.11352 57.896 9.63472C58.3487 10.1559 59.1382 10.2115 59.6594 9.75875L58.02 7.87131ZM61.023 8.57435C61.5442 8.12165 61.5998 7.33214 61.1471 6.81094C60.6944 6.28974 59.9049 6.23421 59.3836 6.68691L61.023 8.57435ZM61.6819 11.5741C61.1607 12.0268 61.1052 12.8163 61.5579 13.3375C62.0106 13.8587 62.8001 13.9142 63.3213 13.4615L61.6819 11.5741ZM64.6849 12.2771C65.2061 11.8244 65.2616 11.0349 64.8089 10.5137C64.3562 9.99249 63.5667 9.93696 63.0455 10.3897L64.6849 12.2771ZM65.3508 15.2839C64.8296 15.7366 64.774 16.5261 65.2267 17.0473C65.6794 17.5685 66.4689 17.6241 66.9901 17.1714L65.3508 15.2839ZM68.3538 15.987C68.875 15.5343 68.9305 14.7448 68.4778 14.2236C68.0251 13.7023 67.2356 13.6468 66.7144 14.0995L68.3538 15.987ZM68.8804 18.853C68.3592 19.3057 68.3036 20.0952 68.7563 20.6164C69.209 21.1376 69.9986 21.1931 70.5198 20.7404L68.8804 18.853ZM71.8834 19.556C72.4046 19.1033 72.4601 18.3138 72.0074 17.7926C71.5547 17.2714 70.7652 17.2159 70.244 17.6686L71.8834 19.556ZM72.4223 22.4344C71.9011 22.8871 71.8455 23.6766 72.2982 24.1978C72.7509 24.719 73.5404 24.7745 74.0616 24.3218L72.4223 22.4344ZM75.4252 23.1374C75.9464 22.6847 76.002 21.8952 75.5493 21.374C75.0966 20.8528 74.3071 20.7973 73.7859 21.25L75.4252 23.1374ZM16.4844 77.1368L16.4844 78.3868L16.4844 78.3868L16.4844 77.1368ZM22.4576 77.1368L22.4576 75.8868L22.4576 75.8868L22.4576 77.1368ZM22.7291 73.3357L22.8473 72.0913C22.2374 72.0333 21.6754 72.426 21.52 73.0186C21.3646 73.6112 21.6616 74.2291 22.2214 74.4779L22.7291 73.3357ZM29.2453 80.1234L27.9969 80.061L29.2453 80.1234ZM20.014 85.3896C19.3237 85.3896 18.764 85.9492 18.764 86.6396C18.764 87.3299 19.3237 87.8896 20.014 87.8896L20.014 85.3896ZM1.55145 80.1234L0.30145 80.1239L1.55145 80.1234ZM13.8079 87.8889C14.4979 87.8664 15.039 87.2888 15.0165 86.5988C14.9939 85.9088 14.4163 85.3677 13.7263 85.3903L13.8079 87.8889ZM26.4013 37.2284L15.5328 49.99L17.4361 51.6109L28.3046 38.8493L26.4013 37.2284ZM40.909 56.114L30.592 65.3435L32.2589 67.2068L42.5759 57.9773L40.909 56.114ZM59.2734 0.550642L30.4972 32.5867L32.357 34.2573L61.1333 2.22125L59.2734 0.550642ZM80.0122 21.8976L45.8064 52.0311L47.459 53.907L81.6647 23.7735L80.0122 21.8976ZM81.738 21.9686L61.1042 0.519354L59.3025 2.25254L79.9363 23.7018L81.738 21.9686ZM77.3808 25.7855L56.9461 5.12263L55.1686 6.88055L75.6032 27.5435L77.3808 25.7855ZM35.8309 51.5456L30.9437 46.6585L29.176 48.4263L34.0631 53.3134L35.8309 51.5456ZM39.9035 47.473L35.0163 42.5859L33.2486 44.3536L38.1357 49.2408L39.9035 47.473ZM43.7046 43.6719L38.8175 38.7847L37.0497 40.5525L41.9369 45.4397L43.7046 43.6719ZM53.1818 33.8727L48.2947 29.2571L46.5781 31.0746L51.4652 35.6902L53.1818 33.8727ZM51.4652 29.2571L46.5781 33.8727L48.2947 35.6902L53.1818 31.0746L51.4652 29.2571ZM59.3836 6.68691L58.02 7.87131L59.6594 9.75875L61.023 8.57435L59.3836 6.68691ZM63.0455 10.3897L61.6819 11.5741L63.3213 13.4615L64.6849 12.2771L63.0455 10.3897ZM66.7144 14.0995L65.3508 15.2839L66.9901 17.1714L68.3538 15.987L66.7144 14.0995ZM70.244 17.6686L68.8804 18.853L70.5198 20.7404L71.8834 19.556L70.244 17.6686ZM73.7859 21.25L72.4223 22.4344L74.0616 24.3218L75.4252 23.1374L73.7859 21.25ZM15.5852 51.6687L30.5262 67.1434L32.3247 65.4069L17.3837 49.9322L15.5852 51.6687ZM31.3125 65.0303L22.346 65.8435L22.5718 68.3333L31.5384 67.5201L31.3125 65.0303ZM23.36 66.222L16.5723 59.1628L14.7702 60.8956L21.5579 67.9548L23.36 66.222ZM16.9164 60.1389L17.7296 50.9102L15.2392 50.6908L14.426 59.9195L16.9164 60.1389ZM12.4194 73.2463C12.0176 73.9351 11.5553 75.2326 12.1681 76.4689C12.8293 77.8028 14.3796 78.3868 16.4844 78.3868L16.4844 75.8868C14.6795 75.8868 14.4204 75.3835 14.408 75.3586C14.3473 75.236 14.3472 74.9032 14.5789 74.506L12.4194 73.2463ZM16.4844 78.3868L22.4576 78.3868L22.4576 75.8868L16.4844 75.8868L16.4844 78.3868ZM22.4576 78.3868C24.1598 78.3868 25.439 77.2975 25.605 75.7794C25.7657 74.3101 24.8418 72.9067 23.2368 72.1934L22.2214 74.4779C23.06 74.8506 23.1373 75.3479 23.1198 75.5076C23.1092 75.6043 23.0681 75.6803 22.9986 75.7388C22.9301 75.7963 22.7724 75.8868 22.4576 75.8868L22.4576 78.3868ZM22.6109 74.5801C23.5782 74.672 25.0286 75.065 26.1731 75.9344C27.2587 76.7591 28.0988 78.0226 27.9969 80.061L30.4938 80.1858C30.6413 77.2346 29.3546 75.2117 27.6854 73.9437C26.075 72.7204 24.1425 72.2143 22.8473 72.0913L22.6109 74.5801ZM27.9969 80.061C27.8867 82.2637 26.7793 83.5288 25.2765 84.3081C23.6977 85.1268 21.687 85.3896 20.014 85.3896L20.014 87.8896C21.8718 87.8896 24.3411 87.6093 26.4273 86.5275C28.5896 85.4062 30.3324 83.4132 30.4938 80.1858L27.9969 80.061ZM7.65557 68.1842C6.58318 69.4585 5.61369 70.5372 4.74099 71.5236C3.87713 72.5 3.09679 73.3985 2.44954 74.2704C1.12743 76.0513 0.300407 77.8019 0.30145 80.1239L2.80145 80.1228C2.80073 78.511 3.33349 77.2738 4.45685 75.7606C5.03233 74.9854 5.74615 74.1604 6.61339 73.1801C7.47178 72.2099 8.47032 71.0988 9.56843 69.7938L7.65557 68.1842ZM0.30145 80.1239C0.302072 81.5123 0.580269 82.7738 1.20837 83.865C1.83982 84.9621 2.77769 85.8048 3.96313 86.4239C6.27622 87.6321 9.60334 88.0262 13.8079 87.8889L13.7263 85.3903C9.61557 85.5245 6.83593 85.104 5.12057 84.208C4.29179 83.7751 3.735 83.2432 3.37508 82.6179C3.01182 81.9868 2.80192 81.178 2.80145 80.1228L0.30145 80.1239ZM21.7041 66.0921L12.7443 72.8798L14.254 74.8725L23.2137 68.0848L21.7041 66.0921ZM14.383 72.9922L9.49588 68.1051L7.72811 69.8729L12.6153 74.76L14.383 72.9922ZM9.59386 69.7626L16.6531 60.8028L14.6893 59.2556L7.63013 68.2154L9.59386 69.7626ZM57.5911 32.3353C57.5911 36.4434 54.2608 39.7736 50.1528 39.7736L50.1528 42.2736C55.6415 42.2736 60.0911 37.8241 60.0911 32.3353L57.5911 32.3353ZM50.1528 39.7736C46.0447 39.7736 42.7145 36.4434 42.7145 32.3353L40.2145 32.3353C40.2145 37.8241 44.664 42.2736 50.1528 42.2736L50.1528 39.7736ZM42.7145 32.3353C42.7145 28.2273 46.0447 24.8971 50.1528 24.8971L50.1528 22.3971C44.664 22.3971 40.2145 26.8466 40.2145 32.3353L42.7145 32.3353ZM50.1528 24.8971C54.2608 24.8971 57.5911 28.2273 57.5911 32.3353L60.0911 32.3353C60.0911 26.8466 55.6415 22.3971 50.1528 22.3971L50.1528 24.8971Z" fill="#E9E9E9"/>
</svg>
