<svg width="104" height="80" viewBox="0 0 104 80" fill="none" xmlns="http://www.w3.org/2000/svg">
<path fill-rule="evenodd" clip-rule="evenodd" d="M88.9742 66.9719C86.2141 74.6846 77.7241 78.6994 70.0114 75.9392L70.0102 75.9388L16.118 56.7035C15.2888 56.4076 14.3766 56.8399 14.0806 57.6691C13.7846 58.4984 14.2169 59.4105 15.0462 59.7065L68.9371 78.9413L70.0114 75.9392L68.9383 78.9417C78.3087 82.2944 88.6229 77.4165 91.9763 68.0463C95.3298 58.6756 90.452 48.3606 81.0813 45.0071L65.8295 39.5488C67.4478 39.304 69.2723 39.0266 71.1451 38.7392C77.0179 37.8379 83.4511 36.8254 85.4164 36.4177L85.7397 36.3507C89.2657 35.6199 91.7432 35.1063 93.5769 33.9847C94.328 33.5253 94.5645 32.544 94.105 31.7928C93.6456 31.0417 92.6643 30.8053 91.9131 31.2647C90.6139 32.0594 88.7226 32.4754 84.7687 33.2957C82.9079 33.6817 76.5866 34.6782 70.6614 35.5876C67.714 36.0399 64.8858 36.4675 62.7943 36.782C61.7485 36.9393 60.8871 37.0683 60.2872 37.1579L59.4837 37.2778L52.7662 34.8738L66.5683 32.6479C69.5238 32.1713 71.5333 29.3891 71.0567 26.4336L69.0706 14.1184C68.594 11.1629 65.8118 9.15342 62.8563 9.63003L44.5988 12.5743C41.6433 13.0509 39.6338 15.8332 40.1105 18.7887L42.0882 31.0523L34.6569 28.3929C34.9378 28.3442 35.2138 28.2405 35.4695 28.0784C36.5106 27.4183 36.8194 26.0392 36.1593 24.9982C35.4992 23.9571 34.1201 23.6483 33.0791 24.3084C32.038 24.9685 31.7292 26.3476 32.3893 27.3886C32.4485 27.482 32.5135 27.5695 32.5835 27.6509L24.8031 24.8664C20.1184 23.1899 15.1978 23.5706 11.0289 25.5415C11.1589 19.5311 15.5886 14.4305 21.8542 13.4001L82.7411 3.38784C90.8242 2.05864 98.4545 7.53381 99.7837 15.617C100.464 19.7547 99.3632 23.7711 97.0391 26.8892C96.513 27.5952 96.6587 28.594 97.3647 29.1202C98.0706 29.6464 99.0695 29.5006 99.5957 28.7947C102.416 25.0113 103.757 20.1262 102.93 15.0996C101.315 5.27881 92.0445 -1.37335 82.2237 0.241581L21.3368 10.2539C12.9432 11.6341 7.06559 19.0146 7.91799 27.4147C5.18416 29.4609 3.0006 32.3056 1.76384 35.7614C-0.92612 43.2779 2.48362 51.8983 8.20487 56.5076C8.89052 57.06 9.89415 56.952 10.4465 56.2663C10.9989 55.5807 10.8909 54.577 10.2053 54.0247C5.3374 50.1029 2.61567 42.8441 4.7659 36.8358C5.8803 33.7219 7.92865 31.2108 10.4828 29.5049C10.4991 29.4945 10.5151 29.4838 10.531 29.4728C14.2963 26.9792 19.1495 26.2297 23.7287 27.8685L80.007 48.0091C87.7196 50.7693 91.7344 59.2592 88.9742 66.9719ZM55.9108 61.5936C55.495 62.754 54.2172 63.3577 53.0568 62.9419L35.6471 56.7042C34.4867 56.2884 33.883 55.0106 34.2988 53.8502L38.4254 42.3326C38.8412 41.1721 40.119 40.5685 41.2794 40.9842L58.6891 47.222C59.8495 47.6377 60.4532 48.9155 60.0374 50.0759L55.9108 61.5936ZM51.9813 65.9436C54.7995 66.9533 57.9027 65.4872 58.9124 62.669L63.0391 51.1514C64.0488 48.3332 62.5828 45.23 59.7646 44.2203L42.3549 37.9826C39.5367 36.9728 36.4335 38.4389 35.4238 41.2571L31.2971 52.7747C30.2874 55.5929 31.7534 58.6961 34.5717 59.7058L51.9813 65.9436ZM67.9088 26.9413C68.1051 28.1582 67.2776 29.3039 66.0607 29.5001L47.8032 32.4444C46.5862 32.6407 45.4406 31.8132 45.2443 30.5963L43.2583 18.281C43.062 17.0641 43.8895 15.9184 45.1064 15.7222L63.364 12.7779C64.5809 12.5816 65.7266 13.4091 65.9228 14.626L67.9088 26.9413ZM49.7734 54.8427C50.5962 55.1561 51.5173 54.7432 51.8308 53.9204C52.1442 53.0976 51.7313 52.1765 50.9085 51.8631L48.9924 51.1331L49.8184 48.997C50.136 48.1758 49.7277 47.2526 48.9065 46.935C48.0852 46.6175 47.1621 47.0258 46.8445 47.847L46.0127 49.998L44.2112 49.3117C43.3884 48.9982 42.4673 49.4111 42.1539 50.2339C41.8404 51.0567 42.2533 51.9778 43.0761 52.2913L44.8627 52.9719L44.0741 55.011C43.7566 55.8322 44.1649 56.7554 44.9861 57.073C45.8073 57.3905 46.7305 56.9823 47.048 56.161L47.8423 54.107L49.7734 54.8427ZM59.2267 23.6688C60.0941 23.5175 60.6746 22.6918 60.5234 21.8244C60.3721 20.957 59.5464 20.3764 58.679 20.5277L56.6698 20.878L56.3787 18.9872C56.2448 18.1169 55.4307 17.5201 54.5605 17.654C53.6902 17.788 53.0934 18.6021 53.2273 19.4723L53.5281 21.4259L51.345 21.8065C50.4776 21.9578 49.8971 22.7836 50.0483 23.651C50.1996 24.5184 51.0254 25.0989 51.8928 24.9476L54.0133 24.5779L54.3372 26.6824C54.4712 27.5526 55.2852 28.1495 56.1555 28.0155C57.0257 27.8815 57.6226 27.0675 57.4886 26.1972L57.155 24.03L59.2267 23.6688ZM85.858 12.4029C86.8991 11.7428 87.2079 10.3637 86.5478 9.32268C85.8877 8.28164 84.5087 7.97282 83.4676 8.63292C82.4266 9.29302 82.1178 10.6721 82.7779 11.7131C83.438 12.7541 84.817 13.063 85.858 12.4029ZM87.8132 16.0714C88.4733 17.1125 88.1645 18.4915 87.1235 19.1516C86.0824 19.8117 84.7034 19.5029 84.0433 18.4618C83.3832 17.4208 83.692 16.0418 84.7331 15.3817C85.7741 14.7216 87.1531 15.0304 87.8132 16.0714ZM77.8718 21.2371C78.9128 20.577 79.2217 19.198 78.5616 18.157C77.9015 17.1159 76.5224 16.8071 75.4814 17.4672C74.4403 18.1273 74.1315 19.5063 74.7916 20.5474C75.4517 21.5884 76.8308 21.8972 77.8718 21.2371ZM88.7227 26.4414C89.7638 25.7813 90.0726 24.4023 89.4125 23.3613C88.7524 22.3202 87.3733 22.0114 86.3323 22.6715C85.2913 23.3316 84.9824 24.7106 85.6425 25.7517C86.3026 26.7927 87.6817 27.1015 88.7227 26.4414ZM22.5951 34.5383C22.5951 35.771 21.5958 36.7702 20.3631 36.7702C19.1304 36.7702 18.1312 35.771 18.1312 34.5383C18.1312 33.3056 19.1304 32.3063 20.3631 32.3063C21.5958 32.3063 22.5951 33.3056 22.5951 34.5383ZM29.291 39.9588C30.5236 39.9588 31.5229 38.9595 31.5229 37.7268C31.5229 36.4941 30.5236 35.4948 29.291 35.4948C28.0583 35.4948 27.059 36.4941 27.059 37.7268C27.059 38.9595 28.0583 39.9588 29.291 39.9588ZM28.9721 44.1038C28.9721 45.3365 27.9728 46.3358 26.7402 46.3358C25.5075 46.3358 24.5082 45.3365 24.5082 44.1038C24.5082 42.8712 25.5075 41.8719 26.7402 41.8719C27.9728 41.8719 28.9721 42.8712 28.9721 44.1038ZM26.4213 51.1186C26.4213 52.3512 25.422 53.3505 24.1893 53.3505C22.9567 53.3505 21.9574 52.3512 21.9574 51.1186C21.9574 49.8859 22.9567 48.8866 24.1893 48.8866C25.422 48.8866 26.4213 49.8859 26.4213 51.1186ZM17.8123 43.1473C19.045 43.1473 20.0443 42.148 20.0443 40.9153C20.0443 39.6826 19.045 38.6834 17.8123 38.6834C16.5796 38.6834 15.5803 39.6826 15.5803 40.9153C15.5803 42.148 16.5796 43.1473 17.8123 43.1473ZM17.4935 47.9301C17.4935 49.1627 16.4942 50.162 15.2615 50.162C14.0288 50.162 13.0295 49.1627 13.0295 47.9301C13.0295 46.6974 14.0288 45.6981 15.2615 45.6981C16.4942 45.6981 17.4935 46.6974 17.4935 47.9301ZM79.0318 57.8145C80.2645 57.8145 81.2638 56.8152 81.2638 55.5825C81.2638 54.3498 80.2645 53.3505 79.0318 53.3505C77.7992 53.3505 76.7999 54.3498 76.7999 55.5825C76.7999 56.8152 77.7992 57.8145 79.0318 57.8145ZM72.3359 52.394C72.3359 53.6267 71.3367 54.6259 70.104 54.6259C68.8713 54.6259 67.872 53.6267 67.872 52.394C67.872 51.1613 68.8713 50.162 70.104 50.162C71.3367 50.162 72.3359 51.1613 72.3359 52.394ZM76.481 64.1915C77.7137 64.1915 78.713 63.1922 78.713 61.9595C78.713 60.7269 77.7137 59.7276 76.481 59.7276C75.2483 59.7276 74.2491 60.7269 74.2491 61.9595C74.2491 63.1922 75.2483 64.1915 76.481 64.1915ZM69.7851 58.771C69.7851 60.0037 68.7859 61.003 67.5532 61.003C66.3205 61.003 65.3212 60.0037 65.3212 58.771C65.3212 57.5383 66.3205 56.5391 67.5532 56.5391C68.7859 56.5391 69.7851 57.5383 69.7851 58.771ZM65.0024 68.0177C66.235 68.0177 67.2343 67.0184 67.2343 65.7858C67.2343 64.5531 66.235 63.5538 65.0024 63.5538C63.7697 63.5538 62.7704 64.5531 62.7704 65.7858C62.7704 67.0184 63.7697 68.0177 65.0024 68.0177ZM76.1622 68.9743C76.1622 70.2069 75.1629 71.2062 73.9302 71.2062C72.6975 71.2062 71.6982 70.2069 71.6982 68.9743C71.6982 67.7416 72.6975 66.7423 73.9302 66.7423C75.1629 66.7423 76.1622 67.7416 76.1622 68.9743ZM80.1658 25.4457C80.8259 26.4867 80.5171 27.8658 79.476 28.5259C78.435 29.186 77.0559 28.8772 76.3959 27.8361C75.7357 26.7951 76.0446 25.416 77.0856 24.7559C78.1266 24.0958 79.5057 24.4047 80.1658 25.4457ZM77.3011 11.4071C77.9612 12.4482 77.6524 13.8272 76.6113 14.4873C75.5703 15.1474 74.1913 14.8386 73.5312 13.7976C72.8711 12.7565 73.1799 11.3775 74.2209 10.7174C75.262 10.0573 76.641 10.3661 77.3011 11.4071ZM34.8938 18.2475C35.5539 19.2885 35.2451 20.6676 34.2041 21.3277C33.163 21.9878 31.784 21.679 31.1239 20.6379C30.4638 19.5969 30.7726 18.2178 31.8136 17.5577C32.8547 16.8976 34.2337 17.2064 34.8938 18.2475ZM24.9574 23.4152C25.9984 22.7551 26.3072 21.376 25.6471 20.335C24.987 19.2939 23.608 18.9851 22.5669 19.6452C21.5259 20.3053 21.2171 21.6844 21.8772 22.7254C22.5373 23.7664 23.9163 24.0753 24.9574 23.4152Z" fill="#E9E9E9"/>
</svg>
