<svg width="23" height="23" viewBox="0 0 23 23" fill="none" xmlns="http://www.w3.org/2000/svg">
<path fill-rule="evenodd" clip-rule="evenodd" d="M14.8188 3.04185C13.0284 2.25195 11.028 2.05627 9.11613 2.48398C7.20421 2.91169 5.48315 3.93989 4.20963 5.41521C2.93611 6.89054 2.17836 8.73396 2.04939 10.6705C1.92042 12.6071 2.42714 14.5331 3.49399 16.1612C4.56083 17.7893 6.13063 19.0324 7.96927 19.705C9.80791 20.3776 11.8169 20.4436 13.6965 19.8934C15.5762 19.3431 17.2259 18.2059 18.3995 16.6515C19.5731 15.0971 20.2078 13.2086 20.2089 11.2678V10.3484C20.2089 9.79613 20.6611 9.34842 21.2189 9.34842C21.7767 9.34842 22.2289 9.79613 22.2289 10.3484V11.2684C22.2275 13.6405 21.4517 15.9491 20.0173 17.849C18.5829 19.7489 16.5666 21.1387 14.2693 21.8113C11.9719 22.4838 9.51649 22.4031 7.26926 21.581C5.02204 20.759 3.10339 19.2397 1.79947 17.2498C0.495548 15.2598 -0.123781 12.9059 0.0338475 10.5389C0.191476 8.17201 1.11762 5.91895 2.67414 4.11577C4.23067 2.31259 6.33419 1.05591 8.67098 0.533152C11.0078 0.0103922 13.4526 0.249562 15.6409 1.21499C16.1504 1.43977 16.3794 2.03095 16.1524 2.53542C15.9254 3.03989 15.3283 3.26663 14.8188 3.04185Z" fill="#5ABF87"/>
<path fill-rule="evenodd" clip-rule="evenodd" d="M21.9327 2.56096C22.3273 2.95129 22.3276 3.58445 21.9334 3.97517L11.8338 13.9852C11.6445 14.1729 11.3875 14.2784 11.1196 14.2784C10.8516 14.2785 10.5946 14.1731 10.4052 13.9855L7.37529 10.9855C6.98088 10.595 6.98088 9.96184 7.37529 9.57131C7.7697 9.18079 8.40918 9.18079 8.80359 9.57131L11.119 11.8639L20.5044 2.56167C20.8986 2.17095 21.5381 2.17063 21.9327 2.56096Z" fill="#5ABF87"/>
</svg>
